<svg xmlns="http://www.w3.org/2000/svg" xmlns:xlink="http://www.w3.org/1999/xlink" width="2135pt" height="1577pt" viewBox="0.00 0.00 2135.00 1576.93">
<g id="graph0" class="graph" transform="scale(1 1) rotate(0) translate(4 1572.93)">
<title>G</title>
<polygon fill="white" stroke="none" points="-4,4 -4,-1572.93 2131,-1572.93 2131,4 -4,4"/>
<g id="clust1" class="cluster">
<title>cluster_user</title>
<polygon fill="lightgrey" stroke="lightgrey" points="8,-1313.8 8,-1560.93 155,-1560.93 155,-1313.8 8,-1313.8"/>
<text text-anchor="middle" x="81.5" y="-1544.33" font-family="Arial Bold" font-size="14.00">User Interaction</text>
</g>
<g id="clust2" class="cluster">
<title>cluster_frontend</title>
<polygon fill="lightgrey" stroke="lightgrey" points="360,-1207 360,-1283.8 462,-1283.8 462,-1207 360,-1207"/>
<text text-anchor="middle" x="411" y="-1267.2" font-family="Arial Bold" font-size="14.00">Frontend Layer</text>
</g>
<g id="clust3" class="cluster">
<title>cluster_application</title>
<polygon fill="lightgrey" stroke="lightgrey" points="678,-935.2 678,-1160 1155,-1160 1155,-935.2 678,-935.2"/>
<text text-anchor="middle" x="916.5" y="-1143.4" font-family="Arial Bold" font-size="14.00">Application Layer</text>
</g>
<g id="clust4" class="cluster">
<title>cluster_workers</title>
<polygon fill="lightgrey" stroke="lightgrey" points="406,-666.6 406,-894.2 899,-894.2 899,-666.6 406,-666.6"/>
<text text-anchor="middle" x="652.5" y="-877.6" font-family="Arial Bold" font-size="14.00">Processing Layer</text>
</g>
<g id="clust5" class="cluster">
<title>cluster_storage</title>
<polygon fill="lightgrey" stroke="lightgrey" points="907,-657.6 907,-764.4 1373,-764.4 1373,-657.6 907,-657.6"/>
<text text-anchor="middle" x="1140" y="-747.8" font-family="Arial Bold" font-size="14.00">Storage Layer</text>
</g>
<g id="clust6" class="cluster">
<title>cluster_analytics</title>
<polygon fill="lightgrey" stroke="lightgrey" points="1242,-137.8 1242,-616.6 1406,-616.6 1406,-137.8 1242,-137.8"/>
<text text-anchor="middle" x="1324" y="-600" font-family="Arial Bold" font-size="14.00">Analytics Layer</text>
</g>
<g id="clust7" class="cluster">
<title>cluster_monitoring</title>
<polygon fill="lightgrey" stroke="lightgrey" points="779,-1319.8 779,-1396.6 1011,-1396.6 1011,-1319.8 779,-1319.8"/>
<text text-anchor="middle" x="895" y="-1380" font-family="Arial Bold" font-size="14.00">Monitoring Layer (Future)</text>
</g>
<g id="clust8" class="cluster">
<title>cluster_presentation</title>
<polygon fill="lightgrey" stroke="lightgrey" points="1276,-8 1276,-96.8 1549,-96.8 1549,-8 1276,-8"/>
<text text-anchor="middle" x="1412.5" y="-80.2" font-family="Arial Bold" font-size="14.00">Presentation Layer (Future)</text>
</g>
<g id="clust9" class="cluster">
<title>cluster_legend</title>
<polygon fill="lightgrey" stroke="lightgrey" points="1747,-1207 1747,-1535.27 2119,-1535.27 2119,-1207 1747,-1207"/>
<text text-anchor="middle" x="1933" y="-1520.47" font-family="Arial Bold" font-size="12.00">Legend</text>
</g>
<!-- user -->
<g id="node1" class="node">
<title>user</title>
<ellipse fill="white" stroke="black" cx="74" cy="-1486.87" rx="41.27" ry="41.27"/>
<text text-anchor="middle" x="74" y="-1482.67" font-family="Arial" font-size="14.00">User</text>
</g>
<!-- telegram -->
<g id="node2" class="node">
<title>telegram</title>
<path fill="#0088cc" stroke="black" d="M105.97,-1369.8C105.97,-1369.8 42.03,-1369.8 42.03,-1369.8 36.03,-1369.8 30.03,-1363.8 30.03,-1357.8 30.03,-1357.8 30.03,-1333.8 30.03,-1333.8 30.03,-1327.8 36.03,-1321.8 42.03,-1321.8 42.03,-1321.8 105.97,-1321.8 105.97,-1321.8 111.97,-1321.8 117.97,-1327.8 117.97,-1333.8 117.97,-1333.8 117.97,-1357.8 117.97,-1357.8 117.97,-1363.8 111.97,-1369.8 105.97,-1369.8"/>
<text text-anchor="middle" x="74" y="-1350" font-family="Arial" font-size="14.00" fill="white">Telegram</text>
<text text-anchor="middle" x="74" y="-1333.2" font-family="Arial" font-size="14.00" fill="white">Bot</text>
</g>
<!-- user&#45;&gt;telegram -->
<g id="edge1" class="edge">
<title>user-&gt;telegram</title>
<path fill="none" stroke="black" d="M74,-1445.27C74,-1425.09 74,-1400.94 74,-1381.62"/>
<polygon fill="black" stroke="black" points="77.5,-1381.8 74,-1371.8 70.5,-1381.8 77.5,-1381.8"/>
<text text-anchor="middle" x="110.68" y="-1407.6" font-family="Arial" font-size="10.00">Voice Messages</text>
</g>
<!-- nginx -->
<g id="node3" class="node">
<title>nginx</title>
<path fill="#009639" stroke="black" d="M435.57,-1251C435.57,-1251 386.43,-1251 386.43,-1251 380.43,-1251 374.43,-1245 374.43,-1239 374.43,-1239 374.43,-1227 374.43,-1227 374.43,-1221 380.43,-1215 386.43,-1215 386.43,-1215 435.57,-1215 435.57,-1215 441.57,-1215 447.57,-1221 447.57,-1227 447.57,-1227 447.57,-1239 447.57,-1239 447.57,-1245 441.57,-1251 435.57,-1251"/>
<text text-anchor="middle" x="411" y="-1228.8" font-family="Arial" font-size="14.00" fill="white">NGINX</text>
</g>
<!-- telegram&#45;&gt;nginx -->
<g id="edge2" class="edge">
<title>telegram-&gt;nginx</title>
<path fill="none" stroke="darkgreen" stroke-width="2" d="M118.17,-1324.61C181.66,-1301.44 295.86,-1264.26 361.94,-1245.55"/>
<polygon fill="darkgreen" stroke="darkgreen" stroke-width="2" points="362.48,-1249.03 371.18,-1242.98 360.6,-1242.29 362.48,-1249.03"/>
</g>
<!-- telegram&#45;&gt;nginx -->
<g id="edge13" class="edge">
<title>telegram-&gt;nginx</title>
<path fill="none" stroke="black" stroke-dasharray="5,2" d="M118.35,-1334.57C182.64,-1316.61 298.36,-1279.04 363.94,-1255.24"/>
<polygon fill="black" stroke="black" points="364.81,-1258.65 372.99,-1251.93 362.4,-1252.08 364.81,-1258.65"/>
</g>
<!-- fastapi -->
<g id="node4" class="node">
<title>fastapi</title>
<path fill="#009688" stroke="black" d="M1135.43,-1127.2C1135.43,-1127.2 1018.57,-1127.2 1018.57,-1127.2 1012.57,-1127.2 1006.57,-1121.2 1006.57,-1115.2 1006.57,-1115.2 1006.57,-1091.2 1006.57,-1091.2 1006.57,-1085.2 1012.57,-1079.2 1018.57,-1079.2 1018.57,-1079.2 1135.43,-1079.2 1135.43,-1079.2 1141.43,-1079.2 1147.43,-1085.2 1147.43,-1091.2 1147.43,-1091.2 1147.43,-1115.2 1147.43,-1115.2 1147.43,-1121.2 1141.43,-1127.2 1135.43,-1127.2"/>
<text text-anchor="middle" x="1077" y="-1107.4" font-family="Arial" font-size="14.00" fill="white">FastAPI</text>
<text text-anchor="middle" x="1077" y="-1090.6" font-family="Arial" font-size="14.00" fill="white">Webhook Handler</text>
</g>
<!-- nginx&#45;&gt;fastapi -->
<g id="edge3" class="edge">
<title>nginx-&gt;fastapi</title>
<path fill="none" stroke="darkgreen" stroke-width="2" d="M447.81,-1232.11C539.6,-1231.37 785.04,-1223.13 977,-1160 995.87,-1153.79 1015.25,-1143.93 1031.86,-1134.21"/>
<polygon fill="darkgreen" stroke="darkgreen" stroke-width="2" points="1033.54,-1137.28 1040.29,-1129.11 1029.92,-1131.29 1033.54,-1137.28"/>
<text text-anchor="middle" x="968.84" y="-1171" font-family="Arial" font-size="10.00">Webhook</text>
</g>
<!-- nextapp -->
<g id="node21" class="node">
<title>nextapp</title>
<path fill="#0070f3" stroke="black" stroke-dasharray="5,2" d="M1391.53,-64C1391.53,-64 1296.47,-64 1296.47,-64 1290.47,-64 1284.47,-58 1284.47,-52 1284.47,-52 1284.47,-28 1284.47,-28 1284.47,-22 1290.47,-16 1296.47,-16 1296.47,-16 1391.53,-16 1391.53,-16 1397.53,-16 1403.53,-22 1403.53,-28 1403.53,-28 1403.53,-52 1403.53,-52 1403.53,-58 1397.53,-64 1391.53,-64"/>
<text text-anchor="middle" x="1344" y="-44.2" font-family="Arial" font-size="14.00" fill="white">Next/Nest App</text>
<text text-anchor="middle" x="1344" y="-27.4" font-family="Arial" font-size="14.00" fill="white">(Future)</text>
</g>
<!-- nginx&#45;&gt;nextapp -->
<g id="edge28" class="edge">
<title>nginx-&gt;nextapp</title>
<path fill="none" stroke="black" stroke-dasharray="5,2" d="M399.01,-1214.72C367.73,-1167.88 286,-1033.6 286,-909.2 286,-909.2 286,-909.2 286,-177.8 286,-78.03 1035.52,-49.3 1272.84,-42.7"/>
<polygon fill="black" stroke="black" points="1272.67,-46.2 1282.57,-42.43 1272.48,-39.21 1272.67,-46.2"/>
</g>
<!-- haproxy_app -->
<g id="node23" class="node">
<title>haproxy_app</title>
<path fill="#e5e5e5" stroke="black" stroke-dasharray="5,2" d="M1230.02,-1257C1230.02,-1257 1169.98,-1257 1169.98,-1257 1163.98,-1257 1157.98,-1251 1157.98,-1245 1157.98,-1245 1157.98,-1221 1157.98,-1221 1157.98,-1215 1163.98,-1209 1169.98,-1209 1169.98,-1209 1230.02,-1209 1230.02,-1209 1236.02,-1209 1242.02,-1215 1242.02,-1221 1242.02,-1221 1242.02,-1245 1242.02,-1245 1242.02,-1251 1236.02,-1257 1230.02,-1257"/>
<text text-anchor="middle" x="1200" y="-1237.2" font-family="Arial" font-size="14.00">HAProxy</text>
<text text-anchor="middle" x="1200" y="-1220.4" font-family="Arial" font-size="14.00">(Future)</text>
</g>
<!-- nginx&#45;&gt;haproxy_app -->
<g id="edge14" class="edge">
<title>nginx-&gt;haproxy_app</title>
<path fill="none" stroke="black" stroke-dasharray="5,2" d="M447.98,-1233C680.77,-1233 913.55,-1233 1146.34,-1233"/>
<polygon fill="black" stroke="black" points="1146.26,-1236.5 1156.26,-1233 1146.26,-1229.5 1146.26,-1236.5"/>
</g>
<!-- redis_state -->
<g id="node6" class="node">
<title>redis_state</title>
<path fill="#dc382d" stroke="black" d="M987.26,-1003.2C987.26,-1006.51 962.49,-1009.2 932,-1009.2 901.51,-1009.2 876.74,-1006.51 876.74,-1003.2 876.74,-1003.2 876.74,-949.2 876.74,-949.2 876.74,-945.89 901.51,-943.2 932,-943.2 962.49,-943.2 987.26,-945.89 987.26,-949.2 987.26,-949.2 987.26,-1003.2 987.26,-1003.2"/>
<path fill="none" stroke="black" d="M987.26,-1003.2C987.26,-999.89 962.49,-997.2 932,-997.2 901.51,-997.2 876.74,-999.89 876.74,-1003.2"/>
<text text-anchor="middle" x="932" y="-980.4" font-family="Arial" font-size="14.00" fill="white">Redis</text>
<text text-anchor="middle" x="932" y="-963.6" font-family="Arial" font-size="14.00" fill="white">Shared State</text>
</g>
<!-- fastapi&#45;&gt;redis_state -->
<g id="edge5" class="edge">
<title>fastapi-&gt;redis_state</title>
<path fill="none" stroke="darkgreen" stroke-width="2" d="M1050.07,-1078.98C1030,-1061.68 1002.1,-1037.63 978.47,-1017.26"/>
<polygon fill="darkgreen" stroke="darkgreen" stroke-width="2" points="980.78,-1014.63 970.92,-1010.75 976.21,-1019.93 980.78,-1014.63"/>
<text text-anchor="middle" x="1046.81" y="-1041.2" font-family="Arial" font-size="10.00">Session/Cache</text>
</g>
<!-- redis -->
<g id="node7" class="node">
<title>redis</title>
<path fill="#dc382d" stroke="black" d="M818.46,-1003.2C818.46,-1006.51 800.33,-1009.2 778,-1009.2 755.67,-1009.2 737.54,-1006.51 737.54,-1003.2 737.54,-1003.2 737.54,-949.2 737.54,-949.2 737.54,-945.89 755.67,-943.2 778,-943.2 800.33,-943.2 818.46,-945.89 818.46,-949.2 818.46,-949.2 818.46,-1003.2 818.46,-1003.2"/>
<path fill="none" stroke="black" d="M818.46,-1003.2C818.46,-999.89 800.33,-997.2 778,-997.2 755.67,-997.2 737.54,-999.89 737.54,-1003.2"/>
<text text-anchor="middle" x="778" y="-980.4" font-family="Arial" font-size="14.00" fill="white">Redis</text>
<text text-anchor="middle" x="778" y="-963.6" font-family="Arial" font-size="14.00" fill="white">Streams</text>
</g>
<!-- fastapi&#45;&gt;redis -->
<g id="edge4" class="edge">
<title>fastapi-&gt;redis</title>
<path fill="none" stroke="darkgreen" stroke-width="2" d="M1006.31,-1085.65C996.48,-1083.43 986.5,-1081.23 977,-1079.2 911.77,-1065.28 885.75,-1086.43 829.75,-1050.2 818.19,-1042.72 808.43,-1031.66 800.61,-1020.4"/>
<polygon fill="darkgreen" stroke="darkgreen" stroke-width="2" points="803.69,-1018.73 795.34,-1012.21 797.8,-1022.51 803.69,-1018.73"/>
<text text-anchor="middle" x="860.88" y="-1041.2" font-family="Arial" font-size="10.00">Publish Tasks</text>
</g>
<!-- postgres -->
<g id="node12" class="node">
<title>postgres</title>
<path fill="#336791" stroke="black" d="M1185.53,-716.15C1185.53,-718.3 1161.99,-720.05 1133,-720.05 1104.01,-720.05 1080.47,-718.3 1080.47,-716.15 1080.47,-716.15 1080.47,-681.05 1080.47,-681.05 1080.47,-678.9 1104.01,-677.15 1133,-677.15 1161.99,-677.15 1185.53,-678.9 1185.53,-681.05 1185.53,-681.05 1185.53,-716.15 1185.53,-716.15"/>
<path fill="none" stroke="black" d="M1185.53,-716.15C1185.53,-714 1161.99,-712.25 1133,-712.25 1104.01,-712.25 1080.47,-714 1080.47,-716.15"/>
<text text-anchor="middle" x="1133" y="-694.4" font-family="Arial" font-size="14.00" fill="white">PostgreSQL</text>
</g>
<!-- fastapi&#45;&gt;postgres -->
<g id="edge9" class="edge">
<title>fastapi-&gt;postgres</title>
<path fill="none" stroke="darkgreen" stroke-width="2" d="M1085.74,-1078.93C1088.77,-1070.05 1091.93,-1059.76 1094,-1050.2 1118.84,-935.57 1128.34,-796.23 1131.55,-733.31"/>
<polygon fill="darkgreen" stroke="darkgreen" stroke-width="2" points="1135.04,-733.57 1132.03,-723.41 1128.05,-733.23 1135.04,-733.57"/>
<text text-anchor="middle" x="1141.39" y="-905.2" font-family="Arial" font-size="10.00">Store Data</text>
</g>
<!-- haproxy_db -->
<g id="node24" class="node">
<title>haproxy_db</title>
<path fill="#e5e5e5" stroke="black" stroke-dasharray="5,2" d="M1235.02,-1000.2C1235.02,-1000.2 1174.98,-1000.2 1174.98,-1000.2 1168.98,-1000.2 1162.98,-994.2 1162.98,-988.2 1162.98,-988.2 1162.98,-964.2 1162.98,-964.2 1162.98,-958.2 1168.98,-952.2 1174.98,-952.2 1174.98,-952.2 1235.02,-952.2 1235.02,-952.2 1241.02,-952.2 1247.02,-958.2 1247.02,-964.2 1247.02,-964.2 1247.02,-988.2 1247.02,-988.2 1247.02,-994.2 1241.02,-1000.2 1235.02,-1000.2"/>
<text text-anchor="middle" x="1205" y="-980.4" font-family="Arial" font-size="14.00">HAProxy</text>
<text text-anchor="middle" x="1205" y="-963.6" font-family="Arial" font-size="14.00">(Future)</text>
</g>
<!-- fastapi&#45;&gt;haproxy_db -->
<g id="edge18" class="edge">
<title>fastapi-&gt;haproxy_db</title>
<path fill="none" stroke="black" stroke-dasharray="5,2" d="M1147.78,-1091.98C1172.61,-1084.62 1198.02,-1071.96 1213,-1050.2 1220.66,-1039.07 1220.61,-1024.65 1217.92,-1011.57"/>
<polygon fill="black" stroke="black" points="1221.32,-1010.77 1215.39,-1001.99 1214.56,-1012.56 1221.32,-1010.77"/>
</g>
<!-- fastapi_cluster -->
<g id="node5" class="node">
<title>fastapi_cluster</title>
<path fill="#009688" stroke="black" stroke-dasharray="5,2" d="M936.41,-1127.2C936.41,-1127.2 833.59,-1127.2 833.59,-1127.2 827.59,-1127.2 821.59,-1121.2 821.59,-1115.2 821.59,-1115.2 821.59,-1091.2 821.59,-1091.2 821.59,-1085.2 827.59,-1079.2 833.59,-1079.2 833.59,-1079.2 936.41,-1079.2 936.41,-1079.2 942.41,-1079.2 948.41,-1085.2 948.41,-1091.2 948.41,-1091.2 948.41,-1115.2 948.41,-1115.2 948.41,-1121.2 942.41,-1127.2 936.41,-1127.2"/>
<text text-anchor="middle" x="885" y="-1107.4" font-family="Arial" font-size="14.00" fill="white">FastAPI Cluster</text>
<text text-anchor="middle" x="885" y="-1090.6" font-family="Arial" font-size="14.00" fill="white">(Future)</text>
</g>
<!-- fastapi_cluster&#45;&gt;redis_state -->
<g id="edge16" class="edge">
<title>fastapi_cluster-&gt;redis_state</title>
<path fill="none" stroke="black" stroke-dasharray="5,2" d="M893.73,-1078.98C899.96,-1062.42 908.51,-1039.67 915.95,-1019.88"/>
<polygon fill="black" stroke="black" points="919.17,-1021.26 919.42,-1010.66 912.62,-1018.79 919.17,-1021.26"/>
<text text-anchor="middle" x="937.69" y="-1041.2" font-family="Arial" font-size="10.00">Shared State</text>
</g>
<!-- fastapi_cluster&#45;&gt;redis -->
<g id="edge17" class="edge">
<title>fastapi_cluster-&gt;redis</title>
<path fill="none" stroke="black" stroke-dasharray="5,2" d="M821.28,-1096.93C789.97,-1090.75 754.86,-1077.66 735.33,-1050.2 727.96,-1039.84 730.46,-1028.13 737,-1017.17"/>
<polygon fill="black" stroke="black" points="739.85,-1019.21 742.77,-1009.03 734.13,-1015.17 739.85,-1019.21"/>
<text text-anchor="middle" x="748.67" y="-1041.2" font-family="Arial" font-size="10.00">Tasks</text>
</g>
<!-- worker -->
<g id="node8" class="node">
<title>worker</title>
<path fill="#4b8bbe" stroke="black" d="M878.8,-861.4C878.8,-861.4 789.2,-861.4 789.2,-861.4 783.2,-861.4 777.2,-855.4 777.2,-849.4 777.2,-849.4 777.2,-825.4 777.2,-825.4 777.2,-819.4 783.2,-813.4 789.2,-813.4 789.2,-813.4 878.8,-813.4 878.8,-813.4 884.8,-813.4 890.8,-819.4 890.8,-825.4 890.8,-825.4 890.8,-849.4 890.8,-849.4 890.8,-855.4 884.8,-861.4 878.8,-861.4"/>
<text text-anchor="middle" x="834" y="-841.6" font-family="Arial" font-size="14.00" fill="white">Audio Worker</text>
<text text-anchor="middle" x="834" y="-824.8" font-family="Arial" font-size="14.00" fill="white">(FastStream)</text>
</g>
<!-- redis&#45;&gt;worker -->
<g id="edge6" class="edge">
<title>redis-&gt;worker</title>
<path fill="none" stroke="darkgreen" stroke-width="2" d="M818.78,-951.56C845.66,-935.77 876.23,-917.35 878,-914.2 885.89,-900.14 879.71,-884.73 869.75,-871.49"/>
<polygon fill="darkgreen" stroke="darkgreen" stroke-width="2" points="872.67,-869.52 863.53,-864.17 867.33,-874.06 872.67,-869.52"/>
<text text-anchor="middle" x="917.52" y="-905.2" font-family="Arial" font-size="10.00">Consume Tasks</text>
</g>
<!-- worker_cluster -->
<g id="node9" class="node">
<title>worker_cluster</title>
<path fill="#4b8bbe" stroke="black" stroke-dasharray="5,2" d="M524.07,-861.4C524.07,-861.4 425.93,-861.4 425.93,-861.4 419.93,-861.4 413.93,-855.4 413.93,-849.4 413.93,-849.4 413.93,-825.4 413.93,-825.4 413.93,-819.4 419.93,-813.4 425.93,-813.4 425.93,-813.4 524.07,-813.4 524.07,-813.4 530.07,-813.4 536.07,-819.4 536.07,-825.4 536.07,-825.4 536.07,-849.4 536.07,-849.4 536.07,-855.4 530.07,-861.4 524.07,-861.4"/>
<text text-anchor="middle" x="475" y="-841.6" font-family="Arial" font-size="14.00" fill="white">Worker Cluster</text>
<text text-anchor="middle" x="475" y="-824.8" font-family="Arial" font-size="14.00" fill="white">(Future)</text>
</g>
<!-- redis&#45;&gt;worker_cluster -->
<g id="edge20" class="edge">
<title>redis-&gt;worker_cluster</title>
<path fill="none" stroke="black" stroke-dasharray="5,2" d="M737.38,-962.35C693.79,-947.96 622.98,-922.87 565,-894.2 549.47,-886.52 533.17,-876.93 518.78,-867.88"/>
<polygon fill="black" stroke="black" points="520.74,-864.98 510.43,-862.55 516.98,-870.88 520.74,-864.98"/>
<text text-anchor="middle" x="626.51" y="-905.2" font-family="Arial" font-size="10.00">Scale Out</text>
</g>
<!-- openai_worker -->
<g id="node11" class="node">
<title>openai_worker</title>
<path fill="#74aa9c" stroke="black" stroke-dasharray="5,2" d="M707.64,-861.4C707.64,-861.4 606.36,-861.4 606.36,-861.4 600.36,-861.4 594.36,-855.4 594.36,-849.4 594.36,-849.4 594.36,-825.4 594.36,-825.4 594.36,-819.4 600.36,-813.4 606.36,-813.4 606.36,-813.4 707.64,-813.4 707.64,-813.4 713.64,-813.4 719.64,-819.4 719.64,-825.4 719.64,-825.4 719.64,-849.4 719.64,-849.4 719.64,-855.4 713.64,-861.4 707.64,-861.4"/>
<text text-anchor="middle" x="657" y="-841.6" font-family="Arial" font-size="14.00" fill="white">OpenAI Worker</text>
<text text-anchor="middle" x="657" y="-824.8" font-family="Arial" font-size="14.00" fill="white">(Future)</text>
</g>
<!-- redis&#45;&gt;openai_worker -->
<g id="edge21" class="edge">
<title>redis-&gt;openai_worker</title>
<path fill="none" stroke="black" stroke-dasharray="5,2" d="M768.66,-942.93C763.69,-929.41 756.58,-914.1 747,-902.2 736.56,-889.23 722.83,-877.71 709.25,-868.15"/>
<polygon fill="black" stroke="black" points="711.42,-865.39 701.17,-862.7 707.5,-871.2 711.42,-865.39"/>
<text text-anchor="middle" x="788.58" y="-905.2" font-family="Arial" font-size="10.00">Dedicated GPT</text>
</g>
<!-- openai -->
<g id="node10" class="node">
<title>openai</title>
<path fill="#74aa9c" stroke="black" d="M845.33,-722.6C845.33,-722.6 722.67,-722.6 722.67,-722.6 716.67,-722.6 710.67,-716.6 710.67,-710.6 710.67,-710.6 710.67,-686.6 710.67,-686.6 710.67,-680.6 716.67,-674.6 722.67,-674.6 722.67,-674.6 845.33,-674.6 845.33,-674.6 851.33,-674.6 857.33,-680.6 857.33,-686.6 857.33,-686.6 857.33,-710.6 857.33,-710.6 857.33,-716.6 851.33,-722.6 845.33,-722.6"/>
<text text-anchor="middle" x="784" y="-702.8" font-family="Arial" font-size="14.00" fill="white">OpenAI API</text>
<text text-anchor="middle" x="784" y="-686" font-family="Arial" font-size="14.00" fill="white">(Whisper + GPT-4)</text>
</g>
<!-- worker&#45;&gt;openai -->
<g id="edge7" class="edge">
<title>worker-&gt;openai</title>
<path fill="none" stroke="darkgreen" stroke-width="2" d="M821.24,-813C816.74,-804.19 811.89,-793.99 808.18,-784.4 802.05,-768.56 796.69,-750.53 792.59,-735.17"/>
<polygon fill="darkgreen" stroke="darkgreen" stroke-width="2" points="796.09,-734.75 790.2,-725.94 789.31,-736.5 796.09,-734.75"/>
<text text-anchor="middle" x="847.09" y="-775.4" font-family="Arial" font-size="10.00">Audio Processing</text>
</g>
<!-- minio -->
<g id="node14" class="node">
<title>minio</title>
<path fill="#c72c48" stroke="black" d="M1022.69,-725.6C1022.69,-728.91 998.63,-731.6 969,-731.6 939.37,-731.6 915.31,-728.91 915.31,-725.6 915.31,-725.6 915.31,-671.6 915.31,-671.6 915.31,-668.29 939.37,-665.6 969,-665.6 998.63,-665.6 1022.69,-668.29 1022.69,-671.6 1022.69,-671.6 1022.69,-725.6 1022.69,-725.6"/>
<path fill="none" stroke="black" d="M1022.69,-725.6C1022.69,-722.29 998.63,-719.6 969,-719.6 939.37,-719.6 915.31,-722.29 915.31,-725.6"/>
<text text-anchor="middle" x="969" y="-702.8" font-family="Arial" font-size="14.00" fill="white">MinIO</text>
<text text-anchor="middle" x="969" y="-686" font-family="Arial" font-size="14.00" fill="white">(Audio Files)</text>
</g>
<!-- worker&#45;&gt;minio -->
<g id="edge8" class="edge">
<title>worker-&gt;minio</title>
<path fill="none" stroke="darkgreen" stroke-width="2" d="M863.87,-813C874.36,-804.36 886,-794.27 896,-784.4 909.46,-771.11 923.24,-755.66 935.15,-741.62"/>
<polygon fill="darkgreen" stroke="darkgreen" stroke-width="2" points="937.78,-743.93 941.52,-734.02 932.42,-739.44 937.78,-743.93"/>
<text text-anchor="middle" x="932.77" y="-775.4" font-family="Arial" font-size="10.00">Store Audio</text>
</g>
<!-- debezium -->
<g id="node15" class="node">
<title>debezium</title>
<path fill="#3a0439" stroke="black" d="M1337.91,-583.8C1337.91,-583.8 1270.09,-583.8 1270.09,-583.8 1264.09,-583.8 1258.09,-577.8 1258.09,-571.8 1258.09,-571.8 1258.09,-547.8 1258.09,-547.8 1258.09,-541.8 1264.09,-535.8 1270.09,-535.8 1270.09,-535.8 1337.91,-535.8 1337.91,-535.8 1343.91,-535.8 1349.91,-541.8 1349.91,-547.8 1349.91,-547.8 1349.91,-571.8 1349.91,-571.8 1349.91,-577.8 1343.91,-583.8 1337.91,-583.8"/>
<text text-anchor="middle" x="1304" y="-564" font-family="Arial" font-size="14.00" fill="white">Debezium</text>
<text text-anchor="middle" x="1304" y="-547.2" font-family="Arial" font-size="14.00" fill="white">(CDC)</text>
</g>
<!-- postgres&#45;&gt;debezium -->
<g id="edge10" class="edge">
<title>postgres-&gt;debezium</title>
<path fill="none" stroke="darkgreen" stroke-width="2" d="M1158.97,-676.82C1187.13,-654.3 1232.39,-618.09 1264.86,-592.11"/>
<polygon fill="darkgreen" stroke="darkgreen" stroke-width="2" points="1266.93,-594.94 1272.55,-585.96 1262.56,-589.47 1266.93,-594.94"/>
<text text-anchor="middle" x="1234.46" y="-627.6" font-family="Arial" font-size="10.00">CDC</text>
</g>
<!-- patroni -->
<g id="node13" class="node">
<title>patroni</title>
<path fill="#336791" stroke="black" stroke-dasharray="5,2" d="M1364.7,-725.6C1364.7,-728.91 1337.49,-731.6 1304,-731.6 1270.51,-731.6 1243.3,-728.91 1243.3,-725.6 1243.3,-725.6 1243.3,-671.6 1243.3,-671.6 1243.3,-668.29 1270.51,-665.6 1304,-665.6 1337.49,-665.6 1364.7,-668.29 1364.7,-671.6 1364.7,-671.6 1364.7,-725.6 1364.7,-725.6"/>
<path fill="none" stroke="black" stroke-dasharray="5,2" d="M1364.7,-725.6C1364.7,-722.29 1337.49,-719.6 1304,-719.6 1270.51,-719.6 1243.3,-722.29 1243.3,-725.6"/>
<text text-anchor="middle" x="1304" y="-702.8" font-family="Arial" font-size="14.00" fill="white">Patroni Cluster</text>
<text text-anchor="middle" x="1304" y="-686" font-family="Arial" font-size="14.00" fill="white">(Future)</text>
</g>
<!-- patroni&#45;&gt;debezium -->
<g id="edge22" class="edge">
<title>patroni-&gt;debezium</title>
<path fill="none" stroke="black" stroke-dasharray="5,2" d="M1304,-665.18C1304,-644.11 1304,-616.68 1304,-595.23"/>
<polygon fill="black" stroke="black" points="1307.5,-595.51 1304,-585.51 1300.5,-595.51 1307.5,-595.51"/>
</g>
<!-- redpanda -->
<g id="node16" class="node">
<title>redpanda</title>
<path fill="#ff5722" stroke="black" d="M1374.19,-459.8C1374.19,-463.11 1351.69,-465.8 1324,-465.8 1296.31,-465.8 1273.81,-463.11 1273.81,-459.8 1273.81,-459.8 1273.81,-405.8 1273.81,-405.8 1273.81,-402.49 1296.31,-399.8 1324,-399.8 1351.69,-399.8 1374.19,-402.49 1374.19,-405.8 1374.19,-405.8 1374.19,-459.8 1374.19,-459.8"/>
<path fill="none" stroke="black" d="M1374.19,-459.8C1374.19,-456.49 1351.69,-453.8 1324,-453.8 1296.31,-453.8 1273.81,-456.49 1273.81,-459.8"/>
<text text-anchor="middle" x="1324" y="-437" font-family="Arial" font-size="14.00" fill="white">Redpanda</text>
<text text-anchor="middle" x="1324" y="-420.2" font-family="Arial" font-size="14.00" fill="white">(Kafka API)</text>
</g>
<!-- debezium&#45;&gt;redpanda -->
<g id="edge11" class="edge">
<title>debezium-&gt;redpanda</title>
<path fill="none" stroke="darkgreen" stroke-width="2" d="M1307.71,-535.58C1310.27,-519.63 1313.74,-497.95 1316.82,-478.69"/>
<polygon fill="darkgreen" stroke="darkgreen" stroke-width="2" points="1320.27,-479.26 1318.39,-468.84 1313.36,-478.16 1320.27,-479.26"/>
<text text-anchor="middle" x="1341.24" y="-497.8" font-family="Arial" font-size="10.00">Data Events</text>
</g>
<!-- bytewax -->
<g id="node17" class="node">
<title>bytewax</title>
<path fill="#ffca28" stroke="black" d="M1385.53,-329.8C1385.53,-329.8 1262.47,-329.8 1262.47,-329.8 1256.47,-329.8 1250.47,-323.8 1250.47,-317.8 1250.47,-317.8 1250.47,-293.8 1250.47,-293.8 1250.47,-287.8 1256.47,-281.8 1262.47,-281.8 1262.47,-281.8 1385.53,-281.8 1385.53,-281.8 1391.53,-281.8 1397.53,-287.8 1397.53,-293.8 1397.53,-293.8 1397.53,-317.8 1397.53,-317.8 1397.53,-323.8 1391.53,-329.8 1385.53,-329.8"/>
<text text-anchor="middle" x="1324" y="-310" font-family="Arial" font-size="14.00">Bytewax</text>
<text text-anchor="middle" x="1324" y="-293.2" font-family="Arial" font-size="14.00">Stream Processing</text>
</g>
<!-- redpanda&#45;&gt;bytewax -->
<g id="edge12" class="edge">
<title>redpanda-&gt;bytewax</title>
<path fill="none" stroke="darkgreen" stroke-width="2" d="M1324,-399.61C1324,-382.32 1324,-360.94 1324,-343.06"/>
<polygon fill="darkgreen" stroke="darkgreen" stroke-width="2" points="1327.5,-343.22 1324,-333.22 1320.5,-343.22 1327.5,-343.22"/>
<text text-anchor="middle" x="1340.12" y="-361.8" font-family="Arial" font-size="10.00">Stream</text>
</g>
<!-- clickhouse -->
<g id="node18" class="node">
<title>clickhouse</title>
<path fill="#ffcc01" stroke="black" stroke-dasharray="5,2" d="M1393.8,-205.8C1393.8,-209.11 1371.48,-211.8 1344,-211.8 1316.52,-211.8 1294.2,-209.11 1294.2,-205.8 1294.2,-205.8 1294.2,-151.8 1294.2,-151.8 1294.2,-148.49 1316.52,-145.8 1344,-145.8 1371.48,-145.8 1393.8,-148.49 1393.8,-151.8 1393.8,-151.8 1393.8,-205.8 1393.8,-205.8"/>
<path fill="none" stroke="black" stroke-dasharray="5,2" d="M1393.8,-205.8C1393.8,-202.49 1371.48,-199.8 1344,-199.8 1316.52,-199.8 1294.2,-202.49 1294.2,-205.8"/>
<text text-anchor="middle" x="1344" y="-183" font-family="Arial" font-size="14.00">ClickHouse</text>
<text text-anchor="middle" x="1344" y="-166.2" font-family="Arial" font-size="14.00">(Future)</text>
</g>
<!-- bytewax&#45;&gt;clickhouse -->
<g id="edge23" class="edge">
<title>bytewax-&gt;clickhouse</title>
<path fill="none" stroke="black" stroke-dasharray="5,2" d="M1327.71,-281.58C1330.34,-265.17 1333.94,-242.69 1337.08,-223.03"/>
<polygon fill="black" stroke="black" points="1340.51,-223.77 1338.63,-213.34 1333.6,-222.66 1340.51,-223.77"/>
<text text-anchor="middle" x="1363.45" y="-243.8" font-family="Arial" font-size="10.00">Store Metrics</text>
</g>
<!-- clickhouse&#45;&gt;nextapp -->
<g id="edge25" class="edge">
<title>clickhouse-&gt;nextapp</title>
<path fill="none" stroke="black" stroke-dasharray="5,2" d="M1344,-145.38C1344,-124.31 1344,-96.88 1344,-75.43"/>
<polygon fill="black" stroke="black" points="1347.5,-75.71 1344,-65.71 1340.5,-75.71 1347.5,-75.71"/>
</g>
<!-- grafana -->
<g id="node22" class="node">
<title>grafana</title>
<path fill="#f46800" stroke="black" stroke-dasharray="5,2" d="M1528.69,-58C1528.69,-58 1473.31,-58 1473.31,-58 1467.31,-58 1461.31,-52 1461.31,-46 1461.31,-46 1461.31,-34 1461.31,-34 1461.31,-28 1467.31,-22 1473.31,-22 1473.31,-22 1528.69,-22 1528.69,-22 1534.69,-22 1540.69,-28 1540.69,-34 1540.69,-34 1540.69,-46 1540.69,-46 1540.69,-52 1534.69,-58 1528.69,-58"/>
<text text-anchor="middle" x="1501" y="-35.8" font-family="Arial" font-size="14.00" fill="white">Grafana</text>
</g>
<!-- clickhouse&#45;&gt;grafana -->
<g id="edge24" class="edge">
<title>clickhouse-&gt;grafana</title>
<path fill="none" stroke="black" stroke-dasharray="5,2" d="M1380.02,-146.42C1408.04,-122 1446.39,-88.58 1472.35,-65.97"/>
<polygon fill="black" stroke="black" points="1474.59,-68.65 1479.83,-59.44 1469.99,-63.38 1474.59,-68.65"/>
<text text-anchor="middle" x="1447.22" y="-107.8" font-family="Arial" font-size="10.00">Visualize</text>
</g>
<!-- prometheus -->
<g id="node19" class="node">
<title>prometheus</title>
<path fill="#e6522c" stroke="black" stroke-dasharray="5,2" d="M879.14,-1363.8C879.14,-1363.8 798.86,-1363.8 798.86,-1363.8 792.86,-1363.8 786.86,-1357.8 786.86,-1351.8 786.86,-1351.8 786.86,-1339.8 786.86,-1339.8 786.86,-1333.8 792.86,-1327.8 798.86,-1327.8 798.86,-1327.8 879.14,-1327.8 879.14,-1327.8 885.14,-1327.8 891.14,-1333.8 891.14,-1339.8 891.14,-1339.8 891.14,-1351.8 891.14,-1351.8 891.14,-1357.8 885.14,-1363.8 879.14,-1363.8"/>
<text text-anchor="middle" x="839" y="-1341.6" font-family="Arial" font-size="14.00" fill="white">Prometheus</text>
</g>
<!-- prometheus&#45;&gt;nginx -->
<g id="edge29" class="edge">
<title>prometheus-&gt;nginx</title>
<path fill="none" stroke="black" stroke-dasharray="5,2" d="M786.4,-1344.6C716.59,-1342.64 590.67,-1333.16 492,-1292.8 472.29,-1284.74 452.88,-1270.92 438.01,-1258.7"/>
<polygon fill="black" stroke="black" points="440.42,-1256.15 430.53,-1252.35 435.89,-1261.49 440.42,-1256.15"/>
</g>
<!-- prometheus&#45;&gt;fastapi_cluster -->
<g id="edge30" class="edge">
<title>prometheus-&gt;fastapi_cluster</title>
<path fill="none" stroke="black" stroke-dasharray="5,2" d="M840.1,-1327.55C840.89,-1317.15 842.15,-1303.67 844,-1291.8 852.44,-1237.62 866.96,-1175.62 876.26,-1138.21"/>
<polygon fill="black" stroke="black" points="879.56,-1139.45 878.6,-1128.89 872.77,-1137.74 879.56,-1139.45"/>
</g>
<!-- prometheus&#45;&gt;worker_cluster -->
<g id="edge31" class="edge">
<title>prometheus-&gt;worker_cluster</title>
<path fill="none" stroke="black" stroke-dasharray="5,2" d="M786.75,-1342.18C665.84,-1335.59 374.88,-1316.47 346,-1283.8 237.04,-1160.52 384.27,-950.21 448.08,-870.4"/>
<polygon fill="black" stroke="black" points="450.55,-872.91 454.12,-862.94 445.11,-868.51 450.55,-872.91"/>
</g>
<!-- prometheus&#45;&gt;openai_worker -->
<g id="edge32" class="edge">
<title>prometheus-&gt;openai_worker</title>
<path fill="none" stroke="black" stroke-dasharray="5,2" d="M786.4,-1336.83C730.6,-1327.17 647.92,-1309 629,-1283.8 534.81,-1158.35 607.13,-952.72 641.49,-872.22"/>
<polygon fill="black" stroke="black" points="644.67,-873.66 645.46,-863.1 638.26,-870.87 644.67,-873.66"/>
</g>
<!-- prometheus&#45;&gt;patroni -->
<g id="edge33" class="edge">
<title>prometheus-&gt;patroni</title>
<path fill="none" stroke="black" stroke-dasharray="5,2" d="M855.57,-1327.39C868.71,-1314.89 888.27,-1299.02 909,-1291.8 928,-1285.19 1256.51,-1297.75 1271,-1283.8 1421.02,-1139.37 1351.94,-851.64 1318.46,-742.73"/>
<polygon fill="black" stroke="black" points="1321.83,-741.79 1315.5,-733.3 1315.15,-743.89 1321.83,-741.79"/>
</g>
<!-- prometheus&#45;&gt;redpanda -->
<g id="edge34" class="edge">
<title>prometheus-&gt;redpanda</title>
<path fill="none" stroke="black" stroke-dasharray="5,2" d="M877.42,-1327.44C890.66,-1322.18 905.74,-1316.96 920,-1313.8 1011.78,-1293.44 1265.04,-1337.8 1342,-1283.8 1415.43,-1232.28 1453,-929.43 1453,-909.2 1453,-909.2 1453,-909.2 1453,-558.8 1453,-517.04 1417.7,-484.77 1384.04,-463.48"/>
<polygon fill="black" stroke="black" points="1386.27,-460.74 1375.91,-458.55 1382.65,-466.73 1386.27,-460.74"/>
</g>
<!-- prometheus&#45;&gt;bytewax -->
<g id="edge35" class="edge">
<title>prometheus-&gt;bytewax</title>
<path fill="none" stroke="black" stroke-dasharray="5,2" d="M786.63,-1341.67C628.71,-1331.54 168,-1296.61 168,-1234 168,-1234 168,-1234 168,-629.6 168,-407.1 972.47,-331.19 1239.21,-312.13"/>
<polygon fill="black" stroke="black" points="1239.13,-315.64 1248.86,-311.45 1238.64,-308.66 1239.13,-315.64"/>
</g>
<!-- prometheus&#45;&gt;grafana -->
<g id="edge26" class="edge">
<title>prometheus-&gt;grafana</title>
<path fill="none" stroke="black" stroke-dasharray="5,2" d="M876.97,-1327.4C890.3,-1322.07 905.56,-1316.82 920,-1313.8 1133.57,-1269.15 1199.18,-1340.03 1410,-1283.8 1482.37,-1264.5 1571,-1308.9 1571,-1234 1571,-1234 1571,-1234 1571,-177.8 1571,-135.51 1544.16,-93.13 1523.71,-67"/>
<polygon fill="black" stroke="black" points="1526.5,-64.88 1517.49,-59.31 1521.06,-69.28 1526.5,-64.88"/>
</g>
<!-- loki -->
<g id="node20" class="node">
<title>loki</title>
<path fill="#5c4ee5" stroke="black" stroke-dasharray="5,2" d="M991.24,-1363.8C991.24,-1363.8 960.76,-1363.8 960.76,-1363.8 954.76,-1363.8 948.76,-1357.8 948.76,-1351.8 948.76,-1351.8 948.76,-1339.8 948.76,-1339.8 948.76,-1333.8 954.76,-1327.8 960.76,-1327.8 960.76,-1327.8 991.24,-1327.8 991.24,-1327.8 997.24,-1327.8 1003.24,-1333.8 1003.24,-1339.8 1003.24,-1339.8 1003.24,-1351.8 1003.24,-1351.8 1003.24,-1357.8 997.24,-1363.8 991.24,-1363.8"/>
<text text-anchor="middle" x="976" y="-1341.6" font-family="Arial" font-size="14.00" fill="white">Loki</text>
</g>
<!-- loki&#45;&gt;nginx -->
<g id="edge36" class="edge">
<title>loki-&gt;nginx</title>
<path fill="none" stroke="black" stroke-dasharray="5,2" d="M949.65,-1327.35C940.6,-1322.15 930.18,-1316.99 920,-1313.8 795.95,-1274.86 757.28,-1304.98 629,-1283.8 569.8,-1274.02 502.63,-1257.9 458.69,-1246.66"/>
<polygon fill="black" stroke="black" points="459.78,-1243.33 449.22,-1244.22 458.03,-1250.11 459.78,-1243.33"/>
</g>
<!-- loki&#45;&gt;fastapi_cluster -->
<g id="edge37" class="edge">
<title>loki-&gt;fastapi_cluster</title>
<path fill="none" stroke="black" stroke-dasharray="5,2" d="M1003.45,-1334.45C1022.28,-1325.49 1042.75,-1310.94 1036,-1291.8 1013.42,-1227.73 958.68,-1169.42 921.69,-1135.37"/>
<polygon fill="black" stroke="black" points="924.05,-1132.78 914.29,-1128.67 919.36,-1137.97 924.05,-1132.78"/>
</g>
<!-- loki&#45;&gt;worker_cluster -->
<g id="edge38" class="edge">
<title>loki-&gt;worker_cluster</title>
<path fill="none" stroke="black" stroke-dasharray="5,2" d="M948.51,-1328.96C878.32,-1288.38 696.44,-1182.33 674,-1160 584.65,-1071.09 517.4,-934.68 489.35,-872"/>
<polygon fill="black" stroke="black" points="492.58,-870.65 485.34,-862.92 486.18,-873.48 492.58,-870.65"/>
</g>
<!-- loki&#45;&gt;grafana -->
<g id="edge27" class="edge">
<title>loki-&gt;grafana</title>
<path fill="none" stroke="black" stroke-dasharray="5,2" d="M1003.6,-1344.67C1111.06,-1343.86 1501.13,-1337.79 1615,-1292.8 1654.07,-1277.36 1689,-1276.01 1689,-1234 1689,-1234 1689,-1234 1689,-177.8 1689,-109.68 1607.31,-71.93 1551.63,-54.1"/>
<polygon fill="black" stroke="black" points="1552.9,-50.83 1542.32,-51.24 1550.85,-57.53 1552.9,-50.83"/>
</g>
<!-- haproxy_app&#45;&gt;fastapi_cluster -->
<g id="edge15" class="edge">
<title>haproxy_app-&gt;fastapi_cluster</title>
<path fill="none" stroke="black" stroke-dasharray="5,2" d="M1176.7,-1208.71C1160.57,-1194.18 1137.78,-1176.66 1114,-1168 1057.11,-1147.28 1035.85,-1177.87 978,-1160 959.38,-1154.25 940.61,-1144.02 924.86,-1133.89"/>
<polygon fill="black" stroke="black" points="926.99,-1131.1 916.73,-1128.46 923.11,-1136.92 926.99,-1131.1"/>
</g>
<!-- haproxy_db&#45;&gt;patroni -->
<g id="edge19" class="edge">
<title>haproxy_db-&gt;patroni</title>
<path fill="none" stroke="black" stroke-dasharray="5,2" d="M1213.44,-951.7C1230.09,-905.35 1267.38,-801.55 1288.55,-742.62"/>
<polygon fill="black" stroke="black" points="1291.83,-743.83 1291.92,-733.23 1285.24,-741.46 1291.83,-743.83"/>
</g>
<!-- current_node -->
<g id="node25" class="node">
<title>current_node</title>
<path fill="lightblue" stroke="black" d="M1894.88,-1504.87C1894.88,-1504.87 1767.12,-1504.87 1767.12,-1504.87 1761.12,-1504.87 1755.12,-1498.87 1755.12,-1492.87 1755.12,-1492.87 1755.12,-1480.87 1755.12,-1480.87 1755.12,-1474.87 1761.12,-1468.87 1767.12,-1468.87 1767.12,-1468.87 1894.88,-1468.87 1894.88,-1468.87 1900.88,-1468.87 1906.88,-1474.87 1906.88,-1480.87 1906.88,-1480.87 1906.88,-1492.87 1906.88,-1492.87 1906.88,-1498.87 1900.88,-1504.87 1894.88,-1504.87"/>
<text text-anchor="middle" x="1831" y="-1482.67" font-family="Arial" font-size="14.00">Current Component</text>
</g>
<!-- edge1 -->
<g id="node29" class="node">
<title>edge1</title>
<path fill="lightblue" stroke="none" d="M1837,-1363.8C1837,-1363.8 1825,-1363.8 1825,-1363.8 1819,-1363.8 1813,-1357.8 1813,-1351.8 1813,-1351.8 1813,-1339.8 1813,-1339.8 1813,-1333.8 1819,-1327.8 1825,-1327.8 1825,-1327.8 1837,-1327.8 1837,-1327.8 1843,-1327.8 1849,-1333.8 1849,-1339.8 1849,-1339.8 1849,-1351.8 1849,-1351.8 1849,-1357.8 1843,-1363.8 1837,-1363.8"/>
</g>
<!-- current_node&#45;&gt;edge1 -->
<g id="edge39" class="edge">
<title>current_node-&gt;edge1</title>
<path fill="none" stroke="darkgreen" stroke-width="2" d="M1831,-1468.53C1831,-1445.49 1831,-1404.41 1831,-1376.41"/>
<polygon fill="darkgreen" stroke="darkgreen" stroke-width="2" points="1834.5,-1376.51 1831,-1366.51 1827.5,-1376.51 1834.5,-1376.51"/>
</g>
<!-- future_node -->
<g id="node26" class="node">
<title>future_node</title>
<path fill="lightblue" stroke="black" stroke-dasharray="5,2" d="M2098.77,-1504.87C2098.77,-1504.87 1977.23,-1504.87 1977.23,-1504.87 1971.23,-1504.87 1965.23,-1498.87 1965.23,-1492.87 1965.23,-1492.87 1965.23,-1480.87 1965.23,-1480.87 1965.23,-1474.87 1971.23,-1468.87 1977.23,-1468.87 1977.23,-1468.87 2098.77,-1468.87 2098.77,-1468.87 2104.77,-1468.87 2110.77,-1474.87 2110.77,-1480.87 2110.77,-1480.87 2110.77,-1492.87 2110.77,-1492.87 2110.77,-1498.87 2104.77,-1504.87 2098.77,-1504.87"/>
<text text-anchor="middle" x="2038" y="-1482.67" font-family="Arial" font-size="14.00">Future Component</text>
</g>
<!-- edge2 -->
<g id="node30" class="node">
<title>edge2</title>
<path fill="lightblue" stroke="none" d="M2044,-1363.8C2044,-1363.8 2032,-1363.8 2032,-1363.8 2026,-1363.8 2020,-1357.8 2020,-1351.8 2020,-1351.8 2020,-1339.8 2020,-1339.8 2020,-1333.8 2026,-1327.8 2032,-1327.8 2032,-1327.8 2044,-1327.8 2044,-1327.8 2050,-1327.8 2056,-1333.8 2056,-1339.8 2056,-1339.8 2056,-1351.8 2056,-1351.8 2056,-1357.8 2050,-1363.8 2044,-1363.8"/>
</g>
<!-- future_node&#45;&gt;edge2 -->
<g id="edge40" class="edge">
<title>future_node-&gt;edge2</title>
<path fill="none" stroke="black" stroke-dasharray="5,2" d="M2038,-1468.53C2038,-1445.07 2038,-1402.91 2038,-1374.88"/>
<polygon fill="black" stroke="black" points="2041.5,-1374.99 2038,-1364.99 2034.5,-1374.99 2041.5,-1374.99"/>
</g>
<!-- current_flow -->
<g id="node27" class="node">
<title>current_flow</title>
<path fill="lightblue" stroke="none" d="M1873.47,-1251C1873.47,-1251 1788.53,-1251 1788.53,-1251 1782.53,-1251 1776.53,-1245 1776.53,-1239 1776.53,-1239 1776.53,-1227 1776.53,-1227 1776.53,-1221 1782.53,-1215 1788.53,-1215 1788.53,-1215 1873.47,-1215 1873.47,-1215 1879.47,-1215 1885.47,-1221 1885.47,-1227 1885.47,-1227 1885.47,-1239 1885.47,-1239 1885.47,-1245 1879.47,-1251 1873.47,-1251"/>
<text text-anchor="middle" x="1831" y="-1228.8" font-family="Arial" font-size="14.00">Current Flow</text>
</g>
<!-- future_flow -->
<g id="node28" class="node">
<title>future_flow</title>
<path fill="lightblue" stroke="none" d="M2077.36,-1251C2077.36,-1251 1998.64,-1251 1998.64,-1251 1992.64,-1251 1986.64,-1245 1986.64,-1239 1986.64,-1239 1986.64,-1227 1986.64,-1227 1986.64,-1221 1992.64,-1215 1998.64,-1215 1998.64,-1215 2077.36,-1215 2077.36,-1215 2083.36,-1215 2089.36,-1221 2089.36,-1227 2089.36,-1227 2089.36,-1239 2089.36,-1239 2089.36,-1245 2083.36,-1251 2077.36,-1251"/>
<text text-anchor="middle" x="2038" y="-1228.8" font-family="Arial" font-size="14.00">Future Flow</text>
</g>
<!-- edge1&#45;&gt;current_flow -->
<!-- edge2&#45;&gt;future_flow -->
</g>
</svg>
