<svg xmlns="http://www.w3.org/2000/svg" xmlns:xlink="http://www.w3.org/1999/xlink" width="2669pt" height="1084pt" viewBox="0.00 0.00 2669.00 1084.13">
<g id="graph0" class="graph" transform="scale(1 1) rotate(0) translate(4 1080.13)">
<title>G</title>
<polygon fill="white" stroke="none" points="-4,4 -4,-1080.13 2665,-1080.13 2665,4 -4,4"/>
<g id="clust1" class="cluster">
<title>cluster_user</title>
<polygon fill="lightgrey" stroke="lightgrey" points="8,-765.4 8,-1068.13 155,-1068.13 155,-765.4 8,-765.4"/>
<text text-anchor="middle" x="81.5" y="-1051.53" font-family="Arial Bold" font-size="14.00">User Interaction</text>
</g>
<g id="clust2" class="cluster">
<title>cluster_frontend</title>
<polygon fill="lightgrey" stroke="lightgrey" points="23,-622.8 23,-724.4 125,-724.4 125,-622.8 23,-622.8"/>
<text text-anchor="middle" x="74" y="-707.8" font-family="Arial Bold" font-size="14.00">Frontend Layer</text>
</g>
<g id="clust3" class="cluster">
<title>cluster_application</title>
<polygon fill="lightgrey" stroke="lightgrey" points="213,-280.6 213,-566.8 690,-566.8 690,-280.6 213,-280.6"/>
<text text-anchor="middle" x="451.5" y="-550.2" font-family="Arial Bold" font-size="14.00">Application Layer</text>
</g>
<g id="clust4" class="cluster">
<title>cluster_workers</title>
<polygon fill="lightgrey" stroke="lightgrey" points="1095,-8 1095,-239.6 1588,-239.6 1588,-8 1095,-8"/>
<text text-anchor="middle" x="1341.5" y="-223" font-family="Arial Bold" font-size="14.00">Processing Layer</text>
</g>
<g id="clust5" class="cluster">
<title>cluster_storage</title>
<polygon fill="lightgrey" stroke="lightgrey" points="698,-280.6 698,-412.2 1164,-412.2 1164,-280.6 698,-280.6"/>
<text text-anchor="middle" x="931" y="-395.6" font-family="Arial Bold" font-size="14.00">Storage Layer</text>
</g>
<g id="clust6" class="cluster">
<title>cluster_analytics</title>
<polygon fill="lightgrey" stroke="lightgrey" points="1914,-280.6 1914,-879 2078,-879 2078,-280.6 1914,-280.6"/>
<text text-anchor="middle" x="1996" y="-862.4" font-family="Arial Bold" font-size="14.00">Analytics Layer</text>
</g>
<g id="clust7" class="cluster">
<title>cluster_monitoring</title>
<polygon fill="lightgrey" stroke="lightgrey" points="832,-622.8 832,-873 1064,-873 1064,-622.8 832,-622.8"/>
<text text-anchor="middle" x="948" y="-856.4" font-family="Arial Bold" font-size="14.00">Monitoring Layer</text>
</g>
<g id="clust8" class="cluster">
<title>cluster_presentation</title>
<polygon fill="lightgrey" stroke="lightgrey" points="2238,-453.2 2238,-566.8 2582,-566.8 2582,-453.2 2238,-453.2"/>
<text text-anchor="middle" x="2410" y="-550.2" font-family="Arial Bold" font-size="14.00">Presentation Layer</text>
</g>
<g id="clust9" class="cluster">
<title>cluster_legend</title>
<polygon fill="lightgrey" stroke="lightgrey" points="2281,-622.8 2281,-1040.07 2653,-1040.07 2653,-622.8 2281,-622.8"/>
<text text-anchor="middle" x="2467" y="-1025.27" font-family="Arial Bold" font-size="12.00">Legend</text>
</g>
<!-- user -->
<g id="node1" class="node">
<title>user</title>
<ellipse fill="white" stroke="black" cx="74" cy="-969.27" rx="41.27" ry="41.27"/>
<text text-anchor="middle" x="74" y="-965.07" font-family="Arial" font-size="14.00">User</text>
</g>
<!-- telegram -->
<g id="node2" class="node">
<title>telegram</title>
<path fill="#0088cc" stroke="black" d="M105.97,-821.4C105.97,-821.4 42.03,-821.4 42.03,-821.4 36.03,-821.4 30.03,-815.4 30.03,-809.4 30.03,-809.4 30.03,-785.4 30.03,-785.4 30.03,-779.4 36.03,-773.4 42.03,-773.4 42.03,-773.4 105.97,-773.4 105.97,-773.4 111.97,-773.4 117.97,-779.4 117.97,-785.4 117.97,-785.4 117.97,-809.4 117.97,-809.4 117.97,-815.4 111.97,-821.4 105.97,-821.4"/>
<text text-anchor="middle" x="74" y="-801.6" font-family="Arial" font-size="14.00" fill="white">Telegram</text>
<text text-anchor="middle" x="74" y="-784.8" font-family="Arial" font-size="14.00" fill="white">Bot</text>
</g>
<!-- user&#45;&gt;telegram -->
<g id="edge1" class="edge">
<title>user-&gt;telegram</title>
<path fill="none" stroke="black" d="M74,-927.58C74,-898.68 74,-860.3 74,-832.9"/>
<polygon fill="black" stroke="black" points="77.5,-833.04 74,-823.04 70.5,-833.04 77.5,-833.04"/>
<text text-anchor="middle" x="110.68" y="-890" font-family="Arial" font-size="10.00">Voice Messages</text>
</g>
<!-- nginx -->
<g id="node3" class="node">
<title>nginx</title>
<path fill="#009639" stroke="black" d="M98.57,-666.8C98.57,-666.8 49.43,-666.8 49.43,-666.8 43.43,-666.8 37.43,-660.8 37.43,-654.8 37.43,-654.8 37.43,-642.8 37.43,-642.8 37.43,-636.8 43.43,-630.8 49.43,-630.8 49.43,-630.8 98.57,-630.8 98.57,-630.8 104.57,-630.8 110.57,-636.8 110.57,-642.8 110.57,-642.8 110.57,-654.8 110.57,-654.8 110.57,-660.8 104.57,-666.8 98.57,-666.8"/>
<text text-anchor="middle" x="74" y="-644.6" font-family="Arial" font-size="14.00" fill="white">NGINX</text>
</g>
<!-- telegram&#45;&gt;nginx -->
<g id="edge2" class="edge">
<title>telegram-&gt;nginx</title>
<path fill="none" stroke="darkgreen" stroke-width="2" d="M57.6,-773.17C50.99,-747.78 50.5,-707.02 56.14,-679.37"/>
<polygon fill="darkgreen" stroke="darkgreen" stroke-width="2" points="59.47,-680.45 58.63,-669.89 52.7,-678.68 59.47,-680.45"/>
</g>
<!-- telegram&#45;&gt;nginx -->
<g id="edge25" class="edge">
<title>telegram-&gt;nginx</title>
<path fill="none" stroke="black" stroke-dasharray="5,2" d="M90.4,-773.17C97.13,-747.31 97.51,-705.54 91.55,-677.87"/>
<polygon fill="black" stroke="black" points="94.98,-677.17 88.99,-668.43 88.22,-678.99 94.98,-677.17"/>
</g>
<!-- fastapi -->
<g id="node4" class="node">
<title>fastapi</title>
<path fill="#009688" stroke="black" d="M670.43,-509.2C670.43,-509.2 553.57,-509.2 553.57,-509.2 547.57,-509.2 541.57,-503.2 541.57,-497.2 541.57,-497.2 541.57,-473.2 541.57,-473.2 541.57,-467.2 547.57,-461.2 553.57,-461.2 553.57,-461.2 670.43,-461.2 670.43,-461.2 676.43,-461.2 682.43,-467.2 682.43,-473.2 682.43,-473.2 682.43,-497.2 682.43,-497.2 682.43,-503.2 676.43,-509.2 670.43,-509.2"/>
<text text-anchor="middle" x="612" y="-489.4" font-family="Arial" font-size="14.00" fill="white">FastAPI</text>
<text text-anchor="middle" x="612" y="-472.6" font-family="Arial" font-size="14.00" fill="white">Webhook Handler</text>
</g>
<!-- nginx&#45;&gt;fastapi -->
<g id="edge3" class="edge">
<title>nginx-&gt;fastapi</title>
<path fill="none" stroke="darkgreen" stroke-width="2" d="M110.94,-637.28C135.26,-630.57 167.87,-622.01 197,-615.8 326.13,-588.26 367.13,-615.13 490,-566.8 520.39,-554.85 551.04,-534.56 574.02,-517.33"/>
<polygon fill="darkgreen" stroke="darkgreen" stroke-width="2" points="576.12,-520.12 581.92,-511.26 571.86,-514.57 576.12,-520.12"/>
<text text-anchor="middle" x="483.12" y="-577.8" font-family="Arial" font-size="10.00">Webhook</text>
</g>
<!-- nextapp -->
<g id="node22" class="node">
<title>nextapp</title>
<path fill="#0070f3" stroke="black" d="M2384.48,-503.2C2384.48,-503.2 2257.52,-503.2 2257.52,-503.2 2251.52,-503.2 2245.52,-497.2 2245.52,-491.2 2245.52,-491.2 2245.52,-479.2 2245.52,-479.2 2245.52,-473.2 2251.52,-467.2 2257.52,-467.2 2257.52,-467.2 2384.48,-467.2 2384.48,-467.2 2390.48,-467.2 2396.48,-473.2 2396.48,-479.2 2396.48,-479.2 2396.48,-491.2 2396.48,-491.2 2396.48,-497.2 2390.48,-503.2 2384.48,-503.2"/>
<text text-anchor="middle" x="2321" y="-481" font-family="Arial" font-size="14.00" fill="white">Next.js Dashboards</text>
</g>
<!-- nginx&#45;&gt;nextapp -->
<g id="edge21" class="edge">
<title>nginx-&gt;nextapp</title>
<path fill="none" stroke="darkgreen" stroke-width="2" d="M110.95,-635.72C135.13,-628.42 167.59,-619.79 197,-615.8 405.67,-587.48 1886.25,-631.65 2092,-586.8 2161.72,-571.6 2236.28,-534.47 2280.75,-509.82"/>
<polygon fill="darkgreen" stroke="darkgreen" stroke-width="2" points="2282.28,-512.97 2289.28,-505.02 2278.85,-506.87 2282.28,-512.97"/>
</g>
<!-- haproxy_app -->
<g id="node24" class="node">
<title>haproxy_app</title>
<path fill="#e5e5e5" stroke="black" stroke-dasharray="5,2" d="M298.02,-672.8C298.02,-672.8 237.98,-672.8 237.98,-672.8 231.98,-672.8 225.98,-666.8 225.98,-660.8 225.98,-660.8 225.98,-636.8 225.98,-636.8 225.98,-630.8 231.98,-624.8 237.98,-624.8 237.98,-624.8 298.02,-624.8 298.02,-624.8 304.02,-624.8 310.02,-630.8 310.02,-636.8 310.02,-636.8 310.02,-660.8 310.02,-660.8 310.02,-666.8 304.02,-672.8 298.02,-672.8"/>
<text text-anchor="middle" x="268" y="-653" font-family="Arial" font-size="14.00">HAProxy</text>
<text text-anchor="middle" x="268" y="-636.2" font-family="Arial" font-size="14.00">(Future)</text>
</g>
<!-- nginx&#45;&gt;haproxy_app -->
<g id="edge26" class="edge">
<title>nginx-&gt;haproxy_app</title>
<path fill="none" stroke="black" stroke-dasharray="5,2" d="M110.75,-648.8C145.3,-648.8 179.85,-648.8 214.4,-648.8"/>
<polygon fill="black" stroke="black" points="214.1,-652.3 224.1,-648.8 214.1,-645.3 214.1,-652.3"/>
</g>
<!-- redis_state -->
<g id="node6" class="node">
<title>redis_state</title>
<path fill="#dc382d" stroke="black" d="M394.26,-348.6C394.26,-351.91 369.49,-354.6 339,-354.6 308.51,-354.6 283.74,-351.91 283.74,-348.6 283.74,-348.6 283.74,-294.6 283.74,-294.6 283.74,-291.29 308.51,-288.6 339,-288.6 369.49,-288.6 394.26,-291.29 394.26,-294.6 394.26,-294.6 394.26,-348.6 394.26,-348.6"/>
<path fill="none" stroke="black" d="M394.26,-348.6C394.26,-345.29 369.49,-342.6 339,-342.6 308.51,-342.6 283.74,-345.29 283.74,-348.6"/>
<text text-anchor="middle" x="339" y="-325.8" font-family="Arial" font-size="14.00" fill="white">Redis</text>
<text text-anchor="middle" x="339" y="-309" font-family="Arial" font-size="14.00" fill="white">Shared State</text>
</g>
<!-- fastapi&#45;&gt;redis_state -->
<g id="edge5" class="edge">
<title>fastapi-&gt;redis_state</title>
<path fill="none" stroke="darkgreen" stroke-width="2" d="M541.18,-465.59C524.43,-461.36 506.62,-457 490,-453.2 444.34,-442.76 423.15,-461.66 386.74,-432.2 366.82,-416.08 355.01,-390.02 348.12,-367.35"/>
<polygon fill="darkgreen" stroke="darkgreen" stroke-width="2" points="351.51,-366.49 345.5,-357.77 344.76,-368.34 351.51,-366.49"/>
<text text-anchor="middle" x="420.37" y="-423.2" font-family="Arial" font-size="10.00">Session/Cache</text>
</g>
<!-- redis -->
<g id="node7" class="node">
<title>redis</title>
<path fill="#dc382d" stroke="black" d="M648.46,-348.6C648.46,-351.91 630.33,-354.6 608,-354.6 585.67,-354.6 567.54,-351.91 567.54,-348.6 567.54,-348.6 567.54,-294.6 567.54,-294.6 567.54,-291.29 585.67,-288.6 608,-288.6 630.33,-288.6 648.46,-291.29 648.46,-294.6 648.46,-294.6 648.46,-348.6 648.46,-348.6"/>
<path fill="none" stroke="black" d="M648.46,-348.6C648.46,-345.29 630.33,-342.6 608,-342.6 585.67,-342.6 567.54,-345.29 567.54,-348.6"/>
<text text-anchor="middle" x="608" y="-325.8" font-family="Arial" font-size="14.00" fill="white">Redis</text>
<text text-anchor="middle" x="608" y="-309" font-family="Arial" font-size="14.00" fill="white">Streams</text>
</g>
<!-- fastapi&#45;&gt;redis -->
<g id="edge4" class="edge">
<title>fastapi-&gt;redis</title>
<path fill="none" stroke="darkgreen" stroke-width="2" d="M611.42,-460.7C610.82,-436.45 609.87,-398.02 609.12,-367.85"/>
<polygon fill="darkgreen" stroke="darkgreen" stroke-width="2" points="612.63,-368 608.88,-358.09 605.63,-368.18 612.63,-368"/>
<text text-anchor="middle" x="641.83" y="-423.2" font-family="Arial" font-size="10.00">Publish Tasks</text>
</g>
<!-- postgres -->
<g id="node12" class="node">
<title>postgres</title>
<path fill="#336791" stroke="black" d="M811.53,-339.15C811.53,-341.3 787.99,-343.05 759,-343.05 730.01,-343.05 706.47,-341.3 706.47,-339.15 706.47,-339.15 706.47,-304.05 706.47,-304.05 706.47,-301.9 730.01,-300.15 759,-300.15 787.99,-300.15 811.53,-301.9 811.53,-304.05 811.53,-304.05 811.53,-339.15 811.53,-339.15"/>
<path fill="none" stroke="black" d="M811.53,-339.15C811.53,-337 787.99,-335.25 759,-335.25 730.01,-335.25 706.47,-337 706.47,-339.15"/>
<text text-anchor="middle" x="759" y="-317.4" font-family="Arial" font-size="14.00" fill="white">PostgreSQL</text>
</g>
<!-- fastapi&#45;&gt;postgres -->
<g id="edge9" class="edge">
<title>fastapi-&gt;postgres</title>
<path fill="none" stroke="darkgreen" stroke-width="2" d="M650.82,-460.76C663.04,-452.5 676.16,-442.64 687,-432.2 710.46,-409.6 730.18,-378.03 743.02,-354.58"/>
<polygon fill="darkgreen" stroke="darkgreen" stroke-width="2" points="746.07,-356.29 747.67,-345.82 739.89,-353.01 746.07,-356.29"/>
<text text-anchor="middle" x="720.74" y="-423.2" font-family="Arial" font-size="10.00">Store Data</text>
</g>
<!-- haproxy_db -->
<g id="node25" class="node">
<title>haproxy_db</title>
<path fill="#e5e5e5" stroke="black" stroke-dasharray="5,2" d="M2259.02,-345.6C2259.02,-345.6 2198.98,-345.6 2198.98,-345.6 2192.98,-345.6 2186.98,-339.6 2186.98,-333.6 2186.98,-333.6 2186.98,-309.6 2186.98,-309.6 2186.98,-303.6 2192.98,-297.6 2198.98,-297.6 2198.98,-297.6 2259.02,-297.6 2259.02,-297.6 2265.02,-297.6 2271.02,-303.6 2271.02,-309.6 2271.02,-309.6 2271.02,-333.6 2271.02,-333.6 2271.02,-339.6 2265.02,-345.6 2259.02,-345.6"/>
<text text-anchor="middle" x="2229" y="-325.8" font-family="Arial" font-size="14.00">HAProxy</text>
<text text-anchor="middle" x="2229" y="-309" font-family="Arial" font-size="14.00">(Future)</text>
</g>
<!-- fastapi&#45;&gt;haproxy_db -->
<g id="edge30" class="edge">
<title>fastapi-&gt;haproxy_db</title>
<path fill="none" stroke="black" stroke-dasharray="5,2" d="M682.72,-482.95C968.43,-477.75 2025.33,-456.91 2092,-432.2 2135.55,-416.06 2175.83,-380.26 2201.28,-353.94"/>
<polygon fill="black" stroke="black" points="2203.64,-356.54 2207.97,-346.87 2198.56,-351.73 2203.64,-356.54"/>
</g>
<!-- fastapi_cluster -->
<g id="node5" class="node">
<title>fastapi_cluster</title>
<path fill="#009688" stroke="black" stroke-dasharray="5,2" d="M449.41,-509.2C449.41,-509.2 346.59,-509.2 346.59,-509.2 340.59,-509.2 334.59,-503.2 334.59,-497.2 334.59,-497.2 334.59,-473.2 334.59,-473.2 334.59,-467.2 340.59,-461.2 346.59,-461.2 346.59,-461.2 449.41,-461.2 449.41,-461.2 455.41,-461.2 461.41,-467.2 461.41,-473.2 461.41,-473.2 461.41,-497.2 461.41,-497.2 461.41,-503.2 455.41,-509.2 449.41,-509.2"/>
<text text-anchor="middle" x="398" y="-489.4" font-family="Arial" font-size="14.00" fill="white">FastAPI Cluster</text>
<text text-anchor="middle" x="398" y="-472.6" font-family="Arial" font-size="14.00" fill="white">(Future)</text>
</g>
<!-- fastapi_cluster&#45;&gt;redis_state -->
<g id="edge28" class="edge">
<title>fastapi_cluster-&gt;redis_state</title>
<path fill="none" stroke="black" stroke-dasharray="5,2" d="M334.11,-473.95C309.72,-466.59 284.27,-453.94 269.63,-432.2 254.06,-409.1 269.73,-382.73 290.09,-361.65"/>
<polygon fill="black" stroke="black" points="292.29,-364.4 296.99,-354.91 287.39,-359.4 292.29,-364.4"/>
<text text-anchor="middle" x="298.81" y="-423.2" font-family="Arial" font-size="10.00">Shared State</text>
</g>
<!-- fastapi_cluster&#45;&gt;redis -->
<g id="edge29" class="edge">
<title>fastapi_cluster-&gt;redis</title>
<path fill="none" stroke="black" stroke-dasharray="5,2" d="M429.84,-460.81C441.85,-451.92 455.6,-441.66 468,-432.2 499.31,-408.32 534.19,-381.02 561.29,-359.64"/>
<polygon fill="black" stroke="black" points="563.3,-362.51 568.98,-353.57 558.97,-357.02 563.3,-362.51"/>
<text text-anchor="middle" x="496.64" y="-423.2" font-family="Arial" font-size="10.00">Tasks</text>
</g>
<!-- worker -->
<g id="node8" class="node">
<title>worker</title>
<path fill="#4b8bbe" stroke="black" d="M1387.8,-182C1387.8,-182 1298.2,-182 1298.2,-182 1292.2,-182 1286.2,-176 1286.2,-170 1286.2,-170 1286.2,-146 1286.2,-146 1286.2,-140 1292.2,-134 1298.2,-134 1298.2,-134 1387.8,-134 1387.8,-134 1393.8,-134 1399.8,-140 1399.8,-146 1399.8,-146 1399.8,-170 1399.8,-170 1399.8,-176 1393.8,-182 1387.8,-182"/>
<text text-anchor="middle" x="1343" y="-162.2" font-family="Arial" font-size="14.00" fill="white">Audio Worker</text>
<text text-anchor="middle" x="1343" y="-145.4" font-family="Arial" font-size="14.00" fill="white">(FastStream)</text>
</g>
<!-- redis&#45;&gt;worker -->
<g id="edge6" class="edge">
<title>redis-&gt;worker</title>
<path fill="none" stroke="darkgreen" stroke-width="2" d="M648.92,-295.18C659.94,-289.43 672.11,-284.02 684,-280.6 776.47,-253.97 1019.74,-253.97 1115.75,-247.6 1147.34,-245.5 1228.93,-252.15 1258,-239.6 1281.57,-229.43 1302.56,-209.69 1317.79,-192.29"/>
<polygon fill="darkgreen" stroke="darkgreen" stroke-width="2" points="1320.38,-194.65 1324.12,-184.73 1315.01,-190.15 1320.38,-194.65"/>
<text text-anchor="middle" x="1151.88" y="-250.6" font-family="Arial" font-size="10.00">Consume Tasks</text>
</g>
<!-- worker_cluster -->
<g id="node9" class="node">
<title>worker_cluster</title>
<path fill="#4b8bbe" stroke="black" stroke-dasharray="5,2" d="M1568.07,-182C1568.07,-182 1469.93,-182 1469.93,-182 1463.93,-182 1457.93,-176 1457.93,-170 1457.93,-170 1457.93,-146 1457.93,-146 1457.93,-140 1463.93,-134 1469.93,-134 1469.93,-134 1568.07,-134 1568.07,-134 1574.07,-134 1580.07,-140 1580.07,-146 1580.07,-146 1580.07,-170 1580.07,-170 1580.07,-176 1574.07,-182 1568.07,-182"/>
<text text-anchor="middle" x="1519" y="-162.2" font-family="Arial" font-size="14.00" fill="white">Worker Cluster</text>
<text text-anchor="middle" x="1519" y="-145.4" font-family="Arial" font-size="14.00" fill="white">(Future)</text>
</g>
<!-- redis&#45;&gt;worker_cluster -->
<g id="edge32" class="edge">
<title>redis-&gt;worker_cluster</title>
<path fill="none" stroke="black" stroke-dasharray="5,2" d="M648.83,-294.84C659.84,-289.1 672.04,-283.78 684,-280.6 814.88,-245.86 1158.14,-271.8 1293,-259.6 1353.85,-254.09 1373.68,-265.52 1429,-239.6 1453.48,-228.13 1476.13,-207.77 1492.58,-190.39"/>
<polygon fill="black" stroke="black" points="1494.94,-193 1499.12,-183.26 1489.78,-188.27 1494.94,-193"/>
<text text-anchor="middle" x="1429.6" y="-250.6" font-family="Arial" font-size="10.00">Scale Out</text>
</g>
<!-- openai_worker -->
<g id="node11" class="node">
<title>openai_worker</title>
<path fill="#74aa9c" stroke="black" stroke-dasharray="5,2" d="M1216.64,-182C1216.64,-182 1115.36,-182 1115.36,-182 1109.36,-182 1103.36,-176 1103.36,-170 1103.36,-170 1103.36,-146 1103.36,-146 1103.36,-140 1109.36,-134 1115.36,-134 1115.36,-134 1216.64,-134 1216.64,-134 1222.64,-134 1228.64,-140 1228.64,-146 1228.64,-146 1228.64,-170 1228.64,-170 1228.64,-176 1222.64,-182 1216.64,-182"/>
<text text-anchor="middle" x="1166" y="-162.2" font-family="Arial" font-size="14.00" fill="white">OpenAI Worker</text>
<text text-anchor="middle" x="1166" y="-145.4" font-family="Arial" font-size="14.00" fill="white">(Future)</text>
</g>
<!-- redis&#45;&gt;openai_worker -->
<g id="edge33" class="edge">
<title>redis-&gt;openai_worker</title>
<path fill="none" stroke="black" stroke-dasharray="5,2" d="M648.89,-297.72C660.12,-291.81 672.39,-285.69 684,-280.6 821.6,-220.24 994.98,-185.74 1091.83,-169.84"/>
<polygon fill="black" stroke="black" points="1092.16,-173.33 1101.47,-168.28 1091.04,-166.42 1092.16,-173.33"/>
<text text-anchor="middle" x="793.74" y="-250.6" font-family="Arial" font-size="10.00">Dedicated GPT</text>
</g>
<!-- openai -->
<g id="node10" class="node">
<title>openai</title>
<path fill="#74aa9c" stroke="black" d="M1404.33,-64C1404.33,-64 1281.67,-64 1281.67,-64 1275.67,-64 1269.67,-58 1269.67,-52 1269.67,-52 1269.67,-28 1269.67,-28 1269.67,-22 1275.67,-16 1281.67,-16 1281.67,-16 1404.33,-16 1404.33,-16 1410.33,-16 1416.33,-22 1416.33,-28 1416.33,-28 1416.33,-52 1416.33,-52 1416.33,-58 1410.33,-64 1404.33,-64"/>
<text text-anchor="middle" x="1343" y="-44.2" font-family="Arial" font-size="14.00" fill="white">OpenAI API</text>
<text text-anchor="middle" x="1343" y="-27.4" font-family="Arial" font-size="14.00" fill="white">(Whisper + GPT-4)</text>
</g>
<!-- worker&#45;&gt;openai -->
<g id="edge7" class="edge">
<title>worker-&gt;openai</title>
<path fill="none" stroke="darkgreen" stroke-width="2" d="M1343,-133.53C1343,-117.41 1343,-95.7 1343,-77.36"/>
<polygon fill="darkgreen" stroke="darkgreen" stroke-width="2" points="1346.5,-77.47 1343,-67.47 1339.5,-77.47 1346.5,-77.47"/>
<text text-anchor="middle" x="1381.91" y="-96" font-family="Arial" font-size="10.00">Audio Processing</text>
</g>
<!-- minio -->
<g id="node14" class="node">
<title>minio</title>
<path fill="#c72c48" stroke="black" d="M1155.69,-348.6C1155.69,-351.91 1131.63,-354.6 1102,-354.6 1072.37,-354.6 1048.31,-351.91 1048.31,-348.6 1048.31,-348.6 1048.31,-294.6 1048.31,-294.6 1048.31,-291.29 1072.37,-288.6 1102,-288.6 1131.63,-288.6 1155.69,-291.29 1155.69,-294.6 1155.69,-294.6 1155.69,-348.6 1155.69,-348.6"/>
<path fill="none" stroke="black" d="M1155.69,-348.6C1155.69,-345.29 1131.63,-342.6 1102,-342.6 1072.37,-342.6 1048.31,-345.29 1048.31,-348.6"/>
<text text-anchor="middle" x="1102" y="-325.8" font-family="Arial" font-size="14.00" fill="white">MinIO</text>
<text text-anchor="middle" x="1102" y="-309" font-family="Arial" font-size="14.00" fill="white">(Audio Files)</text>
</g>
<!-- worker&#45;&gt;minio -->
<g id="edge8" class="edge">
<title>worker-&gt;minio</title>
<path fill="none" stroke="darkgreen" stroke-width="2" d="M1324.45,-182.16C1308.64,-200.38 1284.35,-225.05 1258,-239.6 1245.45,-246.53 1240.01,-242.15 1226.74,-247.6 1203.33,-257.22 1179,-270.6 1158.12,-283.27"/>
<polygon fill="darkgreen" stroke="darkgreen" stroke-width="2" points="1156.45,-280.18 1149.79,-288.42 1160.13,-286.14 1156.45,-280.18"/>
<text text-anchor="middle" x="1252.87" y="-250.6" font-family="Arial" font-size="10.00">Store Audio</text>
</g>
<!-- debezium -->
<g id="node15" class="node">
<title>debezium</title>
<path fill="#3a0439" stroke="black" d="M2001.91,-821.4C2001.91,-821.4 1934.09,-821.4 1934.09,-821.4 1928.09,-821.4 1922.09,-815.4 1922.09,-809.4 1922.09,-809.4 1922.09,-785.4 1922.09,-785.4 1922.09,-779.4 1928.09,-773.4 1934.09,-773.4 1934.09,-773.4 2001.91,-773.4 2001.91,-773.4 2007.91,-773.4 2013.91,-779.4 2013.91,-785.4 2013.91,-785.4 2013.91,-809.4 2013.91,-809.4 2013.91,-815.4 2007.91,-821.4 2001.91,-821.4"/>
<text text-anchor="middle" x="1968" y="-801.6" font-family="Arial" font-size="14.00" fill="white">Debezium</text>
<text text-anchor="middle" x="1968" y="-784.8" font-family="Arial" font-size="14.00" fill="white">(CDC)</text>
</g>
<!-- postgres&#45;&gt;debezium -->
<g id="edge10" class="edge">
<title>postgres-&gt;debezium</title>
<path fill="none" stroke="darkgreen" stroke-width="2" d="M772.12,-343.46C786.29,-364.19 810.79,-395.26 840,-412.2 1132.81,-581.98 1268.35,-452.63 1584,-574.8 1618.88,-588.3 1822.12,-709.02 1917.98,-766.38"/>
<polygon fill="darkgreen" stroke="darkgreen" stroke-width="2" points="1916.15,-769.36 1926.53,-771.5 1919.75,-763.36 1916.15,-769.36"/>
<text text-anchor="middle" x="1619.05" y="-577.8" font-family="Arial" font-size="10.00">CDC</text>
</g>
<!-- patroni -->
<g id="node13" class="node">
<title>patroni</title>
<path fill="#336791" stroke="black" stroke-dasharray="5,2" d="M990.7,-348.6C990.7,-351.91 963.49,-354.6 930,-354.6 896.51,-354.6 869.3,-351.91 869.3,-348.6 869.3,-348.6 869.3,-294.6 869.3,-294.6 869.3,-291.29 896.51,-288.6 930,-288.6 963.49,-288.6 990.7,-291.29 990.7,-294.6 990.7,-294.6 990.7,-348.6 990.7,-348.6"/>
<path fill="none" stroke="black" stroke-dasharray="5,2" d="M990.7,-348.6C990.7,-345.29 963.49,-342.6 930,-342.6 896.51,-342.6 869.3,-345.29 869.3,-348.6"/>
<text text-anchor="middle" x="930" y="-325.8" font-family="Arial" font-size="14.00" fill="white">Patroni Cluster</text>
<text text-anchor="middle" x="930" y="-309" font-family="Arial" font-size="14.00" fill="white">(Future)</text>
</g>
<!-- patroni&#45;&gt;debezium -->
<g id="edge34" class="edge">
<title>patroni-&gt;debezium</title>
<path fill="none" stroke="black" stroke-dasharray="5,2" d="M951.53,-354.65C967.44,-375.3 991.13,-400.42 1019,-412.2 1056.26,-427.95 1712.33,-399.37 1747,-420.2 1879.02,-499.54 1829.12,-595.23 1913,-724.4 1921.74,-737.86 1932.24,-752.02 1941.72,-764.19"/>
<polygon fill="black" stroke="black" points="1938.84,-766.19 1947.79,-771.88 1944.34,-761.86 1938.84,-766.19"/>
</g>
<!-- redpanda -->
<g id="node16" class="node">
<title>redpanda</title>
<path fill="#ff5722" stroke="black" d="M2042.19,-675.8C2042.19,-679.11 2019.69,-681.8 1992,-681.8 1964.31,-681.8 1941.81,-679.11 1941.81,-675.8 1941.81,-675.8 1941.81,-621.8 1941.81,-621.8 1941.81,-618.49 1964.31,-615.8 1992,-615.8 2019.69,-615.8 2042.19,-618.49 2042.19,-621.8 2042.19,-621.8 2042.19,-675.8 2042.19,-675.8"/>
<path fill="none" stroke="black" d="M2042.19,-675.8C2042.19,-672.49 2019.69,-669.8 1992,-669.8 1964.31,-669.8 1941.81,-672.49 1941.81,-675.8"/>
<text text-anchor="middle" x="1992" y="-653" font-family="Arial" font-size="14.00" fill="white">Redpanda</text>
<text text-anchor="middle" x="1992" y="-636.2" font-family="Arial" font-size="14.00" fill="white">(Kafka API)</text>
</g>
<!-- debezium&#45;&gt;redpanda -->
<g id="edge11" class="edge">
<title>debezium-&gt;redpanda</title>
<path fill="none" stroke="darkgreen" stroke-width="2" d="M1971.8,-773.17C1975.24,-752.17 1980.4,-720.68 1984.64,-694.77"/>
<polygon fill="darkgreen" stroke="darkgreen" stroke-width="2" points="1988.05,-695.61 1986.21,-685.17 1981.14,-694.48 1988.05,-695.61"/>
<text text-anchor="middle" x="2005.09" y="-735.4" font-family="Arial" font-size="10.00">Data Events</text>
</g>
<!-- bytewax -->
<g id="node17" class="node">
<title>bytewax</title>
<path fill="#ffca28" stroke="black" d="M2057.53,-509.2C2057.53,-509.2 1934.47,-509.2 1934.47,-509.2 1928.47,-509.2 1922.47,-503.2 1922.47,-497.2 1922.47,-497.2 1922.47,-473.2 1922.47,-473.2 1922.47,-467.2 1928.47,-461.2 1934.47,-461.2 1934.47,-461.2 2057.53,-461.2 2057.53,-461.2 2063.53,-461.2 2069.53,-467.2 2069.53,-473.2 2069.53,-473.2 2069.53,-497.2 2069.53,-497.2 2069.53,-503.2 2063.53,-509.2 2057.53,-509.2"/>
<text text-anchor="middle" x="1996" y="-489.4" font-family="Arial" font-size="14.00">Bytewax</text>
<text text-anchor="middle" x="1996" y="-472.6" font-family="Arial" font-size="14.00">Stream Processing</text>
</g>
<!-- redpanda&#45;&gt;bytewax -->
<g id="edge12" class="edge">
<title>redpanda-&gt;bytewax</title>
<path fill="none" stroke="darkgreen" stroke-width="2" d="M1992.8,-615.49C1993.47,-588.57 1994.41,-550.27 1995.11,-522.35"/>
<polygon fill="darkgreen" stroke="darkgreen" stroke-width="2" points="1998.6,-522.68 1995.35,-512.59 1991.6,-522.5 1998.6,-522.68"/>
<text text-anchor="middle" x="2009.88" y="-577.8" font-family="Arial" font-size="10.00">Stream</text>
</g>
<!-- clickhouse -->
<g id="node18" class="node">
<title>clickhouse</title>
<path fill="#ffcc01" stroke="black" stroke-dasharray="5,2" d="M2069.8,-348.6C2069.8,-351.91 2047.48,-354.6 2020,-354.6 1992.52,-354.6 1970.2,-351.91 1970.2,-348.6 1970.2,-348.6 1970.2,-294.6 1970.2,-294.6 1970.2,-291.29 1992.52,-288.6 2020,-288.6 2047.48,-288.6 2069.8,-291.29 2069.8,-294.6 2069.8,-294.6 2069.8,-348.6 2069.8,-348.6"/>
<path fill="none" stroke="black" stroke-dasharray="5,2" d="M2069.8,-348.6C2069.8,-345.29 2047.48,-342.6 2020,-342.6 1992.52,-342.6 1970.2,-345.29 1970.2,-348.6"/>
<text text-anchor="middle" x="2020" y="-325.8" font-family="Arial" font-size="14.00">ClickHouse</text>
<text text-anchor="middle" x="2020" y="-309" font-family="Arial" font-size="14.00">(Future)</text>
</g>
<!-- bytewax&#45;&gt;clickhouse -->
<g id="edge35" class="edge">
<title>bytewax-&gt;clickhouse</title>
<path fill="none" stroke="black" stroke-dasharray="5,2" d="M1999.49,-460.7C2003.16,-436.02 2009,-396.64 2013.52,-366.23"/>
<polygon fill="black" stroke="black" points="2016.95,-366.97 2014.96,-356.56 2010.02,-365.94 2016.95,-366.97"/>
<text text-anchor="middle" x="2034.6" y="-423.2" font-family="Arial" font-size="10.00">Store Metrics</text>
</g>
<!-- grafana -->
<g id="node21" class="node">
<title>grafana</title>
<path fill="#f46800" stroke="black" d="M907.69,-666.8C907.69,-666.8 852.31,-666.8 852.31,-666.8 846.31,-666.8 840.31,-660.8 840.31,-654.8 840.31,-654.8 840.31,-642.8 840.31,-642.8 840.31,-636.8 846.31,-630.8 852.31,-630.8 852.31,-630.8 907.69,-630.8 907.69,-630.8 913.69,-630.8 919.69,-636.8 919.69,-642.8 919.69,-642.8 919.69,-654.8 919.69,-654.8 919.69,-660.8 913.69,-666.8 907.69,-666.8"/>
<text text-anchor="middle" x="880" y="-644.6" font-family="Arial" font-size="14.00" fill="white">Grafana</text>
</g>
<!-- clickhouse&#45;&gt;grafana -->
<g id="edge36" class="edge">
<title>clickhouse-&gt;grafana</title>
<path fill="none" stroke="black" stroke-dasharray="5,2" d="M2047.51,-355.09C2086.06,-404.74 2146.38,-500.71 2099,-566.8 2082.87,-589.3 2067.19,-581.58 2040,-586.8 1822.87,-628.49 1126.68,-643.51 931.37,-646.97"/>
<polygon fill="black" stroke="black" points="931.49,-643.47 921.55,-647.14 931.61,-650.46 931.49,-643.47"/>
</g>
<!-- nextjs_nest -->
<g id="node23" class="node">
<title>nextjs_nest</title>
<path fill="#0070f3" stroke="black" stroke-dasharray="5,2" d="M2561.53,-509.2C2561.53,-509.2 2466.47,-509.2 2466.47,-509.2 2460.47,-509.2 2454.47,-503.2 2454.47,-497.2 2454.47,-497.2 2454.47,-473.2 2454.47,-473.2 2454.47,-467.2 2460.47,-461.2 2466.47,-461.2 2466.47,-461.2 2561.53,-461.2 2561.53,-461.2 2567.53,-461.2 2573.53,-467.2 2573.53,-473.2 2573.53,-473.2 2573.53,-497.2 2573.53,-497.2 2573.53,-503.2 2567.53,-509.2 2561.53,-509.2"/>
<text text-anchor="middle" x="2514" y="-489.4" font-family="Arial" font-size="14.00" fill="white">Next/Nest App</text>
<text text-anchor="middle" x="2514" y="-472.6" font-family="Arial" font-size="14.00" fill="white">(Future)</text>
</g>
<!-- clickhouse&#45;&gt;nextjs_nest -->
<g id="edge37" class="edge">
<title>clickhouse-&gt;nextjs_nest</title>
<path fill="none" stroke="black" stroke-dasharray="5,2" d="M2058.03,-353.65C2084.48,-373.58 2121.43,-398.26 2158,-412.2 2186.05,-422.89 2395.87,-445.96 2425,-453.2 2430.95,-454.68 2437.07,-456.39 2443.18,-458.24"/>
<polygon fill="black" stroke="black" points="2442.1,-461.56 2452.68,-461.22 2444.19,-454.89 2442.1,-461.56"/>
</g>
<!-- prometheus -->
<g id="node19" class="node">
<title>prometheus</title>
<path fill="#e6522c" stroke="black" d="M1044.14,-815.4C1044.14,-815.4 963.86,-815.4 963.86,-815.4 957.86,-815.4 951.86,-809.4 951.86,-803.4 951.86,-803.4 951.86,-791.4 951.86,-791.4 951.86,-785.4 957.86,-779.4 963.86,-779.4 963.86,-779.4 1044.14,-779.4 1044.14,-779.4 1050.14,-779.4 1056.14,-785.4 1056.14,-791.4 1056.14,-791.4 1056.14,-803.4 1056.14,-803.4 1056.14,-809.4 1050.14,-815.4 1044.14,-815.4"/>
<text text-anchor="middle" x="1004" y="-793.2" font-family="Arial" font-size="14.00" fill="white">Prometheus</text>
</g>
<!-- prometheus&#45;&gt;nginx -->
<g id="edge13" class="edge">
<title>prometheus-&gt;nginx</title>
<path fill="none" stroke="darkgreen" stroke-width="2" d="M965.6,-778.92C952.37,-773.65 937.28,-768.46 923,-765.4 903.25,-761.17 216.29,-730.38 197,-724.4 163.08,-713.88 128.88,-692.02 105.19,-674.67"/>
<polygon fill="darkgreen" stroke="darkgreen" stroke-width="2" points="107.6,-672.11 97.5,-668.9 103.39,-677.7 107.6,-672.11"/>
</g>
<!-- prometheus&#45;&gt;fastapi -->
<g id="edge14" class="edge">
<title>prometheus-&gt;fastapi</title>
<path fill="none" stroke="darkgreen" stroke-width="2" d="M958.63,-778.9C947.03,-774.47 934.56,-769.73 923,-765.4 873.36,-746.81 854.36,-754.89 811,-724.4 769.09,-694.93 679.64,-577.8 636.4,-519.51"/>
<polygon fill="darkgreen" stroke="darkgreen" stroke-width="2" points="639.44,-517.74 630.68,-511.78 633.81,-521.9 639.44,-517.74"/>
</g>
<!-- prometheus&#45;&gt;fastapi_cluster -->
<g id="edge38" class="edge">
<title>prometheus-&gt;fastapi_cluster</title>
<path fill="none" stroke="black" stroke-dasharray="5,2" d="M962.87,-778.96C950.25,-774.07 936.2,-769.09 923,-765.4 824.68,-737.93 788,-770.66 697,-724.4 634.62,-692.69 637.15,-660.12 583,-615.8 553.61,-591.75 544.1,-588.59 513,-566.8 489.08,-550.05 462.37,-531.33 440.72,-516.15"/>
<polygon fill="black" stroke="black" points="442.9,-513.4 432.7,-510.53 438.88,-519.13 442.9,-513.4"/>
</g>
<!-- prometheus&#45;&gt;worker -->
<g id="edge15" class="edge">
<title>prometheus-&gt;worker</title>
<path fill="none" stroke="darkgreen" stroke-width="2" d="M1056.59,-792.56C1145.29,-785.02 1319.25,-765.33 1363,-724.4 1513.28,-583.78 1404.15,-294.57 1359.59,-194.22"/>
<polygon fill="darkgreen" stroke="darkgreen" stroke-width="2" points="1362.8,-192.83 1355.5,-185.16 1356.42,-195.72 1362.8,-192.83"/>
</g>
<!-- prometheus&#45;&gt;worker_cluster -->
<g id="edge39" class="edge">
<title>prometheus-&gt;worker_cluster</title>
<path fill="none" stroke="black" stroke-dasharray="5,2" d="M1056.45,-792.97C1157.93,-785.49 1376.63,-765.04 1439,-724.4 1510,-678.14 1524.88,-657.9 1571,-586.8 1654.82,-457.58 1712.2,-384.69 1642,-247.6 1629.04,-222.29 1605.1,-202.56 1581.77,-188.21"/>
<polygon fill="black" stroke="black" points="1583.54,-185.19 1573.14,-183.15 1580,-191.23 1583.54,-185.19"/>
</g>
<!-- prometheus&#45;&gt;openai_worker -->
<g id="edge40" class="edge">
<title>prometheus-&gt;openai_worker</title>
<path fill="none" stroke="black" stroke-dasharray="5,2" d="M1056.44,-786.31C1155.88,-765.68 1362,-715.03 1362,-649.8 1362,-649.8 1362,-649.8 1362,-425.2 1362,-370.09 1251.69,-247.85 1196.58,-190.21"/>
<polygon fill="black" stroke="black" points="1199.37,-188.07 1189.92,-183.29 1194.32,-192.92 1199.37,-188.07"/>
</g>
<!-- prometheus&#45;&gt;patroni -->
<g id="edge41" class="edge">
<title>prometheus-&gt;patroni</title>
<path fill="none" stroke="black" stroke-dasharray="5,2" d="M1056.34,-795.41C1094.6,-791.6 1144.16,-779.57 1170,-744.4 1203.84,-698.34 1189.22,-669.63 1170,-615.8 1149.37,-558.02 1031.39,-428.79 968.88,-362.9"/>
<polygon fill="black" stroke="black" points="971.65,-360.73 962.22,-355.9 966.58,-365.56 971.65,-360.73"/>
</g>
<!-- prometheus&#45;&gt;redpanda -->
<g id="edge16" class="edge">
<title>prometheus-&gt;redpanda</title>
<path fill="none" stroke="darkgreen" stroke-width="2" d="M1056.51,-795.36C1166.11,-792.48 1426.87,-781.92 1642,-744.4 1744.22,-726.57 1859.93,-692.48 1929.36,-670.46"/>
<polygon fill="darkgreen" stroke="darkgreen" stroke-width="2" points="1930.01,-673.93 1938.47,-667.55 1927.88,-667.26 1930.01,-673.93"/>
</g>
<!-- prometheus&#45;&gt;bytewax -->
<g id="edge17" class="edge">
<title>prometheus-&gt;bytewax</title>
<path fill="none" stroke="darkgreen" stroke-width="2" d="M1056.52,-795.67C1255.04,-792.64 1953.16,-779.59 2046,-744.4 2100.45,-723.76 2086.1,-672.03 2071,-615.8 2061.49,-580.37 2039.67,-544.62 2022.01,-519.67"/>
<polygon fill="darkgreen" stroke="darkgreen" stroke-width="2" points="2024.99,-517.81 2016.27,-511.78 2019.33,-521.93 2024.99,-517.81"/>
</g>
<!-- prometheus&#45;&gt;grafana -->
<g id="edge23" class="edge">
<title>prometheus-&gt;grafana</title>
<path fill="none" stroke="darkgreen" stroke-width="2" d="M989.29,-779.01C967.94,-753.77 928.18,-706.76 902.95,-676.94"/>
<polygon fill="darkgreen" stroke="darkgreen" stroke-width="2" points="905.78,-674.86 896.65,-669.48 900.43,-679.38 905.78,-674.86"/>
</g>
<!-- loki -->
<g id="node20" class="node">
<title>loki</title>
<path fill="#5c4ee5" stroke="black" d="M882.24,-815.4C882.24,-815.4 851.76,-815.4 851.76,-815.4 845.76,-815.4 839.76,-809.4 839.76,-803.4 839.76,-803.4 839.76,-791.4 839.76,-791.4 839.76,-785.4 845.76,-779.4 851.76,-779.4 851.76,-779.4 882.24,-779.4 882.24,-779.4 888.24,-779.4 894.24,-785.4 894.24,-791.4 894.24,-791.4 894.24,-803.4 894.24,-803.4 894.24,-809.4 888.24,-815.4 882.24,-815.4"/>
<text text-anchor="middle" x="867" y="-793.2" font-family="Arial" font-size="14.00" fill="white">Loki</text>
</g>
<!-- loki&#45;&gt;nginx -->
<g id="edge18" class="edge">
<title>loki-&gt;nginx</title>
<path fill="none" stroke="darkgreen" stroke-width="2" d="M839.32,-795.1C728.76,-789.66 318.91,-766.97 197,-724.4 164.02,-712.89 130.37,-691.69 106.62,-674.82"/>
<polygon fill="darkgreen" stroke="darkgreen" stroke-width="2" points="108.72,-672.02 98.57,-668.97 104.6,-677.68 108.72,-672.02"/>
</g>
<!-- loki&#45;&gt;fastapi -->
<g id="edge19" class="edge">
<title>loki-&gt;fastapi</title>
<path fill="none" stroke="darkgreen" stroke-width="2" d="M839.42,-794.56C804.45,-790.79 744.33,-779.31 708,-744.4 644.76,-683.64 622.86,-577.44 615.53,-522.07"/>
<polygon fill="darkgreen" stroke="darkgreen" stroke-width="2" points="619.04,-521.98 614.36,-512.48 612.09,-522.83 619.04,-521.98"/>
</g>
<!-- loki&#45;&gt;fastapi_cluster -->
<g id="edge42" class="edge">
<title>loki-&gt;fastapi_cluster</title>
<path fill="none" stroke="black" stroke-dasharray="5,2" d="M839.29,-791.74C792.54,-783.13 695.85,-762.08 622,-724.4 529.13,-677.01 493.84,-670.74 432,-586.8 417.67,-567.35 409.11,-541.46 404.15,-520.82"/>
<polygon fill="black" stroke="black" points="407.59,-520.15 402.03,-511.14 400.76,-521.66 407.59,-520.15"/>
</g>
<!-- loki&#45;&gt;worker -->
<g id="edge20" class="edge">
<title>loki-&gt;worker</title>
<path fill="none" stroke="darkgreen" stroke-width="2" d="M891.58,-778.99C909.21,-765.58 932.65,-745.77 949,-724.4 1030.58,-617.78 984.62,-545.61 1082,-453.2 1115.65,-421.26 1141.71,-441.11 1178,-412.2 1243.59,-359.94 1244.4,-330.62 1289,-259.6 1302.36,-238.33 1315.72,-213.47 1325.81,-193.79"/>
<polygon fill="darkgreen" stroke="darkgreen" stroke-width="2" points="1328.88,-195.48 1330.27,-184.98 1322.63,-192.32 1328.88,-195.48"/>
</g>
<!-- loki&#45;&gt;worker_cluster -->
<g id="edge43" class="edge">
<title>loki-&gt;worker_cluster</title>
<path fill="none" stroke="black" stroke-dasharray="5,2" d="M894.47,-780.06C903.41,-775.05 913.49,-769.72 923,-765.4 965.24,-746.21 981.92,-752.28 1019,-724.4 1248.08,-552.16 1298.22,-491.96 1466,-259.6 1481.09,-238.71 1494.57,-212.96 1504.16,-192.75"/>
<polygon fill="black" stroke="black" points="1507.27,-194.36 1508.3,-183.82 1500.92,-191.42 1507.27,-194.36"/>
</g>
<!-- loki&#45;&gt;grafana -->
<g id="edge24" class="edge">
<title>loki-&gt;grafana</title>
<path fill="none" stroke="darkgreen" stroke-width="2" d="M868.54,-779.01C870.7,-754.65 874.66,-710.02 877.31,-680.12"/>
<polygon fill="darkgreen" stroke="darkgreen" stroke-width="2" points="880.8,-680.46 878.19,-670.19 873.82,-679.84 880.8,-680.46"/>
</g>
<!-- nextapp&#45;&gt;fastapi -->
<g id="edge22" class="edge">
<title>nextapp-&gt;fastapi</title>
<path fill="none" stroke="darkgreen" stroke-width="2" d="M2279.84,-503.68C2234.79,-522.81 2159.91,-551.43 2092,-562.6 2007.8,-576.45 1985.29,-565.16 1900,-562.6 1444.86,-548.94 900.47,-508.17 695.51,-491.96"/>
<polygon fill="darkgreen" stroke="darkgreen" stroke-width="2" points="696.05,-488.49 685.81,-491.19 695.5,-495.47 696.05,-488.49"/>
<text text-anchor="middle" x="1539" y="-577.8" font-family="Arial" font-size="10.00">API Requests</text>
</g>
<!-- haproxy_app&#45;&gt;fastapi_cluster -->
<g id="edge27" class="edge">
<title>haproxy_app-&gt;fastapi_cluster</title>
<path fill="none" stroke="black" stroke-dasharray="5,2" d="M286.9,-624.3C309.4,-596.34 347.07,-549.5 372.23,-518.24"/>
<polygon fill="black" stroke="black" points="374.8,-520.63 378.34,-510.64 369.34,-516.24 374.8,-520.63"/>
</g>
<!-- haproxy_db&#45;&gt;patroni -->
<g id="edge31" class="edge">
<title>haproxy_db-&gt;patroni</title>
<path fill="none" stroke="black" stroke-dasharray="5,2" d="M2203.4,-345.96C2172.81,-373.21 2118.74,-415.77 2063,-432.7 2009.05,-449.09 1101.74,-449.78 1048,-432.7 1011.42,-421.08 980.32,-390.29 959.24,-364.07"/>
<polygon fill="black" stroke="black" points="962.04,-361.97 953.14,-356.22 956.51,-366.26 962.04,-361.97"/>
</g>
<!-- current_node -->
<g id="node26" class="node">
<title>current_node</title>
<path fill="lightblue" stroke="black" d="M2428.88,-987.27C2428.88,-987.27 2301.12,-987.27 2301.12,-987.27 2295.12,-987.27 2289.12,-981.27 2289.12,-975.27 2289.12,-975.27 2289.12,-963.27 2289.12,-963.27 2289.12,-957.27 2295.12,-951.27 2301.12,-951.27 2301.12,-951.27 2428.88,-951.27 2428.88,-951.27 2434.88,-951.27 2440.88,-957.27 2440.88,-963.27 2440.88,-963.27 2440.88,-975.27 2440.88,-975.27 2440.88,-981.27 2434.88,-987.27 2428.88,-987.27"/>
<text text-anchor="middle" x="2365" y="-965.07" font-family="Arial" font-size="14.00">Current Component</text>
</g>
<!-- edge1 -->
<g id="node30" class="node">
<title>edge1</title>
<path fill="lightblue" stroke="none" d="M2371,-815.4C2371,-815.4 2359,-815.4 2359,-815.4 2353,-815.4 2347,-809.4 2347,-803.4 2347,-803.4 2347,-791.4 2347,-791.4 2347,-785.4 2353,-779.4 2359,-779.4 2359,-779.4 2371,-779.4 2371,-779.4 2377,-779.4 2383,-785.4 2383,-791.4 2383,-791.4 2383,-803.4 2383,-803.4 2383,-809.4 2377,-815.4 2371,-815.4"/>
</g>
<!-- current_node&#45;&gt;edge1 -->
<g id="edge44" class="edge">
<title>current_node-&gt;edge1</title>
<path fill="none" stroke="darkgreen" stroke-width="2" d="M2365,-951.04C2365,-922.15 2365,-863.6 2365,-828"/>
<polygon fill="darkgreen" stroke="darkgreen" stroke-width="2" points="2368.5,-828.19 2365,-818.19 2361.5,-828.19 2368.5,-828.19"/>
</g>
<!-- future_node -->
<g id="node27" class="node">
<title>future_node</title>
<path fill="lightblue" stroke="black" stroke-dasharray="5,2" d="M2632.77,-987.27C2632.77,-987.27 2511.23,-987.27 2511.23,-987.27 2505.23,-987.27 2499.23,-981.27 2499.23,-975.27 2499.23,-975.27 2499.23,-963.27 2499.23,-963.27 2499.23,-957.27 2505.23,-951.27 2511.23,-951.27 2511.23,-951.27 2632.77,-951.27 2632.77,-951.27 2638.77,-951.27 2644.77,-957.27 2644.77,-963.27 2644.77,-963.27 2644.77,-975.27 2644.77,-975.27 2644.77,-981.27 2638.77,-987.27 2632.77,-987.27"/>
<text text-anchor="middle" x="2572" y="-965.07" font-family="Arial" font-size="14.00">Future Component</text>
</g>
<!-- edge2 -->
<g id="node31" class="node">
<title>edge2</title>
<path fill="lightblue" stroke="none" d="M2578,-815.4C2578,-815.4 2566,-815.4 2566,-815.4 2560,-815.4 2554,-809.4 2554,-803.4 2554,-803.4 2554,-791.4 2554,-791.4 2554,-785.4 2560,-779.4 2566,-779.4 2566,-779.4 2578,-779.4 2578,-779.4 2584,-779.4 2590,-785.4 2590,-791.4 2590,-791.4 2590,-803.4 2590,-803.4 2590,-809.4 2584,-815.4 2578,-815.4"/>
</g>
<!-- future_node&#45;&gt;edge2 -->
<g id="edge45" class="edge">
<title>future_node-&gt;edge2</title>
<path fill="none" stroke="black" stroke-dasharray="5,2" d="M2572,-951.04C2572,-921.77 2572,-862.04 2572,-826.6"/>
<polygon fill="black" stroke="black" points="2575.5,-826.68 2572,-816.68 2568.5,-826.68 2575.5,-826.68"/>
</g>
<!-- current_flow -->
<g id="node28" class="node">
<title>current_flow</title>
<path fill="lightblue" stroke="none" d="M2407.47,-666.8C2407.47,-666.8 2322.53,-666.8 2322.53,-666.8 2316.53,-666.8 2310.53,-660.8 2310.53,-654.8 2310.53,-654.8 2310.53,-642.8 2310.53,-642.8 2310.53,-636.8 2316.53,-630.8 2322.53,-630.8 2322.53,-630.8 2407.47,-630.8 2407.47,-630.8 2413.47,-630.8 2419.47,-636.8 2419.47,-642.8 2419.47,-642.8 2419.47,-654.8 2419.47,-654.8 2419.47,-660.8 2413.47,-666.8 2407.47,-666.8"/>
<text text-anchor="middle" x="2365" y="-644.6" font-family="Arial" font-size="14.00">Current Flow</text>
</g>
<!-- future_flow -->
<g id="node29" class="node">
<title>future_flow</title>
<path fill="lightblue" stroke="none" d="M2611.36,-666.8C2611.36,-666.8 2532.64,-666.8 2532.64,-666.8 2526.64,-666.8 2520.64,-660.8 2520.64,-654.8 2520.64,-654.8 2520.64,-642.8 2520.64,-642.8 2520.64,-636.8 2526.64,-630.8 2532.64,-630.8 2532.64,-630.8 2611.36,-630.8 2611.36,-630.8 2617.36,-630.8 2623.36,-636.8 2623.36,-642.8 2623.36,-642.8 2623.36,-654.8 2623.36,-654.8 2623.36,-660.8 2617.36,-666.8 2611.36,-666.8"/>
<text text-anchor="middle" x="2572" y="-644.6" font-family="Arial" font-size="14.00">Future Flow</text>
</g>
<!-- edge1&#45;&gt;current_flow -->
<!-- edge2&#45;&gt;future_flow -->
</g>
</svg>