<?xml version="1.0" encoding="UTF-8" standalone="no" ?>
<!DOCTYPE svg PUBLIC "-//W3C//DTD SVG 1.1//EN" "http://www.w3.org/Graphics/SVG/1.1/DTD/svg11.dtd">
<svg xmlns="http://www.w3.org/2000/svg" xmlns:xlink="http://www.w3.org/1999/xlink" version="1.1" width="200" height="200" viewBox="0 0 200 200" xml:space="preserve">
<desc>Created with Fabric.js 5.2.4</desc>
<defs>
</defs>
<g transform="matrix(1 0 0 1 100 100)" id="ad62eaed-4485-4245-b9d6-f51629e9f56d"  >
<rect style="stroke: none; stroke-width: 1; stroke-dasharray: none; stroke-linecap: butt; stroke-dashoffset: 0; stroke-linejoin: miter; stroke-miterlimit: 4; fill: rgb(255,255,255); fill-rule: nonzero; opacity: 1; visibility: hidden;" vector-effect="non-scaling-stroke"  x="-100" y="-100" rx="0" ry="0" width="200" height="200" />
</g>
<g transform="matrix(Infinity NaN NaN Infinity 0 0)" id="0c245802-7b2a-450c-9e93-ecec632ed06e"  >
</g>
<g transform="matrix(0.19 0 0 0.19 100 100)"  >
<g style="" vector-effect="non-scaling-stroke"   >
		<g transform="matrix(1 0 0 1 -490 -490)"  >
<rect style="stroke: none; stroke-width: 1; stroke-dasharray: none; stroke-linecap: butt; stroke-dashoffset: 0; stroke-linejoin: miter; stroke-miterlimit: 4; fill: rgb(255,255,255); fill-opacity: 0; fill-rule: nonzero; opacity: 1;" vector-effect="non-scaling-stroke"  x="-50" y="-50" rx="0" ry="0" width="100" height="100" />
</g>
		<g transform="matrix(1 0 0 1 0 0)"  >
<rect style="stroke: none; stroke-width: 1; stroke-dasharray: none; stroke-linecap: butt; stroke-dashoffset: 0; stroke-linejoin: miter; stroke-miterlimit: 4; fill: rgb(255,255,255); fill-rule: nonzero; opacity: 1; visibility: hidden;" vector-effect="non-scaling-stroke"  x="-540" y="-540" rx="0" ry="0" width="1080" height="1080" />
</g>
		<g transform="matrix(0.1 0 0 0.1 130.94 264.31)"  >
<path style="stroke: none; stroke-width: 1; stroke-dasharray: none; stroke-linecap: butt; stroke-dashoffset: 0; stroke-linejoin: miter; stroke-miterlimit: 4; fill: rgb(60,130,255); fill-rule: nonzero; opacity: 1;" vector-effect="non-scaling-stroke"  transform=" translate(-11530, -11390.49)" d="M 11420 11396 C 11420 11377 11425 11358 11431 11355 C 11437 11351 11486 11351 11541 11355 C 11640 11362 11640 11362 11640 11391 C 11640 11416 11636 11420 11613 11421 C 11597 11421 11548 11423 11503 11426 C 11420 11432 11420 11432 11420 11396 z" stroke-linecap="round" />
</g>
		<g transform="matrix(0.1 0 0 0.1 212.49 245.25)"  >
<path style="stroke: none; stroke-width: 1; stroke-dasharray: none; stroke-linecap: butt; stroke-dashoffset: 0; stroke-linejoin: miter; stroke-miterlimit: 4; fill: rgb(60,130,255); fill-rule: nonzero; opacity: 1;" vector-effect="non-scaling-stroke"  transform=" translate(-12345.5, -11199.95)" d="M 11942 11354 C 11945 11318 11947 11315 11979 11312 C 11998 11310 12025 11300 12038 11289 C 12052 11279 12069 11270 12076 11270 C 12084 11270 12090 11263 12090 11255 C 12090 11247 12094 11240 12099 11240 C 12104 11240 12111 11232 12115 11222 C 12123 11194 12164 11180 12235 11180 C 12271 11180 12300 11176 12300 11171 C 12300 11166 12318 11160 12340 11156 C 12366 11152 12380 11145 12380 11135 C 12380 11127 12387 11120 12395 11120 C 12403 11120 12410 11116 12410 11110 C 12410 11105 12421 11100 12435 11100 C 12449 11100 12460 11097 12460 11093 C 12460 11084 12509 11060 12527 11060 C 12534 11060 12540 11056 12540 11052 C 12540 11041 12629 11010 12658 11010 C 12670 11010 12696 11017 12715 11024 C 12743 11036 12750 11044 12750 11067 C 12750 11092 12739 11101 12657 11147 C 12438 11270 12165 11369 11999 11387 C 11939 11393 11939 11393 11942 11354 z" stroke-linecap="round" />
</g>
		<g transform="matrix(0.1 0 0 0.1 182.44 179.04)"  >
<path style="stroke: none; stroke-width: 1; stroke-dasharray: none; stroke-linecap: butt; stroke-dashoffset: 0; stroke-linejoin: miter; stroke-miterlimit: 4; fill: rgb(69,145,253); fill-rule: nonzero; opacity: 1;" vector-effect="non-scaling-stroke"  transform=" translate(-12045, -10537.84)" d="M 10350 11390 C 10350 11352 10350 11352 10447 11348 C 10510 11345 10545 11340 10548 11332 C 10550 11325 10562 11320 10574 11320 C 10600 11320 10650 11299 10650 11288 C 10650 11283 10657 11280 10666 11280 C 10674 11280 10698 11263 10719 11243 C 10758 11202 10792 11180 10812 11180 C 10819 11180 10836 11166 10849 11150 C 10862 11133 10878 11120 10886 11120 C 10894 11120 10900 11116 10900 11110 C 10900 11105 10910 11100 10922 11100 C 10935 11100 10962 11080 10990 11051 C 11037 11001 11037 11001 11441 10997 C 11863 10993 11889 10991 12075 10940 C 12241 10894 12455 10794 12586 10700 C 12686 10629 12884 10440 12965 10339 C 13064 10216 13207 9973 13235 9883 C 13240 9866 13249 9860 13272 9860 C 13302 9860 13302 9861 13298 9906 C 13295 9952 13295 9952 13330 9946 C 13349 9943 13366 9936 13368 9930 C 13370 9925 13378 9920 13386 9920 C 13394 9920 13400 9916 13400 9911 C 13400 9907 13437 9899 13482 9894 C 13563 9885 13564 9885 13572 9853 C 13577 9835 13585 9820 13590 9820 C 13596 9820 13600 9808 13600 9794 C 13600 9768 13620 9740 13639 9740 C 13644 9740 13652 9720 13656 9695 C 13662 9651 13663 9650 13701 9650 C 13736 9650 13740 9653 13740 9674 C 13740 9716 13672 9937 13619 10064 C 13541 10254 13428 10441 13279 10625 C 13147 10789 12863 11033 12715 11111 C 12655 11143 12655 11143 12689 11107 C 12723 11070 12723 11070 12690 11056 C 12660 11044 12651 11044 12615 11058 C 12593 11066 12572 11078 12569 11082 C 12566 11087 12557 11093 12549 11095 C 12511 11104 12490 11113 12490 11121 C 12490 11126 12479 11130 12465 11130 C 12451 11130 12440 11135 12440 11140 C 12440 11146 12432 11150 12423 11150 C 12409 11150 12408 11152 12418 11159 C 12428 11165 12423 11170 12399 11179 C 12382 11185 12359 11190 12349 11190 C 12338 11190 12330 11195 12330 11200 C 12330 11206 12323 11210 12315 11210 C 12307 11210 12300 11215 12300 11220 C 12300 11226 12295 11230 12289 11230 C 12284 11230 12282 11226 12285 11220 C 12294 11206 12207 11207 12176 11221 C 12162 11228 12153 11237 12156 11241 C 12159 11246 12156 11250 12150 11250 C 12144 11250 12141 11254 12145 11259 C 12148 11264 12142 11271 12133 11273 C 12119 11277 12120 11278 12138 11279 C 12150 11280 12160 11286 12160 11295 C 12160 11307 12152 11309 12129 11305 C 12097 11299 12050 11320 12050 11340 C 12050 11346 12071 11350 12098 11351 C 12184 11352 12106 11373 11895 11406 C 11812 11419 11669 11422 11073 11425 C 10350 11427 10350 11427 10350 11390 z" stroke-linecap="round" />
</g>
		<g transform="matrix(0.1 0 0 0.1 -47.65 304.62)"  >
<path style="stroke: none; stroke-width: 1; stroke-dasharray: none; stroke-linecap: butt; stroke-dashoffset: 0; stroke-linejoin: miter; stroke-miterlimit: 4; fill: rgb(79,160,252); fill-rule: nonzero; opacity: 1;" vector-effect="non-scaling-stroke"  transform=" translate(-9744.13, -11793.66)" d="M 8299 12581 C 8233 12571 8128 12516 8085 12469 C 8039 12418 8005 12345 7990 12263 C 7974 12181 7979 12170 8034 12170 C 8059 12170 8081 12174 8084 12179 C 8097 12199 8170 12157 8170 12130 C 8170 12126 8179 12120 8190 12117 C 8205 12113 8210 12103 8210 12076 C 8210 12051 8214 12040 8225 12040 C 8233 12040 8240 12036 8240 12031 C 8240 12026 8248 12019 8259 12015 C 8272 12011 8279 11996 8283 11959 C 8287 11931 8299 11892 8310 11872 C 8329 11840 8332 11816 8337 11599 C 8343 11360 8343 11360 8377 11360 C 8410 11360 8410 11360 8405 11693 C 8402 11893 8404 12034 8410 12048 C 8415 12060 8430 12075 8443 12081 C 8466 12091 8488 12072 8841 11715 C 9047 11507 9246 11312 9283 11281 C 9365 11214 9467 11145 9500 11135 C 9514 11131 9536 11119 9550 11109 C 9583 11084 9702 11044 9781 11030 C 9926 11004 10045 11001 10905 11003 C 11400 11004 11637 11006 11433 11007 C 11071 11010 11060 11011 11060 11030 C 11060 11041 11051 11054 11040 11060 C 11029 11066 11022 11075 11025 11081 C 11029 11086 11026 11090 11020 11090 C 11013 11090 11001 11099 10992 11110 C 10982 11122 10965 11132 10953 11133 C 10940 11134 10930 11138 10930 11142 C 10930 11146 10924 11150 10916 11150 C 10908 11150 10892 11163 10879 11180 C 10866 11196 10850 11210 10844 11210 C 10825 11210 10780 11237 10787 11243 C 10790 11247 10786 11250 10776 11250 C 10767 11250 10762 11255 10765 11260 C 10768 11266 10765 11270 10758 11270 C 10750 11270 10738 11279 10730 11290 C 10722 11301 10706 11310 10695 11311 C 10675 11311 10675 11311 10695 11320 C 10712 11327 10710 11329 10683 11329 C 10666 11330 10648 11335 10645 11340 C 10642 11346 10625 11350 10609 11350 C 10591 11350 10581 11354 10585 11360 C 10588 11366 10584 11371 10576 11371 C 10567 11372 10556 11374 10550 11375 C 10545 11376 10504 11378 10460 11379 C 10414 11379 10380 11384 10380 11390 C 10380 11396 10438 11400 10535 11400 C 10632 11400 10690 11404 10690 11410 C 10690 11416 10689 11421 10688 11422 C 10686 11423 10501 11426 10275 11430 C 9865 11436 9865 11436 9787 11463 C 9698 11494 9643 11521 9585 11560 C 9563 11576 9345 11789 9100 12035 C 8660 12477 8580 12549 8501 12570 C 8447 12584 8351 12589 8299 12581 z" stroke-linecap="round" />
</g>
		<g transform="matrix(0.1 0 0 0.1 300.87 95.12)"  >
<path style="stroke: none; stroke-width: 1; stroke-dasharray: none; stroke-linecap: butt; stroke-dashoffset: 0; stroke-linejoin: miter; stroke-miterlimit: 4; fill: rgb(79,160,252); fill-rule: nonzero; opacity: 1;" vector-effect="non-scaling-stroke"  transform=" translate(-13229.38, -9698.65)" d="M 12796 10518 C 12963 10348 12992 10313 13073 10190 C 13194 10004 13277 9804 13326 9578 C 13349 9472 13353 9425 13358 9234 C 13362 9013 13362 9013 13417 8997 C 13446 8988 13475 8980 13481 8980 C 13487 8980 13509 8962 13530 8940 C 13551 8918 13576 8900 13584 8900 C 13593 8900 13600 8896 13600 8890 C 13600 8885 13608 8880 13618 8880 C 13629 8880 13642 8869 13648 8855 C 13654 8841 13666 8830 13675 8830 C 13686 8830 13690 8819 13690 8790 C 13690 8751 13691 8750 13725 8750 C 13756 8750 13760 8753 13760 8775 C 13760 8789 13765 8800 13770 8800 C 13787 8800 13783 9407 13765 9534 C 13745 9679 13721 9782 13704 9800 C 13692 9812 13690 9810 13690 9780 C 13689 9751 13688 9748 13679 9763 C 13673 9772 13666 9779 13662 9776 C 13658 9774 13649 9778 13642 9786 C 13635 9794 13634 9800 13639 9800 C 13646 9800 13646 9809 13638 9825 C 13632 9839 13623 9850 13618 9850 C 13613 9850 13611 9854 13614 9859 C 13618 9864 13614 9871 13608 9873 C 13601 9876 13607 9879 13622 9879 C 13642 9880 13648 9884 13644 9895 C 13640 9903 13634 9910 13628 9910 C 13623 9910 13622 9906 13625 9900 C 13628 9895 13625 9890 13617 9890 C 13609 9890 13600 9897 13596 9905 C 13592 9915 13597 9920 13613 9921 C 13630 9922 13627 9924 13602 9931 C 13584 9936 13562 9937 13552 9932 C 13543 9927 13529 9925 13523 9926 C 13516 9927 13491 9928 13468 9929 C 13436 9930 13429 9933 13440 9940 C 13452 9948 13449 9950 13428 9950 C 13412 9950 13400 9954 13400 9958 C 13400 9962 13385 9972 13366 9978 C 13332 9990 13254 9985 13245 9970 C 13242 9966 13247 9948 13256 9931 C 13265 9913 13270 9896 13266 9893 C 13263 9890 13253 9905 13244 9926 C 13183 10065 13082 10233 12992 10343 C 12919 10433 12748 10603 12694 10639 C 12657 10664 12681 10635 12796 10518 z" stroke-linecap="round" />
</g>
		<g transform="matrix(0.1 0 0 0.1 86.94 102.26)"  >
<path style="stroke: none; stroke-width: 1; stroke-dasharray: none; stroke-linecap: butt; stroke-dashoffset: 0; stroke-linejoin: miter; stroke-miterlimit: 4; fill: rgb(79,160,252); fill-rule: nonzero; opacity: 1;" vector-effect="non-scaling-stroke"  transform=" translate(-11090, -9770)" d="M 10710 9928 C 10710 9882 10722 9840 10736 9840 C 10743 9840 10752 9831 10755 9820 C 10758 9809 10768 9800 10776 9800 C 10795 9800 10820 9776 10820 9758 C 10820 9739 10866 9722 10943 9714 C 10980 9711 11017 9702 11024 9695 C 11051 9668 11133 9648 11191 9655 C 11230 9660 11250 9658 11255 9650 C 11259 9644 11278 9639 11299 9640 C 11361 9643 11368 9641 11374 9615 C 11379 9594 11386 9590 11419 9590 C 11459 9590 11470 9601 11470 9640 C 11470 9677 11299 9794 11160 9853 C 11043 9902 10902 9938 10798 9946 C 10710 9953 10710 9953 10710 9928 z" stroke-linecap="round" />
</g>
		<g transform="matrix(0.1 0 0 0.1 181.94 65.23)"  >
<path style="stroke: none; stroke-width: 1; stroke-dasharray: none; stroke-linecap: butt; stroke-dashoffset: 0; stroke-linejoin: miter; stroke-miterlimit: 4; fill: rgb(79,160,252); fill-rule: nonzero; opacity: 1;" vector-effect="non-scaling-stroke"  transform=" translate(-12040, -9399.66)" d="M 11843 9483 C 11826 9480 11820 9472 11820 9451 C 11820 9426 11825 9422 11858 9416 C 11878 9413 11923 9410 11958 9410 C 12007 9410 12020 9407 12020 9395 C 12020 9386 12028 9376 12038 9373 C 12047 9369 12060 9361 12065 9354 C 12076 9341 12150 9321 12218 9313 C 12255 9309 12260 9310 12260 9328 C 12260 9368 12098 9466 12049 9456 C 12029 9452 12020 9455 12020 9464 C 12020 9483 11908 9496 11843 9483 z" stroke-linecap="round" />
</g>
		<g transform="matrix(0.1 0 0 0.1 -2.2 181.35)"  >
<path style="stroke: none; stroke-width: 1; stroke-dasharray: none; stroke-linecap: butt; stroke-dashoffset: 0; stroke-linejoin: miter; stroke-miterlimit: 4; fill: rgb(88,171,253); fill-rule: nonzero; opacity: 1;" vector-effect="non-scaling-stroke"  transform=" translate(-10198.67, -10560.94)" d="M 8014 12354 C 8005 12334 8001 12307 8004 12294 C 8008 12281 8005 12270 7997 12267 C 7988 12264 7984 12162 7982 11812 C 7980 11412 7981 11360 7995 11360 C 8003 11360 8010 11351 8010 11340 C 8010 11324 8017 11320 8046 11320 C 8072 11320 8083 11315 8087 11303 C 8089 11293 8106 11274 8125 11260 C 8144 11246 8163 11226 8169 11215 C 8175 11204 8184 11188 8190 11180 C 8195 11172 8204 11146 8210 11123 C 8216 11099 8225 11080 8231 11080 C 8237 11080 8248 11073 8256 11065 C 8269 11053 8271 11021 8271 10906 C 8270 10790 8273 10760 8285 10750 C 8293 10743 8300 10731 8300 10722 C 8300 10705 8384 10620 8400 10620 C 8406 10620 8410 10611 8410 10600 C 8410 10589 8414 10580 8419 10580 C 8424 10580 8433 10567 8439 10552 C 8447 10534 8464 10518 8485 10510 C 8504 10502 8522 10488 8526 10478 C 8529 10467 8543 10454 8556 10448 C 8569 10442 8580 10431 8580 10424 C 8580 10396 8602 10364 8630 10352 C 8646 10345 8663 10327 8668 10311 C 8675 10290 8689 10279 8716 10270 C 8760 10255 8780 10238 8780 10216 C 8780 10207 8787 10200 8795 10200 C 8805 10200 8810 10190 8810 10171 C 8810 10144 8813 10141 8854 10135 C 8878 10131 8906 10130 8916 10132 C 8940 10138 8990 10113 8990 10096 C 8990 10079 9024 10040 9039 10040 C 9045 10040 9050 10033 9050 10025 C 9050 10010 9093 9960 9105 9960 C 9109 9960 9123 9951 9137 9940 C 9151 9929 9178 9920 9196 9920 C 9214 9920 9232 9916 9235 9910 C 9238 9905 9250 9900 9261 9900 C 9271 9900 9280 9896 9280 9890 C 9280 9885 9289 9880 9300 9880 C 9311 9880 9320 9876 9320 9870 C 9320 9865 9327 9860 9335 9860 C 9343 9860 9350 9856 9350 9852 C 9350 9847 9372 9838 9399 9830 C 9441 9819 9451 9811 9466 9778 C 9475 9757 9489 9740 9497 9740 C 9504 9740 9510 9736 9510 9730 C 9510 9725 9521 9720 9534 9720 C 9548 9720 9562 9715 9565 9710 C 9568 9704 9584 9700 9601 9700 C 9617 9700 9630 9696 9630 9690 C 9630 9685 9637 9680 9646 9680 C 9655 9680 9670 9672 9679 9662 C 9688 9653 9725 9637 9762 9627 C 9821 9612 9887 9610 10334 9610 C 10660 9610 10841 9606 10845 9600 C 10848 9595 10861 9590 10874 9590 C 10886 9590 10900 9586 10906 9582 C 10911 9577 10935 9567 10960 9560 C 11016 9542 11099 9500 11146 9464 C 11200 9422 11432 9162 11425 9150 C 11411 9128 11480 9141 11506 9165 C 11521 9179 11538 9190 11545 9190 C 11567 9190 11605 9166 11643 9128 C 11673 9097 11680 9084 11680 9050 C 11680 9012 11682 9010 11710 9010 C 11734 9010 11743 9016 11751 9037 C 11774 9099 11843 9139 11924 9140 C 11970 9140 11977 9136 12016 9096 C 12068 9041 12080 8989 12056 8920 C 12028 8841 12029 8840 12121 8840 C 12225 8840 12280 8825 12280 8796 C 12280 8746 12291 8730 12325 8730 C 12354 8730 12359 8735 12378 8780 C 12390 8808 12404 8865 12411 8908 C 12426 9005 12408 9106 12358 9205 C 12322 9278 12227 9383 12169 9413 C 12136 9431 12137 9430 12182 9386 C 12233 9336 12234 9332 12189 9355 C 12173 9364 12155 9368 12150 9365 C 12144 9362 12140 9366 12140 9374 C 12140 9393 12124 9395 12116 9378 C 12113 9368 12108 9369 12098 9381 C 12091 9389 12076 9400 12065 9404 C 12049 9410 12048 9413 12060 9420 C 12068 9426 12089 9430 12105 9430 C 12144 9430 12124 9444 12050 9467 C 11978 9489 11822 9489 11761 9466 C 11737 9457 11708 9450 11697 9450 C 11685 9450 11633 9495 11560 9568 C 11496 9632 11414 9705 11379 9729 C 11315 9773 11315 9773 11377 9709 C 11425 9660 11437 9642 11430 9630 C 11421 9617 11419 9617 11410 9630 C 11405 9638 11402 9651 11405 9658 C 11407 9664 11405 9671 11400 9671 C 11394 9672 11385 9673 11379 9674 C 11373 9674 11362 9684 11354 9694 C 11346 9705 11340 9708 11340 9701 C 11340 9694 11336 9691 11331 9695 C 11326 9698 11315 9693 11306 9685 C 11297 9676 11289 9674 11285 9680 C 11282 9685 11269 9690 11256 9690 C 11244 9690 11228 9696 11222 9702 C 11212 9712 11208 9712 11201 9702 C 11184 9674 11090 9692 11048 9730 C 11038 9739 11009 9747 10978 9748 C 10949 9749 10918 9752 10910 9754 C 10868 9765 10851 9773 10855 9780 C 10858 9785 10853 9795 10845 9803 C 10834 9815 10833 9820 10843 9823 C 10849 9826 10839 9829 10820 9829 C 10794 9830 10789 9833 10800 9840 C 10813 9848 10812 9850 10797 9850 C 10787 9850 10782 9855 10785 9860 C 10788 9865 10782 9870 10771 9870 C 10758 9870 10753 9876 10754 9888 C 10756 9897 10752 9908 10746 9912 C 10740 9916 10782 9920 10840 9921 C 10918 9922 10936 9924 10910 9930 C 10794 9957 10712 9960 10122 9960 C 9723 9960 9482 9964 9448 9971 C 9344 9992 9230 10046 9140 10118 C 9056 10185 8349 10895 8344 10917 C 8340 10930 8345 10955 8353 10973 C 8361 10990 8376 11034 8386 11070 C 8402 11127 8403 11177 8401 11490 C 8400 11685 8395 11861 8390 11880 C 8385 11902 8382 11817 8381 11651 C 8380 11506 8378 11389 8376 11391 C 8374 11393 8370 11501 8368 11631 C 8364 11829 8360 11870 8346 11892 C 8324 11925 8318 11960 8333 11961 C 8340 11961 8336 11965 8325 11970 C 8307 11978 8307 11979 8323 11979 C 8333 11980 8338 11985 8335 11990 C 8332 11996 8334 12000 8340 12000 C 8346 12000 8348 12005 8345 12010 C 8342 12016 8345 12020 8352 12020 C 8362 12020 8362 12022 8351 12029 C 8340 12036 8340 12039 8351 12044 C 8359 12047 8349 12049 8330 12049 C 8269 12047 8263 12049 8280 12060 C 8292 12067 8288 12070 8265 12070 C 8242 12070 8238 12073 8250 12080 C 8258 12085 8260 12090 8254 12090 C 8248 12090 8243 12100 8244 12112 C 8245 12126 8236 12139 8220 12147 C 8206 12154 8199 12160 8203 12160 C 8218 12160 8161 12210 8145 12210 C 8137 12210 8130 12215 8130 12220 C 8130 12236 8087 12232 8062 12214 C 8024 12187 8008 12202 8016 12257 C 8023 12308 8040 12340 8040 12302 C 8040 12290 8045 12280 8052 12280 C 8058 12280 8061 12283 8058 12286 C 8054 12289 8056 12305 8060 12321 C 8067 12343 8065 12352 8055 12356 C 8047 12359 8044 12368 8047 12376 C 8059 12408 8028 12387 8014 12354 z" stroke-linecap="round" />
</g>
		<g transform="matrix(0.1 0 0 0.1 334.94 -9.24)"  >
<path style="stroke: none; stroke-width: 1; stroke-dasharray: none; stroke-linecap: butt; stroke-dashoffset: 0; stroke-linejoin: miter; stroke-miterlimit: 4; fill: rgb(88,171,253); fill-rule: nonzero; opacity: 1;" vector-effect="non-scaling-stroke"  transform=" translate(-13570, -8655)" d="M 13360 8760 C 13360 8410 13360 8410 13392 8410 C 13417 8410 13434 8399 13476 8356 C 13513 8319 13539 8301 13564 8296 C 13586 8292 13600 8283 13600 8275 C 13600 8267 13609 8260 13620 8260 C 13633 8260 13640 8253 13640 8240 C 13640 8225 13647 8220 13665 8220 C 13679 8220 13690 8216 13690 8210 C 13690 8205 13710 8200 13735 8200 C 13780 8200 13780 8200 13780 8530 C 13780 8817 13778 8860 13765 8860 C 13757 8860 13750 8853 13750 8845 C 13750 8837 13746 8830 13741 8830 C 13736 8830 13729 8818 13727 8803 C 13725 8785 13722 8793 13721 8822 C 13720 8858 13717 8868 13706 8864 C 13698 8861 13689 8863 13685 8869 C 13682 8875 13687 8880 13697 8880 C 13712 8880 13712 8882 13700 8889 C 13692 8895 13682 8896 13678 8894 C 13674 8891 13670 8894 13670 8899 C 13670 8905 13661 8910 13650 8910 C 13639 8910 13630 8915 13630 8920 C 13630 8926 13621 8930 13609 8930 C 13598 8930 13592 8935 13595 8940 C 13598 8946 13593 8950 13583 8950 C 13568 8950 13567 8952 13580 8960 C 13592 8968 13590 8970 13572 8970 C 13559 8970 13552 8974 13555 8980 C 13558 8986 13554 8990 13546 8990 C 13537 8990 13530 8995 13530 9000 C 13530 9006 13523 9010 13515 9010 C 13478 9010 13421 9036 13415 9055 C 13409 9075 13409 9075 13401 9055 C 13394 9039 13392 9042 13386 9073 C 13382 9093 13375 9110 13370 9110 C 13364 9110 13360 8976 13360 8760 z" stroke-linecap="round" />
</g>
		<g transform="matrix(0.1 0 0 0.1 -110.11 211.21)"  >
<path style="stroke: none; stroke-width: 1; stroke-dasharray: none; stroke-linecap: butt; stroke-dashoffset: 0; stroke-linejoin: miter; stroke-miterlimit: 4; fill: rgb(99,184,254); fill-rule: nonzero; opacity: 1;" vector-effect="non-scaling-stroke"  transform=" translate(-9119.5, -10859.48)" d="M 8424 12096 C 8406 12088 8390 12072 8387 12059 C 8383 12046 8380 11843 8380 11608 C 8380 11340 8376 11161 8369 11128 C 8352 11045 8318 10957 8309 10972 C 8305 10979 8306 10987 8312 10991 C 8324 10999 8302 11090 8287 11090 C 8283 11090 8282 11095 8285 11100 C 8288 11106 8282 11110 8271 11110 C 8259 11110 8250 11113 8249 11118 C 8249 11122 8247 11133 8244 11143 C 8242 11152 8239 11167 8237 11175 C 8231 11204 8185 11267 8153 11291 C 8136 11304 8119 11323 8117 11333 C 8113 11345 8101 11350 8073 11351 C 8043 11351 8039 11353 8055 11360 C 8070 11366 8071 11369 8059 11369 C 8050 11370 8039 11385 8033 11408 C 8023 11445 8023 11445 8021 11415 C 8019 11389 8017 11388 8011 11405 C 8006 11416 8005 11553 8007 11710 C 8010 11876 8008 12005 8003 12019 C 7992 12046 7980 11754 7980 11473 C 7980 11313 7980 11311 7954 11280 C 7939 11263 7887 11229 7839 11204 C 7728 11149 7635 11092 7548 11028 C 7492 10987 7480 10973 7480 10950 C 7480 10934 7487 10920 7495 10916 C 7503 10913 7510 10905 7510 10899 C 7510 10893 7518 10880 7529 10871 C 7539 10862 7550 10837 7553 10815 C 7556 10793 7565 10755 7574 10730 C 7582 10705 7594 10665 7600 10641 C 7611 10598 7611 10598 7669 10602 C 7720 10606 7736 10612 7796 10657 C 7878 10717 7937 10750 7964 10750 C 7977 10750 8127 10608 8380 10357 C 8976 9764 9016 9731 9235 9659 C 9268 9648 9307 9632 9322 9624 C 9344 9612 9459 9610 10056 9610 C 10445 9610 10761 9612 10759 9614 C 10756 9617 10590 9620 10390 9622 C 9958 9625 9824 9630 9860 9640 C 9881 9647 9878 9648 9843 9649 C 9819 9650 9800 9654 9800 9659 C 9800 9665 9792 9669 9783 9669 C 9737 9671 9724 9674 9709 9692 C 9700 9702 9687 9710 9681 9710 C 9674 9710 9662 9717 9653 9725 C 9645 9734 9630 9738 9620 9735 C 9610 9732 9599 9734 9595 9740 C 9592 9745 9578 9750 9564 9750 C 9550 9750 9542 9754 9545 9760 C 9548 9766 9542 9770 9530 9770 C 9518 9770 9512 9774 9515 9780 C 9518 9786 9516 9790 9510 9790 C 9504 9790 9502 9795 9505 9800 C 9508 9806 9506 9810 9500 9810 C 9494 9810 9492 9814 9495 9820 C 9498 9826 9496 9830 9490 9830 C 9484 9830 9482 9835 9485 9840 C 9488 9846 9483 9850 9473 9850 C 9445 9850 9379 9876 9387 9883 C 9390 9887 9384 9890 9372 9890 C 9360 9890 9350 9894 9350 9899 C 9350 9904 9340 9911 9328 9913 C 9309 9917 9310 9917 9333 9919 C 9349 9919 9359 9924 9355 9930 C 9351 9936 9332 9937 9311 9934 C 9287 9930 9270 9932 9266 9939 C 9262 9945 9244 9950 9226 9950 C 9208 9950 9181 9959 9167 9970 C 9153 9981 9139 9990 9135 9990 C 9128 9990 9079 10037 9080 10045 C 9081 10066 9078 10070 9063 10070 C 9048 10070 9047 10072 9060 10080 C 9072 10088 9070 10090 9052 10090 C 9039 10090 9032 10094 9035 10100 C 9038 10106 9035 10110 9028 10111 C 9021 10112 9026 10116 9040 10120 C 9061 10127 9062 10128 9045 10129 C 9034 10130 9017 10137 9007 10144 C 8989 10158 8989 10158 9007 10163 C 9017 10165 8994 10168 8955 10168 C 8840 10168 8834 10168 8848 10182 C 8867 10201 8862 10218 8833 10228 C 8817 10234 8811 10239 8818 10239 C 8834 10240 8793 10283 8765 10294 C 8754 10298 8745 10300 8745 10299 C 8745 10298 8735 10302 8722 10309 C 8708 10316 8701 10327 8704 10336 C 8707 10344 8705 10350 8699 10350 C 8693 10350 8691 10354 8694 10358 C 8697 10363 8684 10373 8665 10380 C 8631 10393 8598 10440 8623 10440 C 8631 10440 8630 10444 8620 10450 C 8612 10455 8610 10460 8615 10460 C 8621 10461 8611 10467 8593 10475 C 8576 10482 8559 10497 8556 10507 C 8553 10518 8534 10532 8515 10540 C 8494 10548 8477 10564 8469 10582 C 8463 10597 8452 10610 8446 10611 C 8440 10611 8444 10615 8455 10620 C 8475 10629 8475 10629 8455 10629 C 8438 10630 8438 10632 8450 10640 C 8462 10648 8460 10650 8442 10650 C 8417 10650 8387 10673 8397 10684 C 8401 10687 8398 10690 8391 10690 C 8374 10690 8325 10738 8333 10746 C 8337 10750 8331 10763 8321 10774 C 8297 10800 8295 10810 8312 10821 C 8323 10828 8322 10832 8310 10840 C 8297 10849 8297 10850 8310 10850 C 8319 10850 8321 10853 8315 10858 C 8310 10862 8304 10873 8304 10882 C 8303 10896 8308 10898 8326 10894 C 8348 10888 8349 10890 8344 10919 C 8340 10936 8342 10956 8348 10963 C 8354 10970 8369 11009 8381 11050 C 8403 11123 8404 11138 8404 11588 C 8405 12052 8405 12052 8429 12071 C 8442 12081 8464 12090 8479 12090 C 8499 12090 8502 12092 8490 12100 C 8471 12113 8461 12112 8424 12096 z" stroke-linecap="round" />
</g>
		<g transform="matrix(0.1 0 0 0.1 155.33 22.73)"  >
<path style="stroke: none; stroke-width: 1; stroke-dasharray: none; stroke-linecap: butt; stroke-dashoffset: 0; stroke-linejoin: miter; stroke-miterlimit: 4; fill: rgb(99,184,254); fill-rule: nonzero; opacity: 1;" vector-effect="non-scaling-stroke"  transform=" translate(-11773.97, -8974.77)" d="M 11186 9429 C 11225 9388 11295 9312 11343 9259 C 11430 9163 11430 9163 11414 9119 C 11389 9050 11392 8892 11420 8810 C 11432 8774 11451 8729 11463 8710 C 11492 8662 11567 8583 11599 8567 C 11633 8549 11724 8499 11758 8480 C 11804 8455 11963 8454 12047 8479 C 12235 8535 12379 8703 12410 8902 C 12422 8976 12417 9050 12401 9050 C 12396 9050 12390 9006 12388 8953 C 12382 8850 12361 8776 12332 8765 C 12323 8762 12319 8762 12323 8766 C 12327 8770 12325 8779 12318 8787 C 12309 8798 12310 8800 12319 8798 C 12327 8796 12334 8803 12335 8813 C 12337 8822 12332 8830 12324 8830 C 12316 8830 12310 8835 12310 8840 C 12310 8846 12303 8850 12295 8850 C 12287 8850 12280 8855 12280 8861 C 12280 8867 12273 8870 12265 8866 C 12257 8863 12244 8868 12235 8876 C 12226 8885 12220 8887 12220 8880 C 12220 8872 12197 8870 12145 8872 C 12083 8874 12071 8878 12076 8890 C 12079 8898 12084 8922 12087 8943 C 12095 8995 12075 8990 12061 8937 C 12041 8854 11984 8810 11897 8810 C 11845 8810 11797 8839 11762 8890 C 11742 8919 11739 8934 11742 8983 C 11747 9052 11769 9086 11830 9118 C 11884 9145 11965 9148 11992 9123 C 12002 9114 12010 9112 12010 9117 C 12010 9123 11994 9135 11974 9145 C 11897 9181 11770 9141 11739 9071 C 11731 9054 11722 9040 11718 9040 C 11709 9040 11719 9067 11739 9099 C 11754 9123 11754 9123 11733 9118 C 11721 9115 11712 9116 11713 9120 C 11714 9124 11713 9127 11710 9126 C 11700 9124 11672 9155 11677 9163 C 11679 9167 11674 9170 11665 9170 C 11656 9170 11651 9174 11654 9179 C 11659 9187 11644 9197 11622 9201 C 11618 9201 11609 9206 11602 9212 C 11582 9229 11518 9224 11483 9203 C 11465 9192 11451 9181 11453 9179 C 11459 9168 11387 9243 11315 9324 C 11271 9372 11208 9433 11175 9458 C 11115 9503 11115 9503 11186 9429 z" stroke-linecap="round" />
</g>
		<g transform="matrix(0.1 0 0 0.1 29.44 -1.31)"  >
<path style="stroke: none; stroke-width: 1; stroke-dasharray: none; stroke-linecap: butt; stroke-dashoffset: 0; stroke-linejoin: miter; stroke-miterlimit: 4; fill: rgb(99,184,254); fill-rule: nonzero; opacity: 1;" vector-effect="non-scaling-stroke"  transform=" translate(-10515, -8734.27)" d="M 10280 8881 C 10280 8836 10290 8820 10316 8820 C 10329 8820 10340 8817 10340 8813 C 10340 8808 10360 8792 10385 8777 C 10410 8761 10430 8742 10430 8734 C 10430 8726 10443 8717 10460 8714 C 10482 8709 10490 8702 10490 8686 C 10490 8659 10508 8640 10532 8640 C 10543 8640 10550 8633 10550 8620 C 10550 8608 10560 8595 10575 8588 C 10589 8582 10600 8573 10600 8568 C 10600 8564 10634 8560 10675 8560 C 10748 8560 10750 8561 10750 8584 C 10750 8634 10533 8807 10384 8876 C 10293 8918 10280 8919 10280 8881 z" stroke-linecap="round" />
</g>
		<g transform="matrix(0.1 0 0 0.1 324.57 -147.59)"  >
<path style="stroke: none; stroke-width: 1; stroke-dasharray: none; stroke-linecap: butt; stroke-dashoffset: 0; stroke-linejoin: miter; stroke-miterlimit: 4; fill: rgb(99,184,254); fill-rule: nonzero; opacity: 1;" vector-effect="non-scaling-stroke"  transform=" translate(-13466.34, -7271.55)" d="M 13367 8510 C 13364 8502 13359 8135 13357 7695 C 13354 6922 13353 6892 13333 6790 C 13297 6618 13260 6501 13194 6361 C 13169 6309 13152 6260 13154 6253 C 13158 6244 13179 6240 13219 6240 C 13269 6240 13280 6237 13285 6221 C 13288 6210 13304 6195 13320 6188 C 13337 6181 13350 6169 13350 6162 C 13350 6146 13374 6120 13389 6120 C 13410 6120 13450 6076 13450 6053 C 13450 6034 13455 6030 13478 6030 C 13503 6030 13510 6039 13547 6113 C 13626 6271 13670 6392 13720 6587 C 13779 6815 13781 6859 13778 7594 C 13776 8119 13772 8264 13763 8268 C 13755 8270 13750 8263 13750 8253 C 13750 8242 13743 8233 13735 8233 C 13727 8233 13720 8237 13720 8242 C 13720 8246 13709 8250 13695 8250 C 13681 8250 13671 8253 13671 8258 C 13675 8280 13668 8290 13648 8290 C 13630 8290 13628 8292 13640 8300 C 13651 8307 13642 8312 13605 8322 C 13569 8332 13543 8348 13508 8384 C 13482 8411 13460 8437 13460 8442 C 13460 8447 13453 8450 13444 8448 C 13434 8446 13426 8453 13424 8463 C 13421 8487 13414 8494 13402 8486 C 13396 8483 13394 8471 13397 8460 C 13400 8449 13398 8440 13392 8440 C 13386 8440 13380 8459 13378 8483 C 13376 8508 13372 8519 13367 8510 z" stroke-linecap="round" />
</g>
		<g transform="matrix(0.1 0 0 0.1 73.44 -39.74)"  >
<path style="stroke: none; stroke-width: 1; stroke-dasharray: none; stroke-linecap: butt; stroke-dashoffset: 0; stroke-linejoin: miter; stroke-miterlimit: 4; fill: rgb(99,184,254); fill-rule: nonzero; opacity: 1;" vector-effect="non-scaling-stroke"  transform=" translate(-10955, -8350)" d="M 10890 8370 C 10890 8344 10895 8330 10903 8330 C 10910 8330 10923 8321 10933 8310 C 10944 8297 10962 8290 10985 8290 C 11015 8290 11020 8293 11020 8313 C 11020 8345 10952 8410 10917 8410 C 10892 8410 10890 8407 10890 8370 z" stroke-linecap="round" />
</g>
		<g transform="matrix(0.1 0 0 0.1 -198.23 356.14)"  >
<path style="stroke: none; stroke-width: 1; stroke-dasharray: none; stroke-linecap: butt; stroke-dashoffset: 0; stroke-linejoin: miter; stroke-miterlimit: 4; fill: rgb(115,200,255); fill-rule: nonzero; opacity: 1;" vector-effect="non-scaling-stroke"  transform=" translate(-8238.35, -12308.82)" d="M 8299 12581 C 8233 12571 8128 12516 8085 12469 C 8064 12446 8036 12402 8021 12371 C 7998 12320 7995 12302 7992 12170 C 7990 12090 7992 12029 7996 12033 C 8001 12037 8007 12096 8011 12163 C 8014 12230 8023 12304 8029 12327 C 8055 12421 8162 12525 8257 12549 C 8280 12555 8343 12560 8396 12560 C 8456 12560 8490 12564 8485 12569 C 8471 12582 8354 12590 8299 12581 z" stroke-linecap="round" />
</g>
		<g transform="matrix(0.1 0 0 0.1 -114.92 330.01)"  >
<path style="stroke: none; stroke-width: 1; stroke-dasharray: none; stroke-linecap: butt; stroke-dashoffset: 0; stroke-linejoin: miter; stroke-miterlimit: 4; fill: rgb(115,200,255); fill-rule: nonzero; opacity: 1;" vector-effect="non-scaling-stroke"  transform=" translate(-9071.37, -12047.59)" d="M 9014 12100 C 9234 11877 9418 11693 9423 11691 C 9448 11681 9386 11745 9015 12111 C 8615 12505 8615 12505 9014 12100 z" stroke-linecap="round" />
</g>
		<g transform="matrix(0.1 0 0 0.1 -49.38 0.75)"  >
<path style="stroke: none; stroke-width: 1; stroke-dasharray: none; stroke-linecap: butt; stroke-dashoffset: 0; stroke-linejoin: miter; stroke-miterlimit: 4; fill: rgb(115,200,255); fill-rule: nonzero; opacity: 1;" vector-effect="non-scaling-stroke"  transform=" translate(-9726.85, -8754.93)" d="M 7547 11019 C 7538 11013 7532 11005 7535 10999 C 7538 10994 7534 10993 7525 10996 C 7492 11009 7204 10735 7089 10580 C 6971 10421 6870 10247 6870 10200 C 6870 10173 6873 10170 6903 10170 C 6921 10170 6945 10163 6956 10155 C 6966 10147 6986 10140 7000 10140 C 7014 10140 7032 10131 7040 10120 C 7048 10109 7060 10100 7067 10100 C 7073 10100 7082 10091 7085 10080 C 7088 10069 7098 10060 7106 10060 C 7123 10060 7170 10016 7170 10000 C 7170 9981 7236 9989 7255 10010 C 7265 10021 7278 10030 7284 10030 C 7290 10030 7549 9777 7860 9467 C 8467 8862 8492 8840 8683 8750 C 8826 8683 8939 8648 9035 8643 C 9079 8641 9124 8635 9135 8630 C 9146 8625 9351 8619 9590 8616 C 9829 8614 10057 8607 10095 8602 C 10139 8597 10195 8579 10245 8556 C 10325 8519 10329 8516 10969 7876 C 11613 7233 11613 7233 11590 7169 C 11545 7042 11552 6899 11610 6775 C 11657 6673 11717 6609 11801 6568 C 11904 6518 11962 6500 12020 6500 C 12047 6500 12072 6495 12075 6490 C 12084 6476 12136 6478 12195 6494 C 12367 6540 12492 6655 12556 6825 C 12591 6919 12593 7055 12561 7152 C 12490 7366 12296 7510 12079 7510 C 12015 7510 11934 7499 11897 7484 C 11882 7479 11753 7603 11247 8107 C 10899 8453 10599 8747 10580 8760 C 10559 8774 10579 8748 10633 8694 C 10681 8645 10720 8602 10720 8599 C 10720 8595 10700 8592 10675 8592 C 10650 8591 10630 8594 10630 8599 C 10630 8603 10619 8612 10605 8618 C 10584 8628 10580 8637 10580 8669 C 10580 8691 10576 8712 10570 8715 C 10565 8718 10559 8716 10559 8711 C 10558 8705 10556 8696 10555 8690 C 10554 8685 10552 8677 10551 8674 C 10549 8663 10520 8692 10520 8704 C 10520 8710 10525 8708 10530 8700 C 10538 8688 10540 8689 10540 8708 C 10540 8731 10536 8734 10487 8744 C 10464 8750 10460 8754 10466 8772 C 10470 8786 10468 8790 10461 8786 C 10455 8782 10450 8784 10450 8791 C 10450 8798 10447 8800 10444 8797 C 10437 8791 10381 8825 10369 8843 C 10366 8847 10354 8852 10342 8853 C 10330 8853 10319 8859 10316 8865 C 10314 8871 10327 8874 10351 8872 C 10373 8870 10390 8870 10390 8873 C 10390 8883 10222 8939 10125 8960 C 10034 8980 9986 8983 9565 8990 C 9137 8997 9100 8999 9030 9019 C 8891 9059 8767 9118 8670 9190 C 8634 9217 8355 9489 8050 9794 C 7411 10434 7461 10350 7624 10508 C 7779 10658 7914 10750 7980 10750 C 8006 10750 8011 10753 8000 10760 C 7964 10783 7922 10770 7825 10705 C 7771 10669 7724 10640 7720 10640 C 7716 10640 7710 10649 7707 10660 C 7704 10671 7694 10680 7685 10680 C 7676 10680 7672 10676 7675 10670 C 7678 10665 7676 10660 7669 10660 C 7661 10660 7661 10656 7670 10645 C 7680 10632 7679 10630 7661 10630 C 7650 10630 7640 10635 7640 10640 C 7640 10658 7638 10665 7629 10683 C 7622 10695 7623 10700 7631 10700 C 7638 10700 7636 10708 7625 10720 C 7615 10731 7612 10740 7618 10740 C 7624 10740 7618 10756 7605 10776 C 7574 10821 7574 10829 7603 10823 C 7616 10820 7620 10822 7613 10827 C 7607 10831 7600 10842 7598 10850 C 7596 10858 7583 10876 7569 10890 C 7555 10904 7540 10926 7536 10938 C 7532 10950 7524 10958 7519 10955 C 7514 10951 7510 10954 7510 10959 C 7510 10965 7517 10970 7525 10970 C 7533 10970 7540 10974 7540 10980 C 7540 10985 7550 10998 7562 11010 C 7585 11031 7577 11036 7547 11019 z M 12184 7118 C 12246 7046 12253 6973 12205 6899 C 12161 6831 12045 6810 11981 6858 C 11967 6868 11944 6892 11932 6911 C 11899 6958 11904 7056 11940 7096 C 11985 7145 12020 7160 12087 7160 C 12147 7160 12149 7159 12184 7118 z" stroke-linecap="round" />
</g>
		<g transform="matrix(0.1 0 0 0.1 318.51 30.47)"  >
<path style="stroke: none; stroke-width: 1; stroke-dasharray: none; stroke-linecap: butt; stroke-dashoffset: 0; stroke-linejoin: miter; stroke-miterlimit: 4; fill: rgb(115,200,255); fill-rule: nonzero; opacity: 1;" vector-effect="non-scaling-stroke"  transform=" translate(-13405.67, -9052.09)" d="M 13116 10780 C 13340 10548 13502 10305 13605 10045 C 13620 10007 13636 9966 13641 9955 C 13650 9934 13700 9758 13719 9680 C 13747 9564 13750 9445 13750 8354 C 13750 7362 13752 7230 13765 7230 C 13788 7230 13788 9373 13765 9535 C 13737 9731 13691 9895 13611 10085 C 13560 10205 13435 10430 13419 10430 C 13414 10430 13410 10437 13410 10445 C 13410 10453 13406 10460 13400 10460 C 13395 10460 13390 10467 13390 10475 C 13390 10483 13387 10490 13382 10490 C 13378 10490 13366 10506 13355 10526 C 13345 10545 13328 10566 13318 10571 C 13308 10576 13300 10587 13300 10595 C 13300 10603 13291 10614 13280 10620 C 13269 10626 13260 10634 13260 10638 C 13260 10648 13105 10808 13040 10866 C 13010 10892 13044 10854 13116 10780 z" stroke-linecap="round" />
</g>
		<g transform="matrix(0.1 0 0 0.1 286.03 -293.21)"  >
<path style="stroke: none; stroke-width: 1; stroke-dasharray: none; stroke-linecap: butt; stroke-dashoffset: 0; stroke-linejoin: miter; stroke-miterlimit: 4; fill: rgb(115,200,255); fill-rule: nonzero; opacity: 1;" vector-effect="non-scaling-stroke"  transform=" translate(-13080.95, -5815.26)" d="M 13121 6221 C 13007 6023 12843 5837 12661 5699 C 12630 5676 12628 5671 12634 5637 C 12642 5597 12674 5560 12701 5560 C 12711 5560 12722 5551 12725 5540 C 12729 5529 12740 5520 12752 5520 C 12784 5520 12807 5485 12819 5416 C 12825 5382 12830 5346 12830 5337 C 12830 5325 12839 5320 12861 5320 C 12885 5320 12911 5337 12978 5394 C 13196 5579 13405 5833 13509 6037 C 13540 6099 13537 6123 13504 6085 C 13477 6055 13477 6055 13482 6082 C 13486 6102 13482 6111 13463 6121 C 13451 6128 13440 6137 13440 6142 C 13440 6146 13430 6150 13418 6150 C 13399 6150 13398 6152 13410 6160 C 13422 6168 13421 6170 13403 6170 C 13390 6170 13381 6173 13381 6178 C 13384 6197 13379 6210 13367 6210 C 13348 6210 13308 6249 13315 6261 C 13319 6266 13298 6271 13268 6272 C 13186 6274 13185 6274 13188 6293 C 13195 6332 13170 6305 13121 6221 z" stroke-linecap="round" />
</g>
		<g transform="matrix(0.1 0 0 0.1 -319.23 124.8)"  >
<path style="stroke: none; stroke-width: 1; stroke-dasharray: none; stroke-linecap: butt; stroke-dashoffset: 0; stroke-linejoin: miter; stroke-miterlimit: 4; fill: rgb(127,212,255); fill-rule: nonzero; opacity: 1;" vector-effect="non-scaling-stroke"  transform=" translate(-7028.36, -9995.4)" d="M 6922 10326 C 6892 10276 6817 10116 6786 10037 C 6755 9960 6741 9870 6759 9870 C 6765 9870 6770 9863 6770 9855 C 6770 9847 6774 9840 6778 9840 C 6783 9840 6795 9822 6805 9800 C 6815 9778 6827 9760 6833 9760 C 6838 9760 6855 9747 6870 9730 C 6885 9714 6903 9700 6909 9700 C 6915 9700 6920 9696 6920 9690 C 6920 9685 6927 9680 6935 9680 C 6943 9680 6950 9676 6950 9672 C 6950 9661 7007 9641 7062 9634 C 7108 9628 7109 9628 7115 9656 C 7144 9782 7214 9965 7248 10004 C 7257 10014 7275 10026 7288 10031 C 7301 10036 7308 10044 7305 10050 C 7298 10062 7249 10052 7235 10036 C 7221 10021 7200 10017 7200 10030 C 7200 10047 7152 10090 7134 10090 C 7124 10090 7119 10093 7123 10096 C 7131 10104 7105 10130 7090 10130 C 7084 10130 7082 10135 7085 10140 C 7088 10146 7084 10150 7076 10150 C 7067 10150 7060 10155 7060 10160 C 7060 10166 7048 10170 7034 10170 C 7009 10170 6953 10202 6938 10224 C 6933 10231 6925 10227 6916 10215 C 6893 10185 6897 10202 6924 10257 C 6965 10337 6972 10360 6956 10360 C 6948 10360 6933 10345 6922 10326 z" stroke-linecap="round" />
</g>
		<g transform="matrix(0.1 0 0 0.1 354.42 -139.24)"  >
<path style="stroke: none; stroke-width: 1; stroke-dasharray: none; stroke-linecap: butt; stroke-dashoffset: 0; stroke-linejoin: miter; stroke-miterlimit: 4; fill: rgb(127,212,255); fill-rule: nonzero; opacity: 1;" vector-effect="non-scaling-stroke"  transform=" translate(-13764.87, -7355)" d="M 13750 7355 C 13750 7115 13752 7090 13767 7090 C 13781 7090 13782 7103 13777 7218 C 13773 7288 13770 7407 13770 7483 C 13770 7567 13766 7620 13760 7620 C 13754 7620 13750 7525 13750 7355 z" stroke-linecap="round" />
</g>
		<g transform="matrix(0.1 0 0 0.1 224.95 -336.79)"  >
<path style="stroke: none; stroke-width: 1; stroke-dasharray: none; stroke-linecap: butt; stroke-dashoffset: 0; stroke-linejoin: miter; stroke-miterlimit: 4; fill: rgb(127,212,255); fill-rule: nonzero; opacity: 1;" vector-effect="non-scaling-stroke"  transform=" translate(-12470.12, -5379.49)" d="M 12585 5649 C 12433 5547 12260 5471 12053 5414 C 11993 5398 11990 5396 11990 5366 C 11990 5332 12045 5260 12072 5260 C 12079 5260 12092 5251 12100 5240 C 12108 5229 12120 5220 12127 5220 C 12133 5220 12142 5211 12145 5200 C 12148 5189 12156 5180 12161 5180 C 12166 5180 12170 5171 12170 5160 C 12170 5149 12177 5140 12185 5140 C 12193 5140 12200 5136 12200 5130 C 12200 5125 12207 5120 12215 5120 C 12223 5120 12230 5116 12230 5110 C 12230 5105 12245 5100 12263 5100 C 12314 5100 12340 5089 12340 5069 C 12340 5038 12394 5045 12485 5087 C 12698 5187 12971 5362 12949 5385 C 12946 5387 12927 5381 12907 5370 C 12861 5345 12862 5345 12862 5373 C 12861 5398 12854 5444 12845 5480 C 12841 5494 12838 5511 12838 5518 C 12837 5524 12830 5530 12821 5530 C 12807 5530 12807 5532 12820 5540 C 12831 5547 12825 5550 12795 5550 C 12765 5550 12759 5553 12770 5560 C 12783 5568 12782 5570 12768 5570 C 12758 5570 12750 5575 12750 5580 C 12750 5586 12742 5590 12733 5590 C 12711 5591 12678 5615 12687 5623 C 12690 5627 12688 5630 12681 5630 C 12674 5630 12672 5635 12676 5641 C 12679 5647 12677 5655 12671 5659 C 12664 5664 12666 5673 12680 5688 C 12717 5727 12678 5711 12585 5649 z" stroke-linecap="round" />
</g>
		<g transform="matrix(0.1 0 0 0.1 -33.06 -381.74)"  >
<path style="stroke: none; stroke-width: 1; stroke-dasharray: none; stroke-linecap: butt; stroke-dashoffset: 0; stroke-linejoin: miter; stroke-miterlimit: 4; fill: rgb(127,212,255); fill-rule: nonzero; opacity: 1;" vector-effect="non-scaling-stroke"  transform=" translate(-9890, -4930)" d="M 9450 4936 C 9450 4929 9460 4920 9473 4916 C 9485 4913 9683 4910 9913 4910 C 10323 4910 10330 4910 10330 4930 C 10330 4950 10323 4950 9890 4950 C 9522 4950 9450 4948 9450 4936 z" stroke-linecap="round" />
</g>
		<g transform="matrix(0.1 0 0 0.1 47.94 -381.74)"  >
<path style="stroke: none; stroke-width: 1; stroke-dasharray: none; stroke-linecap: butt; stroke-dashoffset: 0; stroke-linejoin: miter; stroke-miterlimit: 4; fill: rgb(127,212,255); fill-rule: nonzero; opacity: 1;" vector-effect="non-scaling-stroke"  transform=" translate(-10700, -4930)" d="M 10510 4930 C 10510 4911 10517 4910 10700 4910 C 10883 4910 10890 4911 10890 4930 C 10890 4949 10883 4950 10700 4950 C 10517 4950 10510 4949 10510 4930 z" stroke-linecap="round" />
</g>
		<g transform="matrix(0.1 0 0 0.1 81.44 -381.74)"  >
<path style="stroke: none; stroke-width: 1; stroke-dasharray: none; stroke-linecap: butt; stroke-dashoffset: 0; stroke-linejoin: miter; stroke-miterlimit: 4; fill: rgb(127,212,255); fill-rule: nonzero; opacity: 1;" vector-effect="non-scaling-stroke"  transform=" translate(-11035, -4930)" d="M 10900 4930 C 10900 4911 10907 4910 11035 4910 C 11163 4910 11170 4911 11170 4930 C 11170 4949 11163 4950 11035 4950 C 10907 4950 10900 4949 10900 4930 z" stroke-linecap="round" />
</g>
		<g transform="matrix(0.1 0 0 0.1 85.9 266.65)"  >
<path style="stroke: none; stroke-width: 1; stroke-dasharray: none; stroke-linecap: butt; stroke-dashoffset: 0; stroke-linejoin: miter; stroke-miterlimit: 4; fill: rgb(136,220,255); fill-rule: nonzero; opacity: 1;" vector-effect="non-scaling-stroke"  transform=" translate(-11079.73, -11413.92)" d="M 10650 11420 C 10568 11411 10644 11400 10795 11400 C 11113 11400 11585 11414 11540 11422 C 11494 11431 10730 11429 10650 11420 z" stroke-linecap="round" />
</g>
		<g transform="matrix(0.1 0 0 0.1 -139.1 -49.81)"  >
<path style="stroke: none; stroke-width: 1; stroke-dasharray: none; stroke-linecap: butt; stroke-dashoffset: 0; stroke-linejoin: miter; stroke-miterlimit: 4; fill: rgb(136,220,255); fill-rule: nonzero; opacity: 1;" vector-effect="non-scaling-stroke"  transform=" translate(-8829.63, -8249.34)" d="M 6751 9933 C 6706 9822 6660 9559 6660 9410 C 6660 9300 6660 9300 6694 9300 C 6728 9300 6729 9301 6732 9341 C 6735 9383 6735 9383 6778 9341 C 6801 9319 6825 9300 6831 9300 C 6846 9300 6890 9249 6890 9233 C 6890 9226 6894 9220 6899 9220 C 6904 9220 6912 9211 6915 9200 C 6918 9189 6927 9180 6934 9180 C 6942 9180 6953 9167 6960 9150 C 6967 9134 6976 9120 6981 9120 C 6985 9120 6991 9112 6995 9101 C 7003 9076 7035 9040 7049 9040 C 7055 9040 7060 9036 7060 9030 C 7060 9025 7065 9020 7070 9020 C 7089 9020 7150 8951 7150 8930 C 7150 8904 7165 8888 7208 8869 C 7225 8862 7240 8852 7240 8848 C 7240 8843 7245 8840 7251 8840 C 7257 8840 7288 8813 7321 8780 C 7353 8747 7387 8720 7395 8720 C 7403 8720 7410 8716 7410 8710 C 7410 8705 7423 8700 7438 8700 C 7459 8700 7470 8693 7478 8675 C 7485 8661 7490 8645 7490 8639 C 7490 8626 7536 8580 7550 8580 C 7555 8580 7560 8576 7560 8572 C 7560 8567 7571 8558 7584 8551 C 7607 8538 7640 8482 7640 8455 C 7640 8447 7647 8440 7655 8440 C 7664 8440 7679 8427 7688 8410 C 7697 8394 7715 8375 7727 8369 C 7743 8361 7750 8347 7750 8328 C 7750 8305 7754 8300 7775 8300 C 7793 8300 7800 8295 7800 8280 C 7800 8267 7807 8260 7820 8260 C 7831 8260 7840 8256 7840 8252 C 7840 8236 7877 8200 7894 8200 C 7903 8200 7910 8196 7910 8190 C 7910 8185 7916 8180 7924 8180 C 7932 8180 7942 8171 7945 8160 C 7948 8149 7960 8140 7971 8140 C 7981 8140 7990 8136 7990 8130 C 7990 8125 7997 8120 8005 8120 C 8013 8120 8020 8116 8020 8110 C 8020 8105 8035 8100 8053 8100 C 8074 8100 8091 8093 8100 8080 C 8108 8069 8120 8060 8127 8060 C 8133 8060 8142 8051 8145 8040 C 8149 8027 8160 8020 8176 8020 C 8189 8020 8200 8016 8200 8010 C 8200 8005 8207 8000 8215 8000 C 8223 8000 8230 7996 8230 7990 C 8230 7985 8248 7980 8269 7980 C 8300 7980 8310 7976 8315 7960 C 8319 7948 8330 7940 8343 7940 C 8356 7940 8372 7931 8380 7920 C 8388 7909 8402 7900 8412 7900 C 8422 7900 8438 7896 8448 7891 C 8457 7886 8479 7876 8495 7869 C 8512 7861 8532 7847 8541 7838 C 8550 7828 8565 7820 8574 7820 C 8583 7820 8590 7816 8590 7811 C 8590 7806 8597 7794 8606 7786 C 8620 7771 8619 7770 8596 7770 C 8573 7770 8570 7766 8570 7735 C 8570 7700 8570 7700 8833 7700 C 9051 7700 9102 7697 9128 7685 C 9145 7676 9183 7665 9212 7660 C 9313 7643 9374 7602 9541 7438 C 9627 7354 9725 7253 9761 7215 C 9869 7096 9879 7092 10038 7085 C 10079 7084 10117 7077 10123 7071 C 10130 7064 10179 7060 10257 7060 C 10332 7060 10380 7056 10380 7050 C 10380 7045 10391 7040 10405 7040 C 10419 7040 10430 7036 10430 7030 C 10430 7025 10441 7020 10454 7020 C 10468 7020 10482 7016 10485 7010 C 10488 7005 10500 7000 10510 7000 C 10520 7000 10531 6992 10534 6982 C 10538 6971 10552 6957 10565 6950 C 10579 6943 10590 6933 10590 6928 C 10590 6924 10608 6920 10630 6920 C 10675 6920 10699 6902 10721 6852 C 10729 6834 10742 6820 10750 6820 C 10759 6820 10772 6811 10780 6800 C 10788 6789 10799 6780 10805 6779 C 10810 6779 10834 6754 10858 6724 C 10898 6673 10900 6667 10900 6605 C 10900 6540 10900 6540 10934 6540 C 10968 6540 10968 6540 10984 6609 C 11004 6694 11004 6736 10986 6821 C 10946 7009 10797 7167 10615 7215 C 10540 7234 10418 7234 10354 7215 C 10268 7189 10275 7185 10160 7324 C 9841 7710 9668 7868 9456 7970 C 9289 8050 9276 8052 8850 8060 C 8644 8065 8459 8072 8439 8078 C 8384 8092 8292 8137 8257 8166 C 8239 8180 7969 8447 7657 8758 C 7088 9325 7088 9325 7093 9455 C 7096 9527 7103 9606 7110 9632 C 7119 9665 7119 9683 7111 9697 C 7101 9714 7101 9714 7100 9694 C 7100 9665 7090 9658 7073 9675 C 7057 9692 7040 9695 7040 9681 C 7040 9676 7027 9677 7010 9683 C 6994 9689 6980 9698 6980 9702 C 6980 9706 6973 9710 6964 9710 C 6956 9710 6952 9715 6955 9720 C 6958 9726 6952 9730 6940 9730 C 6928 9730 6922 9735 6925 9740 C 6928 9746 6923 9750 6913 9751 C 6900 9752 6902 9754 6920 9760 C 6943 9767 6942 9768 6910 9770 C 6881 9771 6878 9773 6895 9780 C 6912 9787 6909 9789 6880 9790 C 6851 9791 6848 9793 6865 9800 C 6884 9808 6883 9809 6861 9809 C 6848 9810 6839 9813 6843 9816 C 6846 9820 6844 9828 6837 9836 C 6804 9873 6801 9879 6810 9885 C 6825 9894 6822 9930 6806 9930 C 6798 9930 6789 9922 6787 9913 C 6784 9903 6782 9910 6781 9928 C 6780 9967 6766 9969 6751 9933 z" stroke-linecap="round" />
</g>
		<g transform="matrix(0.1 0 0 0.1 154.41 -358.78)"  >
<path style="stroke: none; stroke-width: 1; stroke-dasharray: none; stroke-linecap: butt; stroke-dashoffset: 0; stroke-linejoin: miter; stroke-miterlimit: 4; fill: rgb(136,220,255); fill-rule: nonzero; opacity: 1;" vector-effect="non-scaling-stroke"  transform=" translate(-11764.69, -5159.7)" d="M 11955 5394 C 11917 5387 11823 5377 11747 5374 C 11609 5367 11609 5367 11612 5331 C 11614 5301 11619 5295 11640 5292 C 11706 5285 11710 5282 11710 5240 C 11710 5218 11714 5200 11718 5200 C 11723 5200 11733 5178 11740 5150 C 11748 5122 11759 5100 11767 5100 C 11774 5100 11780 5091 11780 5081 C 11780 5070 11787 5055 11795 5046 C 11817 5024 11813 5001 11785 4994 C 11769 4990 11760 4981 11760 4969 C 11760 4951 11747 4950 11435 4950 C 11157 4950 11110 4948 11110 4935 C 11110 4910 11171 4907 11519 4913 C 11889 4919 11989 4930 12210 4989 C 12364 5030 12467 5080 12397 5080 C 12377 5080 12373 5084 12377 5099 C 12381 5115 12374 5119 12338 5126 C 12315 5131 12287 5134 12278 5132 C 12268 5131 12260 5135 12260 5140 C 12260 5146 12253 5150 12245 5150 C 12237 5150 12230 5155 12230 5160 C 12230 5166 12223 5170 12214 5170 C 12206 5170 12201 5174 12204 5179 C 12207 5183 12201 5198 12190 5210 C 12179 5222 12173 5237 12176 5241 C 12179 5246 12173 5250 12163 5250 C 12153 5250 12138 5259 12130 5270 C 12122 5281 12106 5290 12095 5290 C 12079 5290 12078 5292 12090 5300 C 12103 5308 12102 5310 12087 5310 C 12065 5310 12031 5340 12052 5341 C 12059 5341 12055 5345 12043 5350 C 12017 5361 12013 5375 12035 5384 C 12053 5391 12055 5410 12038 5409 C 12031 5408 11994 5402 11955 5394 z" stroke-linecap="round" />
</g>
		<g transform="matrix(0.1 0 0 0.1 19.94 -381.74)"  >
<path style="stroke: none; stroke-width: 1; stroke-dasharray: none; stroke-linecap: butt; stroke-dashoffset: 0; stroke-linejoin: miter; stroke-miterlimit: 4; fill: rgb(136,220,255); fill-rule: nonzero; opacity: 1;" vector-effect="non-scaling-stroke"  transform=" translate(-10420, -4930)" d="M 10270 4936 C 10270 4916 10303 4910 10420 4910 C 10537 4910 10570 4916 10570 4936 C 10570 4947 10541 4950 10420 4950 C 10299 4950 10270 4947 10270 4936 z" stroke-linecap="round" />
</g>
		<g transform="matrix(0.1 0 0 0.1 -251.39 -15.67)"  >
<path style="stroke: none; stroke-width: 1; stroke-dasharray: none; stroke-linecap: butt; stroke-dashoffset: 0; stroke-linejoin: miter; stroke-miterlimit: 4; fill: rgb(148,230,255); fill-rule: nonzero; opacity: 1;" vector-effect="non-scaling-stroke"  transform=" translate(-7706.75, -8590.77)" d="M 6666 9458 C 6663 9445 6660 9270 6660 9068 C 6660 8700 6660 8700 6689 8700 C 6713 8700 6718 8705 6724 8731 C 6730 8761 6730 8761 6752 8741 C 6764 8729 6786 8714 6802 8708 C 6818 8701 6833 8687 6836 8678 C 6839 8668 6847 8660 6853 8660 C 6860 8660 6872 8651 6880 8640 C 6888 8629 6900 8620 6907 8620 C 6913 8620 6922 8611 6925 8600 C 6928 8589 6937 8580 6943 8580 C 6963 8579 7000 8510 7007 8464 C 7013 8421 7013 8420 7051 8420 C 7090 8420 7090 8420 7090 8600 C 7090 8732 7093 8780 7102 8780 C 7108 8780 7307 8587 7544 8352 C 7951 7948 8016 7890 8144 7814 C 8200 7781 8321 7735 8383 7724 C 8403 7721 8423 7714 8426 7709 C 8432 7698 8569 7699 8690 7709 C 8775 7717 8775 7717 8688 7718 C 8587 7720 8566 7739 8663 7741 C 8697 7742 8729 7742 8734 7741 C 8739 7740 8738 7746 8730 7754 C 8723 7763 8713 7770 8707 7770 C 8702 7770 8691 7778 8684 7788 C 8677 7797 8667 7806 8661 7806 C 8655 7807 8645 7808 8638 7809 C 8632 7809 8629 7813 8633 7816 C 8641 7824 8615 7850 8599 7850 C 8593 7850 8580 7858 8571 7868 C 8562 7877 8542 7891 8525 7899 C 8509 7906 8487 7916 8478 7921 C 8468 7926 8452 7930 8442 7930 C 8432 7930 8418 7939 8410 7950 C 8402 7961 8384 7970 8370 7971 C 8345 7972 8345 7972 8370 7980 C 8395 7987 8395 7987 8365 7992 C 8335 7997 8335 7997 8369 7999 C 8388 7999 8400 8003 8397 8007 C 8393 8010 8361 8012 8325 8011 C 8284 8009 8260 8013 8260 8019 C 8260 8025 8253 8030 8244 8030 C 8236 8030 8232 8035 8235 8040 C 8239 8046 8228 8050 8208 8050 C 8183 8050 8179 8053 8190 8060 C 8202 8068 8202 8070 8185 8071 C 8165 8071 8165 8071 8185 8080 C 8203 8088 8202 8089 8177 8089 C 8149 8090 8116 8112 8126 8123 C 8134 8131 8072 8142 8060 8135 C 8055 8132 8050 8134 8050 8139 C 8050 8145 8043 8150 8035 8150 C 8027 8150 8020 8155 8020 8160 C 8020 8166 8011 8170 7999 8170 C 7988 8170 7982 8175 7985 8180 C 7988 8186 7985 8190 7978 8190 C 7969 8190 7969 8193 7980 8200 C 7992 8208 7988 8210 7965 8211 C 7936 8212 7935 8212 7960 8220 C 7985 8228 7985 8228 7955 8230 C 7939 8231 7919 8232 7911 8231 C 7904 8229 7901 8233 7905 8239 C 7908 8245 7904 8250 7894 8250 C 7884 8250 7879 8253 7883 8256 C 7892 8265 7864 8290 7843 8291 C 7830 8292 7832 8294 7850 8300 C 7875 8308 7875 8308 7850 8310 C 7827 8311 7827 8312 7845 8320 C 7861 8327 7855 8329 7820 8331 C 7775 8333 7775 8333 7810 8340 C 7845 8347 7845 8347 7812 8349 C 7794 8349 7781 8354 7785 8359 C 7791 8370 7752 8410 7736 8410 C 7731 8410 7729 8413 7733 8416 C 7741 8424 7709 8460 7685 8470 C 7667 8478 7667 8479 7690 8480 C 7715 8480 7715 8480 7690 8493 C 7676 8501 7666 8512 7667 8518 C 7669 8525 7665 8530 7659 8530 C 7654 8530 7652 8535 7655 8540 C 7658 8546 7656 8550 7650 8550 C 7644 8550 7641 8554 7644 8558 C 7646 8562 7635 8572 7619 8579 C 7603 8586 7592 8596 7596 8601 C 7599 8606 7591 8610 7578 8610 C 7560 8610 7558 8612 7570 8620 C 7583 8628 7582 8630 7567 8630 C 7543 8630 7523 8651 7526 8673 C 7527 8682 7524 8690 7519 8690 C 7513 8690 7512 8695 7515 8700 C 7518 8706 7516 8710 7510 8710 C 7504 8710 7502 8715 7505 8720 C 7509 8726 7496 8730 7473 8730 C 7445 8730 7439 8733 7450 8740 C 7461 8747 7457 8750 7432 8750 C 7412 8750 7401 8754 7405 8760 C 7408 8766 7403 8770 7393 8770 C 7378 8770 7377 8772 7390 8780 C 7403 8789 7403 8790 7390 8790 C 7371 8790 7318 8835 7327 8844 C 7330 8847 7326 8850 7317 8850 C 7308 8850 7300 8855 7300 8860 C 7300 8866 7293 8870 7285 8870 C 7277 8870 7270 8874 7270 8878 C 7270 8883 7254 8892 7235 8900 C 7216 8907 7203 8917 7206 8922 C 7209 8926 7205 8930 7198 8930 C 7190 8930 7183 8942 7182 8956 C 7181 8971 7171 8991 7160 9000 C 7145 9013 7143 9019 7152 9023 C 7159 9026 7155 9029 7142 9029 C 7129 9030 7122 9034 7125 9040 C 7128 9046 7122 9050 7111 9050 C 7099 9050 7090 9055 7090 9060 C 7090 9066 7085 9070 7079 9070 C 7064 9070 7040 9096 7047 9104 C 7051 9107 7048 9110 7041 9110 C 7034 9110 7032 9115 7035 9120 C 7038 9126 7036 9130 7030 9130 C 7024 9130 7022 9135 7025 9140 C 7028 9146 7023 9150 7013 9150 C 6998 9150 6997 9152 7010 9160 C 7022 9168 7022 9170 7005 9170 C 6988 9170 6988 9172 7000 9180 C 7013 9188 7012 9190 6997 9190 C 6987 9190 6982 9195 6985 9200 C 6988 9206 6981 9210 6969 9210 C 6957 9210 6950 9213 6953 9216 C 6957 9220 6950 9231 6938 9241 C 6927 9252 6922 9260 6928 9260 C 6934 9260 6923 9276 6904 9295 C 6886 9314 6866 9330 6860 9330 C 6854 9330 6823 9356 6791 9388 C 6759 9419 6726 9445 6719 9445 C 6709 9445 6703 9427 6699 9385 C 6693 9325 6693 9325 6692 9403 C 6690 9478 6678 9503 6666 9458 z" stroke-linecap="round" />
</g>
		<g transform="matrix(0.1 0 0 0.1 314.93 13.29)"  >
<path style="stroke: none; stroke-width: 1; stroke-dasharray: none; stroke-linecap: butt; stroke-dashoffset: 0; stroke-linejoin: miter; stroke-miterlimit: 4; fill: rgb(148,230,255); fill-rule: nonzero; opacity: 1;" vector-effect="non-scaling-stroke"  transform=" translate(-13369.91, -8880.35)" d="M 13361 8893 C 13360 8590 13363 8430 13370 8430 C 13382 8430 13382 9292 13370 9330 C 13366 9344 13362 9147 13361 8893 z" stroke-linecap="round" />
</g>
		<g transform="matrix(0.1 0 0 0.1 15.19 -199.6)"  >
<path style="stroke: none; stroke-width: 1; stroke-dasharray: none; stroke-linecap: butt; stroke-dashoffset: 0; stroke-linejoin: miter; stroke-miterlimit: 4; fill: rgb(148,230,255); fill-rule: nonzero; opacity: 1;" vector-effect="non-scaling-stroke"  transform=" translate(-10372.49, -6751.38)" d="M 9770 7210 C 9770 7203 9822 7136 9885 7060 C 10000 6922 10000 6921 9994 6880 C 9987 6838 9987 6838 10031 6844 C 10110 6856 10210 6847 10210 6829 C 10210 6824 10217 6820 10225 6820 C 10233 6820 10240 6816 10240 6810 C 10240 6805 10260 6800 10285 6800 C 10317 6800 10336 6806 10350 6820 C 10394 6864 10433 6880 10497 6880 C 10560 6880 10560 6880 10600 6829 C 10636 6783 10640 6773 10640 6721 C 10640 6677 10634 6655 10618 6630 C 10579 6573 10549 6558 10466 6552 C 10390 6547 10390 6547 10390 6514 C 10390 6483 10392 6481 10435 6474 C 10493 6466 10610 6478 10610 6493 C 10610 6501 10614 6500 10622 6492 C 10629 6485 10640 6480 10648 6480 C 10667 6480 10699 6443 10707 6411 C 10710 6397 10718 6381 10724 6377 C 10732 6371 10731 6367 10723 6363 C 10716 6361 10710 6343 10710 6324 C 10710 6292 10712 6290 10743 6290 C 10828 6290 10995 6521 10973 6608 C 10966 6635 10966 6635 10958 6603 C 10945 6552 10935 6564 10932 6636 C 10930 6695 10926 6706 10887 6755 C 10864 6784 10840 6809 10835 6809 C 10829 6810 10818 6819 10810 6830 C 10802 6841 10786 6850 10775 6851 C 10764 6851 10760 6854 10767 6856 C 10774 6859 10770 6870 10755 6887 C 10743 6901 10725 6921 10716 6931 C 10705 6944 10687 6950 10659 6950 C 10637 6950 10621 6954 10624 6958 C 10626 6962 10615 6972 10599 6979 C 10582 6986 10571 6994 10574 6997 C 10582 7005 10553 7030 10536 7030 C 10528 7030 10518 7035 10515 7040 C 10512 7046 10498 7050 10484 7050 C 10471 7050 10460 7055 10460 7060 C 10460 7066 10449 7070 10435 7070 C 10421 7070 10410 7075 10410 7080 C 10410 7086 10398 7090 10383 7091 C 10358 7091 10357 7092 10375 7100 C 10393 7108 10392 7109 10368 7109 C 10352 7110 10340 7106 10340 7100 C 10340 7083 10169 7094 10127 7114 C 10094 7130 10084 7131 10051 7120 C 10023 7111 10008 7111 9992 7119 C 9981 7125 9954 7130 9933 7130 C 9905 7130 9899 7133 9910 7140 C 9922 7148 9921 7150 9904 7150 C 9893 7150 9875 7159 9865 7170 C 9855 7181 9843 7187 9839 7184 C 9834 7181 9816 7188 9800 7200 C 9783 7212 9770 7216 9770 7210 z" stroke-linecap="round" />
</g>
		<g transform="matrix(0.1 0 0 0.1 117.94 -360.17)"  >
<path style="stroke: none; stroke-width: 1; stroke-dasharray: none; stroke-linecap: butt; stroke-dashoffset: 0; stroke-linejoin: miter; stroke-miterlimit: 4; fill: rgb(148,230,255); fill-rule: nonzero; opacity: 1;" vector-effect="non-scaling-stroke"  transform=" translate(-11400, -5145.72)" d="M 10890 5337 C 10890 5300 10905 5280 10932 5280 C 10942 5280 10950 5273 10950 5265 C 10950 5256 10961 5238 10975 5224 C 10989 5210 11000 5195 11000 5190 C 11000 5184 11006 5180 11013 5180 C 11020 5180 11037 5162 11050 5140 C 11064 5118 11078 5100 11083 5100 C 11087 5100 11090 5093 11090 5084 C 11090 5075 11104 5055 11120 5040 C 11141 5020 11150 5003 11150 4980 C 11150 4918 11146 4919 11507 4923 C 11822 4927 11910 4933 11910 4950 C 11910 4955 11882 4956 11848 4954 C 11803 4951 11791 4952 11805 4959 C 11816 4964 11837 4969 11853 4969 C 11883 4970 11891 4995 11862 5002 C 11851 5005 11844 5018 11842 5036 C 11841 5052 11835 5067 11830 5068 C 11824 5070 11822 5076 11826 5081 C 11829 5086 11825 5090 11818 5090 C 11809 5090 11809 5093 11820 5100 C 11831 5107 11831 5110 11822 5110 C 11815 5110 11812 5114 11815 5120 C 11818 5126 11813 5130 11802 5130 C 11792 5130 11783 5137 11782 5145 C 11781 5153 11779 5167 11778 5175 C 11777 5183 11773 5190 11768 5190 C 11764 5190 11760 5199 11760 5210 C 11760 5221 11754 5230 11748 5230 C 11739 5230 11740 5234 11750 5240 C 11758 5245 11760 5250 11754 5250 C 11748 5250 11743 5257 11743 5265 C 11743 5273 11748 5280 11753 5280 C 11759 5280 11753 5289 11740 5300 C 11727 5311 11703 5320 11684 5320 C 11624 5320 11636 5340 11697 5342 C 11737 5343 11744 5345 11720 5347 C 11701 5350 11681 5356 11676 5361 C 11670 5366 11503 5370 11278 5370 C 10890 5370 10890 5370 10890 5337 z" stroke-linecap="round" />
</g>
		<g transform="matrix(0.1 0 0 0.1 -334.56 -35.74)"  >
<path style="stroke: none; stroke-width: 1; stroke-dasharray: none; stroke-linecap: butt; stroke-dashoffset: 0; stroke-linejoin: miter; stroke-miterlimit: 4; fill: rgb(160,239,255); fill-rule: nonzero; opacity: 1;" vector-effect="non-scaling-stroke"  transform=" translate(-6875, -8390)" d="M 6660 8550 C 6660 8260 6660 8260 6689 8260 C 6720 8260 6730 8274 6730 8316 C 6730 8341 6730 8341 6752 8320 C 6764 8309 6777 8300 6782 8300 C 6786 8300 6790 8288 6790 8274 C 6790 8245 6811 8220 6834 8220 C 6843 8220 6850 8212 6850 8200 C 6850 8189 6857 8180 6865 8180 C 6873 8180 6880 8176 6880 8170 C 6880 8165 6885 8160 6891 8160 C 6902 8160 6920 8142 6963 8088 C 6975 8073 6991 8060 6998 8060 C 7005 8060 7010 8048 7010 8031 C 7010 8015 7013 7988 7016 7971 C 7022 7944 7026 7940 7056 7940 C 7090 7940 7090 7940 7090 8203 C 7090 8396 7086 8478 7076 8515 C 7062 8565 7062 8565 7061 8508 C 7060 8476 7056 8450 7051 8450 C 7046 8450 7042 8460 7042 8473 C 7042 8509 7032 8539 7011 8566 C 6999 8581 6993 8596 6996 8601 C 6999 8606 6991 8610 6979 8610 C 6967 8610 6959 8613 6963 8616 C 6971 8624 6945 8650 6930 8650 C 6924 8650 6922 8655 6925 8660 C 6928 8666 6924 8670 6916 8670 C 6907 8670 6900 8675 6900 8680 C 6900 8686 6893 8690 6883 8690 C 6874 8690 6869 8693 6873 8696 C 6881 8704 6863 8721 6828 8739 C 6793 8757 6758 8789 6764 8798 C 6766 8802 6751 8806 6729 8807 C 6702 8809 6692 8806 6695 8797 C 6698 8791 6696 8772 6691 8755 C 6683 8729 6682 8732 6681 8783 C 6680 8814 6676 8840 6670 8840 C 6664 8840 6660 8737 6660 8550 z" stroke-linecap="round" />
</g>
		<g transform="matrix(0.1 0 0 0.1 16.28 -218.34)"  >
<path style="stroke: none; stroke-width: 1; stroke-dasharray: none; stroke-linecap: butt; stroke-dashoffset: 0; stroke-linejoin: miter; stroke-miterlimit: 4; fill: rgb(160,239,255); fill-rule: nonzero; opacity: 1;" vector-effect="non-scaling-stroke"  transform=" translate(-10383.49, -6564.01)" d="M 9985 6868 C 9930 6687 9978 6478 10098 6369 C 10164 6310 10255 6255 10310 6239 C 10335 6232 10362 6221 10371 6213 C 10396 6192 10554 6196 10626 6220 C 10701 6244 10776 6285 10795 6313 C 10811 6336 10806 6350 10788 6332 C 10781 6325 10767 6320 10756 6320 C 10736 6320 10736 6320 10756 6335 C 10766 6343 10771 6350 10765 6350 C 10760 6350 10762 6355 10770 6360 C 10781 6367 10781 6370 10772 6370 C 10765 6370 10761 6374 10765 6379 C 10768 6384 10763 6396 10754 6404 C 10746 6413 10743 6420 10748 6420 C 10753 6420 10757 6427 10757 6435 C 10757 6443 10750 6450 10742 6450 C 10733 6450 10729 6453 10733 6456 C 10740 6463 10695 6510 10682 6510 C 10676 6510 10660 6517 10644 6524 C 10629 6532 10612 6536 10607 6533 C 10601 6530 10600 6532 10604 6538 C 10607 6543 10605 6550 10599 6552 C 10591 6555 10593 6562 10604 6573 C 10620 6589 10620 6590 10603 6590 C 10582 6589 10550 6567 10550 6552 C 10550 6547 10559 6544 10570 6547 C 10591 6552 10595 6544 10582 6524 C 10572 6508 10481 6498 10445 6509 C 10415 6518 10415 6518 10455 6520 C 10532 6523 10539 6536 10471 6549 C 10421 6559 10399 6569 10367 6600 C 10328 6635 10326 6641 10322 6705 C 10318 6762 10321 6776 10339 6800 C 10370 6843 10366 6849 10318 6838 C 10289 6832 10274 6832 10272 6839 C 10270 6845 10262 6850 10254 6850 C 10245 6850 10242 6855 10245 6860 C 10250 6868 10223 6875 10198 6871 C 10194 6871 10165 6880 10135 6891 C 10081 6911 10078 6911 10059 6894 C 10044 6881 10040 6880 10039 6891 C 10039 6899 10035 6897 10030 6885 C 10023 6868 10021 6870 10021 6898 C 10020 6948 10006 6936 9985 6868 z" stroke-linecap="round" />
</g>
		<g transform="matrix(0.1 0 0 0.1 85.4 -360.29)"  >
<path style="stroke: none; stroke-width: 1; stroke-dasharray: none; stroke-linecap: butt; stroke-dashoffset: 0; stroke-linejoin: miter; stroke-miterlimit: 4; fill: rgb(160,239,255); fill-rule: nonzero; opacity: 1;" vector-effect="non-scaling-stroke"  transform=" translate(-11074.72, -5144.49)" d="M 10373 5345 C 10350 5321 10341 5260 10359 5260 C 10364 5260 10371 5252 10375 5241 C 10383 5216 10415 5180 10429 5180 C 10435 5180 10440 5176 10440 5170 C 10440 5165 10446 5160 10454 5160 C 10462 5160 10478 5138 10491 5111 C 10504 5083 10523 5059 10533 5057 C 10546 5053 10550 5041 10550 5002 C 10550 4912 10511 4920 10971 4920 C 11198 4920 11380 4924 11380 4929 C 11380 4934 11342 4939 11296 4942 C 11235 4945 11208 4951 11195 4963 C 11183 4975 11182 4980 11192 4980 C 11202 4980 11201 4983 11190 4990 C 11180 4996 11179 5000 11188 5000 C 11204 5000 11199 5021 11178 5041 C 11168 5050 11163 5060 11167 5064 C 11170 5067 11168 5070 11161 5070 C 11154 5070 11142 5077 11134 5085 C 11120 5098 11121 5100 11137 5101 C 11151 5101 11152 5103 11140 5107 C 11114 5118 11098 5138 11113 5143 C 11119 5146 11116 5149 11106 5149 C 11095 5150 11089 5153 11092 5156 C 11099 5163 11053 5210 11039 5210 C 11033 5210 11032 5215 11035 5220 C 11038 5226 11036 5230 11030 5230 C 11024 5230 11022 5234 11025 5240 C 11028 5246 11023 5250 11013 5251 C 10997 5251 10997 5252 11015 5260 C 11032 5267 11031 5269 11005 5270 C 10975 5272 10975 5272 11000 5280 C 11025 5288 11025 5288 11000 5290 C 10977 5291 10977 5292 10995 5300 C 11015 5309 11015 5309 10995 5311 C 10984 5312 10968 5313 10958 5312 C 10949 5311 10936 5317 10930 5325 C 10919 5338 10969 5340 11336 5340 C 11744 5340 11800 5343 11800 5361 C 11800 5366 11498 5370 11098 5369 C 10395 5369 10395 5369 10373 5345 z" stroke-linecap="round" />
</g>
		<g transform="matrix(0.1 0 0 0.1 -334.6 -76.77)"  >
<path style="stroke: none; stroke-width: 1; stroke-dasharray: none; stroke-linecap: butt; stroke-dashoffset: 0; stroke-linejoin: miter; stroke-miterlimit: 4; fill: rgb(172,248,255); fill-rule: nonzero; opacity: 1;" vector-effect="non-scaling-stroke"  transform=" translate(-6874.63, -7979.68)" d="M 6668 8447 C 6663 8437 6660 8287 6660 8114 C 6660 7800 6660 7800 6695 7800 C 6723 7800 6730 7804 6730 7820 C 6730 7857 6759 7835 6775 7785 C 6782 7764 6795 7752 6818 7745 C 6839 7739 6850 7730 6850 7718 C 6850 7704 6858 7700 6885 7700 C 6904 7700 6920 7697 6920 7693 C 6920 7688 6940 7672 6964 7655 C 7005 7627 7008 7622 7014 7568 C 7021 7510 7021 7510 7055 7510 C 7090 7510 7090 7510 7089 7748 C 7089 7878 7085 8008 7080 8035 C 7073 8085 7073 8085 7071 8045 C 7070 8023 7065 7996 7060 7985 C 7052 7966 7051 7966 7049 7988 C 7048 8000 7046 8019 7045 8030 C 7044 8041 7042 8059 7041 8070 C 7041 8081 7035 8090 7029 8090 C 7023 8090 7012 8096 7004 8104 C 6993 8115 6993 8120 7003 8123 C 7011 8127 7009 8129 6999 8129 C 6981 8130 6939 8175 6947 8184 C 6951 8187 6943 8190 6931 8190 C 6919 8190 6912 8194 6915 8200 C 6918 8206 6912 8210 6901 8210 C 6889 8210 6881 8213 6881 8218 C 6885 8240 6878 8250 6858 8250 C 6839 8250 6838 8252 6850 8260 C 6862 8268 6860 8270 6840 8270 C 6820 8270 6818 8272 6830 8280 C 6843 8289 6843 8290 6830 8290 C 6817 8290 6817 8291 6830 8300 C 6841 8307 6841 8310 6832 8310 C 6825 8310 6821 8314 6824 8318 C 6826 8322 6815 8332 6799 8339 C 6783 8346 6772 8356 6776 8361 C 6779 8366 6776 8370 6770 8370 C 6764 8370 6762 8375 6765 8380 C 6769 8386 6760 8390 6746 8390 C 6732 8390 6721 8393 6721 8398 C 6722 8402 6722 8414 6721 8425 C 6720 8440 6717 8441 6708 8432 C 6701 8425 6695 8394 6694 8362 C 6691 8273 6687 8277 6681 8375 C 6677 8430 6672 8458 6668 8447 z" stroke-linecap="round" />
</g>
		<g transform="matrix(0.1 0 0 0.1 -48.56 -360.24)"  >
<path style="stroke: none; stroke-width: 1; stroke-dasharray: none; stroke-linecap: butt; stroke-dashoffset: 0; stroke-linejoin: miter; stroke-miterlimit: 4; fill: rgb(172,248,255); fill-rule: nonzero; opacity: 1;" vector-effect="non-scaling-stroke"  transform=" translate(-9735, -5145)" d="M 8800 5336 C 8800 5303 8800 5303 8992 5298 C 9119 5294 9186 5288 9188 5281 C 9190 5275 9200 5270 9211 5270 C 9225 5270 9230 5263 9230 5245 C 9230 5231 9235 5220 9240 5220 C 9246 5220 9250 5188 9250 5144 C 9250 5060 9260 5041 9307 5039 C 9330 5037 9331 5037 9313 5033 C 9300 5031 9290 5024 9290 5019 C 9290 5014 9268 5010 9240 5010 C 9213 5010 9190 5006 9190 5000 C 9190 4994 9121 4990 9003 4990 C 8780 4990 8770 4988 8770 4949 C 8770 4920 8770 4920 9735 4920 C 10285 4920 10700 4924 10700 4929 C 10700 4941 10612 4962 10598 4954 C 10592 4950 10590 4951 10594 4958 C 10597 4963 10594 4971 10588 4973 C 10581 4976 10586 4979 10600 4979 C 10619 4980 10621 4983 10611 4989 C 10600 4996 10602 4999 10621 5002 C 10645 5005 10644 5005 10615 5020 C 10596 5029 10585 5043 10585 5055 C 10585 5066 10574 5080 10560 5087 C 10546 5094 10539 5100 10544 5100 C 10549 5100 10546 5108 10537 5118 C 10529 5127 10521 5138 10521 5143 C 10519 5159 10494 5190 10483 5190 C 10476 5190 10470 5195 10470 5200 C 10470 5206 10462 5210 10453 5210 C 10438 5210 10437 5212 10450 5220 C 10462 5228 10460 5230 10440 5230 C 10420 5230 10418 5232 10430 5240 C 10443 5248 10442 5250 10427 5250 C 10417 5250 10412 5255 10415 5260 C 10418 5266 10416 5270 10410 5270 C 10404 5270 10401 5274 10405 5279 C 10408 5284 10402 5291 10393 5293 C 10376 5297 10376 5298 10393 5299 C 10403 5299 10408 5304 10405 5310 C 10402 5315 10406 5320 10415 5320 C 10424 5320 10428 5325 10425 5330 C 10421 5336 10437 5340 10467 5340 C 10523 5340 10560 5349 10560 5361 C 10560 5366 10183 5370 9680 5370 C 8800 5370 8800 5370 8800 5336 z" stroke-linecap="round" />
</g>
		<g transform="matrix(0.1 0 0 0.1 -0.18 -66.2)"  >
<path style="stroke: none; stroke-width: 1; stroke-dasharray: none; stroke-linecap: butt; stroke-dashoffset: 0; stroke-linejoin: miter; stroke-miterlimit: 4; fill: rgb(181,254,255); fill-rule: nonzero; opacity: 1;" vector-effect="non-scaling-stroke"  transform=" translate(-10218.81, -8085.39)" d="M 7885 11226 C 7858 11214 7818 11191 7796 11177 C 7775 11162 7754 11153 7750 11155 C 7745 11158 7739 11156 7735 11150 C 7732 11145 7685 11111 7632 11076 C 7579 11041 7504 10986 7465 10955 C 7370 10877 7160 10677 7160 10665 C 7160 10659 7151 10649 7140 10642 C 7129 10635 7120 10624 7120 10617 C 7120 10611 7103 10587 7083 10565 C 7007 10482 6882 10267 6808 10090 C 6769 9997 6729 9872 6705 9767 C 6660 9570 6661 9605 6659 8205 C 6659 7290 6662 6853 6669 6805 C 6675 6767 6685 6706 6691 6670 C 6706 6582 6749 6414 6770 6365 C 6774 6354 6788 6318 6801 6285 C 6866 6111 7003 5876 7137 5707 C 7244 5573 7442 5386 7532 5334 C 7542 5328 7561 5314 7573 5303 C 7594 5285 7620 5268 7715 5209 C 7782 5167 7920 5100 7940 5100 C 7949 5100 7963 5093 7970 5085 C 7977 5077 7990 5070 7999 5070 C 8008 5070 8038 5059 8065 5045 C 8093 5032 8126 5020 8141 5020 C 8155 5020 8171 5015 8177 5009 C 8182 5004 8214 4997 8246 4994 C 8278 4991 8325 4979 8349 4968 C 8373 4957 8431 4943 8479 4937 C 8605 4922 11810 4916 11915 4930 C 12160 4964 12358 5023 12559 5124 C 12805 5247 12966 5365 13161 5566 C 13484 5899 13695 6333 13765 6807 C 13783 6932 13783 6930 13766 6930 C 13757 6930 13751 6910 13747 6863 C 13725 6597 13604 6242 13442 5965 C 13296 5716 13040 5446 12795 5284 C 12678 5207 12441 5090 12320 5051 C 12020 4955 11834 4935 11225 4935 C 10058 4935 8798 4943 8815 4950 C 8826 4955 8954 4960 9100 4961 C 9267 4963 9337 4966 9290 4970 C 9215 4976 9215 4976 9273 4978 C 9309 4979 9329 4984 9325 4990 C 9321 4996 9331 5000 9347 4999 C 9372 4999 9373 4998 9355 4990 C 9337 4982 9338 4981 9363 4981 C 9379 4980 9389 4984 9385 4990 C 9381 4996 9391 5000 9407 5001 C 9431 5001 9432 5002 9415 5009 C 9404 5014 9392 5015 9387 5013 C 9383 5011 9381 5014 9382 5022 C 9384 5029 9380 5034 9373 5033 C 9366 5031 9363 5039 9365 5050 C 9368 5067 9363 5070 9332 5071 C 9302 5071 9299 5073 9315 5080 C 9332 5087 9331 5089 9305 5090 C 9275 5092 9275 5092 9305 5100 C 9333 5107 9333 5108 9310 5109 C 9290 5110 9288 5112 9300 5120 C 9312 5128 9312 5130 9295 5131 C 9275 5131 9275 5131 9295 5140 C 9310 5146 9311 5149 9299 5149 C 9272 5151 9281 5180 9309 5181 C 9326 5182 9329 5184 9317 5187 C 9308 5189 9302 5196 9305 5201 C 9309 5206 9305 5210 9296 5210 C 9288 5210 9283 5218 9284 5228 C 9286 5237 9280 5248 9271 5252 C 9261 5256 9271 5259 9295 5260 C 9330 5262 9332 5263 9310 5270 C 9296 5274 9289 5278 9294 5279 C 9299 5280 9297 5287 9290 5295 C 9282 5305 9267 5308 9249 5305 C 9229 5301 9220 5304 9220 5313 C 9220 5322 9205 5326 9173 5327 C 8864 5331 8870 5335 9195 5341 C 9399 5344 10074 5348 10697 5349 C 11976 5350 11934 5348 12182 5430 C 12349 5486 12584 5611 12700 5705 C 12890 5861 13038 6034 13151 6235 C 13217 6354 13226 6374 13301 6580 C 13315 6620 13339 6718 13357 6805 C 13369 6870 13373 6987 13377 7420 C 13380 7714 13378 7997 13374 8050 C 13367 8118 13363 7967 13359 7520 C 13354 6934 13352 6889 13332 6790 C 13295 6604 13258 6495 13180 6335 C 13040 6047 12849 5825 12595 5655 C 12435 5548 12298 5485 12110 5431 C 11901 5372 11992 5375 10240 5375 C 8457 5375 8580 5371 8325 5440 C 8158 5485 7945 5590 7798 5700 C 7687 5782 7554 5907 7483 5995 C 7315 6204 7181 6482 7130 6725 C 7125 6753 7115 6798 7109 6825 C 7101 6860 7096 7165 7093 7828 C 7089 8614 7091 8780 7102 8780 C 7109 8780 7296 8599 7516 8379 C 7737 8158 7923 7979 7929 7981 C 7944 7986 7137 8782 7105 8794 C 7091 8800 7077 8800 7073 8796 C 7068 8792 7065 8507 7065 8164 C 7065 7821 7062 7540 7058 7540 C 7055 7540 7048 7565 7044 7596 C 7038 7647 7015 7689 6993 7690 C 6988 7691 6975 7700 6962 7710 C 6950 7721 6925 7730 6907 7731 C 6890 7731 6881 7734 6887 7737 C 6897 7740 6897 7745 6886 7756 C 6878 7764 6866 7770 6860 7770 C 6854 7770 6839 7775 6827 7782 C 6805 7794 6805 7794 6830 7801 C 6854 7808 6854 7808 6825 7810 C 6799 7811 6798 7813 6815 7820 C 6833 7828 6833 7829 6817 7829 C 6807 7830 6802 7835 6805 7840 C 6808 7846 6804 7850 6796 7850 C 6787 7850 6780 7855 6780 7860 C 6780 7866 6772 7870 6763 7871 C 6751 7871 6750 7873 6758 7877 C 6774 7883 6755 7910 6735 7910 C 6727 7910 6720 7916 6717 7923 C 6709 7946 6699 7922 6697 7876 C 6697 7851 6692 7830 6688 7830 C 6684 7830 6680 8178 6680 8603 C 6680 9456 6686 9570 6739 9786 C 6795 10017 6868 10190 6998 10407 C 7045 10486 7158 10645 7178 10659 C 7182 10663 7211 10695 7242 10731 C 7302 10800 7462 10944 7540 10999 C 7657 11081 7733 11128 7827 11178 C 7884 11207 7932 11235 7935 11241 C 7943 11253 7942 11253 7885 11226 z" stroke-linecap="round" />
</g>
		<g transform="matrix(0.1 0 0 0.1 -289.02 67.26)"  >
<path style="stroke: none; stroke-width: 1; stroke-dasharray: none; stroke-linecap: butt; stroke-dashoffset: 0; stroke-linejoin: miter; stroke-miterlimit: 4; fill: rgb(181,254,255); fill-rule: nonzero; opacity: 1;" vector-effect="non-scaling-stroke"  transform=" translate(-7330.46, -9420)" d="M 7238 10023 C 7168 9938 7091 9704 7070 9510 C 7050 9326 7034 9353 7328 9058 C 7469 8916 7591 8800 7600 8800 C 7608 8800 7496 8918 7351 9063 C 7088 9325 7088 9325 7093 9460 C 7100 9609 7126 9730 7182 9872 C 7220 9968 7247 10010 7280 10027 C 7305 10040 7305 10040 7279 10040 C 7265 10040 7246 10032 7238 10023 z" stroke-linecap="round" />
</g>
		<g transform="matrix(0.1 0 0 0.1 -120.82 27.16)"  >
<path style="stroke: none; stroke-width: 1; stroke-dasharray: none; stroke-linecap: butt; stroke-dashoffset: 0; stroke-linejoin: miter; stroke-miterlimit: 4; fill: rgb(181,254,255); fill-rule: nonzero; opacity: 1;" vector-effect="non-scaling-stroke"  transform=" translate(-9012.49, -9019.05)" d="M 8110 9217 C 8424 8900 8499 8838 8675 8755 C 8824 8684 8937 8649 9035 8643 C 9079 8641 9124 8635 9135 8630 C 9146 8625 9351 8618 9590 8616 C 9829 8613 10052 8609 10085 8606 C 10145 8601 10145 8601 10090 8616 C 10047 8628 9958 8632 9670 8635 C 9051 8641 8955 8653 8745 8745 C 8523 8842 8419 8921 8095 9239 C 7825 9504 7825 9504 8110 9217 z" stroke-linecap="round" />
</g>
		<g transform="matrix(0.1 0 0 0.1 -95.81 45.91)"  >
<path style="stroke: none; stroke-width: 1; stroke-dasharray: none; stroke-linecap: butt; stroke-dashoffset: 0; stroke-linejoin: miter; stroke-miterlimit: 4; fill: rgb(181,254,255); fill-rule: nonzero; opacity: 1;" vector-effect="non-scaling-stroke"  transform=" translate(-9262.46, -9206.54)" d="M 8450 9375 C 8588 9233 8645 9182 8734 9126 C 8844 9056 8957 9013 9101 8985 C 9165 8973 9262 8970 9554 8970 C 9824 8970 9952 8966 10025 8955 C 10141 8938 10183 8936 10160 8949 C 10139 8960 10023 8981 9980 8981 C 9961 8980 9756 8984 9525 8989 C 9138 8996 9099 8999 9030 9019 C 8933 9047 8910 9056 8819 9101 C 8706 9156 8638 9207 8508 9332 C 8329 9505 8313 9517 8450 9375 z" stroke-linecap="round" />
</g>
		<g transform="matrix(0.1 0 0 0.1 180.41 -17.11)"  >
<path style="stroke: none; stroke-width: 1; stroke-dasharray: none; stroke-linecap: butt; stroke-dashoffset: 0; stroke-linejoin: miter; stroke-miterlimit: 4; fill: rgb(181,254,255); fill-rule: nonzero; opacity: 1;" vector-effect="non-scaling-stroke"  transform=" translate(-12024.76, -8576.27)" d="M 12260 8630 C 12140 8505 11992 8459 11810 8489 C 11780 8494 11746 8502 11735 8506 C 11717 8512 11717 8511 11730 8498 C 11756 8472 11809 8460 11899 8460 C 12064 8460 12201 8526 12301 8651 C 12351 8714 12331 8704 12260 8630 z" stroke-linecap="round" />
</g>
		<g transform="matrix(0.1 0 0 0.1 85.9 -121.95)"  >
<path style="stroke: none; stroke-width: 1; stroke-dasharray: none; stroke-linecap: butt; stroke-dashoffset: 0; stroke-linejoin: miter; stroke-miterlimit: 4; fill: rgb(181,254,255); fill-rule: nonzero; opacity: 1;" vector-effect="non-scaling-stroke"  transform=" translate(-11079.73, -7527.89)" d="M 10979 7868 C 11612 7233 11612 7233 11590 7169 C 11547 7046 11552 6903 11606 6782 C 11633 6721 11708 6620 11744 6597 C 11791 6566 11793 6580 11747 6620 C 11609 6741 11551 6942 11599 7127 C 11610 7172 11620 7219 11620 7231 C 11620 7246 11553 7319 11408 7463 C 10700 8164 10411 8449 10380 8475 C 10361 8491 10630 8218 10979 7868 z" stroke-linecap="round" />
</g>
		<g transform="matrix(0.1 0 0 0.1 -10.05 -121.63)"  >
<path style="stroke: none; stroke-width: 1; stroke-dasharray: none; stroke-linecap: butt; stroke-dashoffset: 0; stroke-linejoin: miter; stroke-miterlimit: 4; fill: rgb(181,254,255); fill-rule: nonzero; opacity: 1;" vector-effect="non-scaling-stroke"  transform=" translate(-10120.11, -7531.17)" d="M 9645 7844 C 9673 7817 9718 7775 9745 7750 C 9828 7675 9997 7492 10105 7360 C 10161 7291 10221 7222 10238 7206 C 10271 7175 10261 7176 10405 7200 C 10445 7206 10512 7209 10560 7206 C 10627 7201 10641 7202 10625 7212 C 10592 7232 10421 7235 10358 7216 C 10266 7190 10276 7184 10160 7324 C 9941 7588 9781 7754 9660 7844 C 9595 7892 9595 7892 9645 7844 z" stroke-linecap="round" />
</g>
		<g transform="matrix(0.1 0 0 0.1 -138.85 -105.54)"  >
<path style="stroke: none; stroke-width: 1; stroke-dasharray: none; stroke-linecap: butt; stroke-dashoffset: 0; stroke-linejoin: miter; stroke-miterlimit: 4; fill: rgb(181,254,255); fill-rule: nonzero; opacity: 1;" vector-effect="non-scaling-stroke"  transform=" translate(-8832.15, -7691.94)" d="M 8422 7713 C 8430 7703 8511 7700 8765 7700 C 9052 7700 9101 7698 9130 7684 C 9168 7664 9266 7652 9238 7670 C 9228 7676 9181 7689 9133 7700 C 9060 7715 8992 7719 8728 7722 C 8476 7724 8414 7722 8422 7713 z" stroke-linecap="round" />
</g>
		<g transform="matrix(0.1 0 0 0.1 -50.88 -164.45)"  >
<path style="stroke: none; stroke-width: 1; stroke-dasharray: none; stroke-linecap: butt; stroke-dashoffset: 0; stroke-linejoin: miter; stroke-miterlimit: 4; fill: rgb(181,254,255); fill-rule: nonzero; opacity: 1;" vector-effect="non-scaling-stroke"  transform=" translate(-9711.85, -7102.96)" d="M 9536 7444 C 9631 7351 9774 7195 9855 7097 C 10003 6919 10003 6919 9984 6862 C 9961 6793 9957 6629 9978 6622 C 9988 6619 9990 6634 9989 6687 C 9988 6724 9995 6789 10004 6830 C 10013 6871 10020 6912 10020 6921 C 10020 6929 9992 6968 9958 7007 C 9923 7046 9861 7120 9821 7172 C 9733 7282 9485 7530 9414 7579 C 9382 7601 9425 7554 9536 7444 z" stroke-linecap="round" />
</g>
		<g transform="matrix(0.1 0 0 0.1 210.83 -180.17)"  >
<path style="stroke: none; stroke-width: 1; stroke-dasharray: none; stroke-linecap: butt; stroke-dashoffset: 0; stroke-linejoin: miter; stroke-miterlimit: 4; fill: rgb(181,254,255); fill-rule: nonzero; opacity: 1;" vector-effect="non-scaling-stroke"  transform=" translate(-12328.91, -6945.75)" d="M 12407 7369 C 12512 7258 12569 7126 12570 6992 C 12570 6933 12536 6812 12502 6749 C 12468 6689 12394 6600 12378 6600 C 12371 6600 12357 6592 12346 6582 C 12313 6553 12232 6523 12148 6509 C 12106 6502 12073 6493 12076 6488 C 12084 6476 12139 6479 12195 6494 C 12367 6540 12492 6655 12556 6825 C 12578 6884 12582 6911 12582 6995 C 12582 7102 12563 7174 12516 7254 C 12491 7295 12412 7383 12375 7409 C 12364 7417 12378 7399 12407 7369 z" stroke-linecap="round" />
</g>
		<g transform="matrix(0.1 0 0 0.1 45.29 -206)"  >
<path style="stroke: none; stroke-width: 1; stroke-dasharray: none; stroke-linecap: butt; stroke-dashoffset: 0; stroke-linejoin: miter; stroke-miterlimit: 4; fill: rgb(181,254,255); fill-rule: nonzero; opacity: 1;" vector-effect="non-scaling-stroke"  transform=" translate(-10673.48, -6687.45)" d="M 10745 7146 C 10837 7063 10859 7041 10890 6996 C 10978 6866 10996 6661 10930 6514 C 10902 6454 10826 6355 10791 6334 C 10774 6324 10760 6313 10760 6309 C 10760 6297 10624 6240 10569 6230 C 10519 6220 10413 6224 10365 6237 C 10345 6243 10345 6242 10364 6221 C 10381 6202 10394 6200 10475 6200 C 10625 6200 10738 6247 10845 6355 C 10917 6427 10964 6515 10987 6623 C 11009 6727 10995 6832 10945 6938 C 10905 7022 10815 7123 10748 7159 C 10705 7182 10705 7182 10745 7146 z" stroke-linecap="round" />
</g>
		<g transform="matrix(0.1 0 0 0.1 185.11 -175.42)"  >
<path style="stroke: none; stroke-width: 1; stroke-dasharray: none; stroke-linecap: butt; stroke-dashoffset: 0; stroke-linejoin: miter; stroke-miterlimit: 4; fill: rgb(181,254,255); fill-rule: nonzero; opacity: 1;" vector-effect="non-scaling-stroke"  transform=" translate(-12071.68, -6993.16)" d="M 12015 7173 C 11987 7165 11940 7124 11913 7084 C 11886 7045 11881 6947 11905 6916 C 11924 6891 11935 6902 11920 6931 C 11913 6944 11910 6977 11912 7011 C 11916 7059 11922 7076 11946 7101 C 11989 7146 12022 7160 12089 7160 C 12146 7160 12150 7159 12184 7118 C 12246 7046 12253 6973 12205 6899 C 12175 6853 12109 6825 12050 6833 C 12015 6837 12011 6836 12021 6824 C 12046 6794 12148 6816 12198 6863 C 12259 6920 12272 7016 12227 7087 C 12190 7145 12150 7171 12087 7175 C 12059 7177 12026 7176 12015 7173 z" stroke-linecap="round" />
</g>
		<g transform="matrix(0.1 0 0 0.1 26.03 -203.73)"  >
<path style="stroke: none; stroke-width: 1; stroke-dasharray: none; stroke-linecap: butt; stroke-dashoffset: 0; stroke-linejoin: miter; stroke-miterlimit: 4; fill: rgb(181,254,255); fill-rule: nonzero; opacity: 1;" vector-effect="non-scaling-stroke"  transform=" translate(-10480.98, -6710.19)" d="M 10405 6885 C 10338 6853 10302 6805 10296 6735 C 10292 6685 10302 6640 10318 6640 C 10322 6640 10324 6669 10322 6705 C 10318 6761 10321 6775 10341 6805 C 10376 6856 10426 6880 10499 6880 C 10560 6880 10560 6880 10600 6829 C 10636 6783 10640 6773 10640 6721 C 10640 6677 10634 6655 10618 6630 C 10579 6573 10547 6556 10479 6555 C 10420 6555 10420 6555 10441 6538 C 10468 6515 10478 6516 10539 6539 C 10592 6559 10604 6568 10637 6615 C 10685 6684 10674 6780 10612 6845 C 10592 6865 10565 6886 10552 6891 C 10517 6904 10439 6901 10405 6885 z" stroke-linecap="round" />
</g>
</g>
</g>
</svg>